<svg xmlns="http://www.w3.org/2000/svg" xmlns:xlink="http://www.w3.org/1999/xlink" width="120" zoomAndPan="magnify" viewBox="0 0 90 37.5" height="50" preserveAspectRatio="xMidYMid meet" version="1.0"><defs><clipPath id="2d0cf7d6c8"><path d="M 26.003906 0.738281 L 61.6875 0.738281 L 61.6875 36.421875 L 26.003906 36.421875 Z M 26.003906 0.738281 " clip-rule="nonzero"/></clipPath><clipPath id="3e58c595fd"><path d="M 42.515625 2.925781 C 31.867188 3.703125 25.148438 15.183594 29.476562 24.953125 C 34.367188 35.980469 49.511719 37.636719 56.589844 27.820312 C 64.503906 16.855469 55.917969 1.945312 42.515625 2.925781 M 42.6875 0.878906 C 57.03125 -0.046875 66.5625 15.679688 58.941406 27.957031 C 52.207031 38.816406 36.539062 39.164062 29.25 28.671875 C 21.414062 17.394531 29.0625 1.746094 42.691406 0.875 " clip-rule="nonzero"/></clipPath><clipPath id="e72f369eb3"><path d="M 0.00390625 0.738281 L 35.6875 0.738281 L 35.6875 36.421875 L 0.00390625 36.421875 Z M 0.00390625 0.738281 " clip-rule="nonzero"/></clipPath><clipPath id="f73b7b26ac"><path d="M 16.515625 2.925781 C 5.867188 3.703125 -0.851562 15.183594 3.476562 24.953125 C 8.367188 35.980469 23.511719 37.636719 30.589844 27.820312 C 38.503906 16.855469 29.917969 1.945312 16.515625 2.925781 M 16.6875 0.878906 C 31.03125 -0.046875 40.5625 15.679688 32.941406 27.957031 C 26.207031 38.816406 10.539062 39.164062 3.25 28.671875 C -4.585938 17.394531 3.0625 1.746094 16.691406 0.875 " clip-rule="nonzero"/></clipPath><clipPath id="241804fd4e"><rect x="0" width="36" y="0" height="37"/></clipPath><clipPath id="286e0570c8"><path d="M 35.078125 7.15625 L 49.476562 7.15625 L 49.476562 22.648438 L 35.078125 22.648438 Z M 35.078125 7.15625 " clip-rule="nonzero"/></clipPath><clipPath id="e9d50cea9e"><path d="M 40.121094 10.332031 C 39.519531 10.511719 39.816406 11.59375 40.425781 11.496094 C 41.171875 11.378906 41.089844 10.046875 40.121094 10.332031 M 38.613281 8.78125 C 38.671875 8.664062 38.558594 8.554688 38.53125 8.613281 C 38.46875 8.730469 38.585938 8.839844 38.613281 8.78125 M 35.972656 8.269531 C 36.804688 8.371094 37.636719 8.273438 38.441406 8.570312 C 38 8.140625 37.066406 7.941406 36.460938 8.035156 C 36.394531 8.046875 36 8.171875 35.972656 8.269531 M 41.597656 12.792969 C 42.449219 14.226562 43.230469 15.714844 44.117188 17.128906 C 44.941406 18.4375 45.65625 19.515625 46.839844 20.542969 C 47.25 20.898438 49.191406 22.152344 49.289062 22.363281 C 49.550781 22.910156 48.457031 22.503906 48.222656 22.40625 C 47.382812 22.058594 45.464844 20.398438 44.792969 19.699219 C 42.566406 17.378906 41.316406 13.894531 39.199219 11.4375 C 38.914062 11.34375 38.863281 11.640625 38.699219 11.8125 C 38.402344 12.113281 38.089844 12.476562 37.730469 12.699219 C 37.621094 12.679688 36.195312 11.234375 36.136719 11.132812 C 36.0625 11.007812 35.996094 10.808594 36.074219 10.675781 C 36.167969 10.515625 37.574219 9.898438 37.503906 9.597656 C 37.480469 9.496094 36.96875 9.34375 36.847656 9.316406 C 36.320312 9.203125 35.570312 9.398438 35.175781 8.960938 C 35.070312 8.839844 35.09375 8.265625 35.167969 8.101562 C 35.320312 7.753906 36.351562 7.320312 36.71875 7.265625 C 40.214844 6.722656 40.832031 10.246094 42.964844 12.152344 C 43.128906 12.296875 43.953125 12.835938 43.984375 12.929688 C 44.039062 13.113281 43.417969 13.730469 43.28125 13.714844 C 42.992188 13.6875 41.816406 12.625 41.605469 12.792969 " clip-rule="nonzero"/></clipPath><clipPath id="58f1bded03"><path d="M 0.078125 0.15625 L 14.476562 0.15625 L 14.476562 15.648438 L 0.078125 15.648438 Z M 0.078125 0.15625 " clip-rule="nonzero"/></clipPath><clipPath id="7e91e562eb"><path d="M 5.121094 3.332031 C 4.519531 3.511719 4.816406 4.59375 5.425781 4.496094 C 6.171875 4.378906 6.089844 3.046875 5.121094 3.332031 M 3.613281 1.78125 C 3.671875 1.664062 3.558594 1.554688 3.53125 1.613281 C 3.46875 1.730469 3.585938 1.839844 3.613281 1.78125 M 0.972656 1.269531 C 1.804688 1.371094 2.636719 1.273438 3.441406 1.570312 C 3 1.140625 2.066406 0.941406 1.460938 1.035156 C 1.394531 1.046875 1 1.171875 0.972656 1.269531 M 6.597656 5.792969 C 7.449219 7.226562 8.230469 8.714844 9.117188 10.128906 C 9.941406 11.4375 10.65625 12.515625 11.839844 13.542969 C 12.25 13.898438 14.191406 15.152344 14.289062 15.363281 C 14.550781 15.910156 13.457031 15.503906 13.222656 15.40625 C 12.382812 15.058594 10.464844 13.398438 9.792969 12.699219 C 7.566406 10.378906 6.316406 6.894531 4.199219 4.4375 C 3.914062 4.34375 3.863281 4.640625 3.699219 4.8125 C 3.402344 5.113281 3.089844 5.476562 2.730469 5.699219 C 2.621094 5.679688 1.195312 4.234375 1.136719 4.132812 C 1.0625 4.007812 0.996094 3.808594 1.074219 3.675781 C 1.167969 3.515625 2.574219 2.898438 2.503906 2.597656 C 2.480469 2.496094 1.96875 2.34375 1.847656 2.316406 C 1.320312 2.203125 0.570312 2.398438 0.175781 1.960938 C 0.0703125 1.839844 0.09375 1.265625 0.167969 1.101562 C 0.320312 0.753906 1.351562 0.320312 1.71875 0.265625 C 5.214844 -0.277344 5.832031 3.246094 7.964844 5.152344 C 8.128906 5.296875 8.953125 5.835938 8.984375 5.929688 C 9.039062 6.113281 8.417969 6.730469 8.28125 6.714844 C 7.992188 6.6875 6.816406 5.625 6.605469 5.792969 " clip-rule="nonzero"/></clipPath><clipPath id="e9d3c7f23e"><rect x="0" width="15" y="0" height="16"/></clipPath><clipPath id="8ec63a3e67"><path d="M 43.0625 6.0625 L 52.609375 6.0625 L 52.609375 16 L 43.0625 16 Z M 43.0625 6.0625 " clip-rule="nonzero"/></clipPath><clipPath id="ceacfeb661"><path d="M 50.953125 8.546875 C 51.230469 8.941406 50.71875 9.394531 51.273438 9.890625 C 51.566406 10.152344 52.785156 10.082031 52.515625 10.785156 C 52.164062 10.972656 51.359375 12.265625 51.039062 12.179688 C 50.984375 12.164062 50.449219 11.648438 50.425781 11.585938 C 50.378906 11.476562 50.472656 11.351562 50.40625 11.191406 C 50.128906 10.492188 49.496094 10.917969 48.9375 10.863281 C 47.46875 12.300781 46.167969 13.894531 44.757812 15.386719 C 44.632812 15.523438 44.144531 16.089844 43.984375 15.984375 C 43.921875 15.945312 43.203125 14.742188 43.175781 14.660156 C 43.15625 14.597656 43.117188 14.558594 43.171875 14.492188 C 44.40625 13.144531 45.710938 11.847656 46.929688 10.484375 C 47.027344 10.371094 47.570312 9.742188 47.570312 9.675781 C 47.570312 9.621094 47.414062 9.648438 47.394531 9.578125 C 47.285156 9.121094 47.421875 8.429688 46.992188 8.007812 C 46.632812 7.65625 45.382812 7.226562 44.875 7.171875 C 44.519531 7.128906 43.59375 7.308594 43.488281 6.933594 C 43.355469 6.457031 44.113281 6.261719 44.457031 6.226562 C 46.851562 5.984375 49.179688 7.027344 50.953125 8.554688 " clip-rule="nonzero"/></clipPath><clipPath id="84c0403bef"><path d="M 0.0625 0.0625 L 9.609375 0.0625 L 9.609375 10 L 0.0625 10 Z M 0.0625 0.0625 " clip-rule="nonzero"/></clipPath><clipPath id="ccb10f020e"><path d="M 7.953125 2.546875 C 8.230469 2.941406 7.71875 3.394531 8.273438 3.890625 C 8.566406 4.152344 9.785156 4.082031 9.515625 4.785156 C 9.164062 4.972656 8.359375 6.265625 8.039062 6.179688 C 7.984375 6.164062 7.449219 5.648438 7.425781 5.585938 C 7.378906 5.476562 7.472656 5.351562 7.40625 5.191406 C 7.128906 4.492188 6.496094 4.917969 5.9375 4.863281 C 4.46875 6.300781 3.167969 7.894531 1.757812 9.386719 C 1.632812 9.523438 1.144531 10.089844 0.984375 9.984375 C 0.921875 9.945312 0.203125 8.742188 0.175781 8.660156 C 0.15625 8.597656 0.117188 8.558594 0.171875 8.492188 C 1.40625 7.144531 2.710938 5.847656 3.929688 4.484375 C 4.027344 4.371094 4.570312 3.742188 4.570312 3.675781 C 4.570312 3.621094 4.414062 3.648438 4.394531 3.578125 C 4.285156 3.121094 4.421875 2.429688 3.992188 2.007812 C 3.632812 1.65625 2.382812 1.226562 1.875 1.171875 C 1.519531 1.128906 0.59375 1.308594 0.488281 0.933594 C 0.355469 0.457031 1.113281 0.261719 1.457031 0.226562 C 3.851562 -0.015625 6.179688 1.027344 7.953125 2.554688 " clip-rule="nonzero"/></clipPath><clipPath id="2e28a58db0"><rect x="0" width="10" y="0" height="10"/></clipPath><clipPath id="310490b3cc"><path d="M 37.269531 16.078125 L 42.75 16.078125 L 42.75 22.179688 L 37.269531 22.179688 Z M 37.269531 16.078125 " clip-rule="nonzero"/></clipPath><clipPath id="f068c37783"><path d="M 37.613281 21.972656 C 37.132812 21.527344 37.433594 20.785156 37.773438 20.351562 L 41.726562 16.117188 C 41.800781 16.117188 42.53125 17.28125 42.574219 17.398438 C 42.621094 17.519531 42.664062 17.609375 42.582031 17.734375 L 38.570312 22 C 38.296875 22.214844 37.875 22.210938 37.613281 21.972656 " clip-rule="nonzero"/></clipPath><clipPath id="a76ea01e2e"><path d="M 0.269531 0.105469 L 5.75 0.105469 L 5.75 6.179688 L 0.269531 6.179688 Z M 0.269531 0.105469 " clip-rule="nonzero"/></clipPath><clipPath id="7e2f5a34d6"><path d="M 0.613281 5.972656 C 0.132812 5.527344 0.433594 4.785156 0.773438 4.351562 L 4.726562 0.117188 C 4.800781 0.117188 5.53125 1.28125 5.574219 1.398438 C 5.621094 1.519531 5.664062 1.609375 5.582031 1.734375 L 1.570312 6 C 1.296875 6.214844 0.875 6.210938 0.613281 5.972656 " clip-rule="nonzero"/></clipPath><clipPath id="3894bf43f8"><rect x="0" width="6" y="0" height="7"/></clipPath><clipPath id="7eb72dcd6a"><path d="M 51.042969 24.214844 L 53.234375 24.214844 L 53.234375 29.378906 L 51.042969 29.378906 Z M 51.042969 24.214844 " clip-rule="nonzero"/></clipPath><clipPath id="4933bb402c"><path d="M 51.742188 29.03125 C 51.746094 29.089844 51.875 29.203125 51.824219 29.328125 L 51.0625 29.328125 L 51.0625 24.296875 C 51.257812 24.320312 51.671875 24.21875 51.789062 24.378906 L 52.511719 26.9375 L 52.511719 24.511719 C 52.511719 24.484375 52.394531 24.394531 52.425781 24.300781 L 53.195312 24.300781 L 53.195312 29.332031 L 52.503906 29.28125 L 51.742188 26.605469 C 51.804688 27.382812 51.664062 28.269531 51.742188 29.035156 " clip-rule="nonzero"/></clipPath><clipPath id="55bdc4460d"><path d="M 0.0429688 0.214844 L 2.234375 0.214844 L 2.234375 5.367188 L 0.0429688 5.367188 Z M 0.0429688 0.214844 " clip-rule="nonzero"/></clipPath><clipPath id="1ec28b92a6"><path d="M 0.742188 5.03125 C 0.746094 5.089844 0.875 5.203125 0.824219 5.328125 L 0.0625 5.328125 L 0.0625 0.296875 C 0.257812 0.320312 0.671875 0.21875 0.789062 0.378906 L 1.511719 2.9375 L 1.511719 0.511719 C 1.511719 0.484375 1.394531 0.394531 1.425781 0.300781 L 2.195312 0.300781 L 2.195312 5.332031 L 1.503906 5.28125 L 0.742188 2.605469 C 0.804688 3.382812 0.664062 4.269531 0.742188 5.035156 " clip-rule="nonzero"/></clipPath><clipPath id="daf64066c6"><rect x="0" width="3" y="0" height="6"/></clipPath><clipPath id="a44938346a"><path d="M 39.617188 24.214844 L 41.652344 24.214844 L 41.652344 29.378906 L 39.617188 29.378906 Z M 39.617188 24.214844 " clip-rule="nonzero"/></clipPath><clipPath id="adf47b7d3f"><path d="M 40.914062 24.980469 L 40.320312 24.980469 L 40.320312 26.382812 C 40.320312 26.535156 40.796875 26.527344 40.914062 26.511719 Z M 41.300781 24.296875 C 41.320312 24.300781 41.53125 24.511719 41.554688 24.554688 C 41.625 24.710938 41.640625 26.488281 41.597656 26.722656 C 41.550781 26.957031 41.304688 27.023438 41.277344 27.164062 C 41.222656 27.441406 41.675781 29.25 41.597656 29.328125 L 40.828125 29.328125 C 40.886719 29.058594 40.664062 27.175781 40.570312 27.113281 C 40.503906 27.0625 40.316406 27.195312 40.316406 27.238281 L 40.316406 29.03125 C 40.316406 29.070312 40.453125 29.207031 40.398438 29.328125 L 39.628906 29.328125 L 39.628906 24.296875 C 40.074219 24.375 40.90625 24.191406 41.289062 24.296875 " clip-rule="nonzero"/></clipPath><clipPath id="416f25cd2d"><path d="M 0.617188 0.214844 L 2.652344 0.214844 L 2.652344 5.367188 L 0.617188 5.367188 Z M 0.617188 0.214844 " clip-rule="nonzero"/></clipPath><clipPath id="db195c7fd8"><path d="M 1.914062 0.980469 L 1.320312 0.980469 L 1.320312 2.382812 C 1.320312 2.535156 1.796875 2.527344 1.914062 2.511719 Z M 2.300781 0.296875 C 2.320312 0.300781 2.53125 0.511719 2.554688 0.554688 C 2.625 0.710938 2.640625 2.488281 2.597656 2.722656 C 2.550781 2.957031 2.304688 3.023438 2.277344 3.164062 C 2.222656 3.441406 2.675781 5.25 2.597656 5.328125 L 1.828125 5.328125 C 1.886719 5.058594 1.664062 3.175781 1.570312 3.113281 C 1.503906 3.0625 1.316406 3.195312 1.316406 3.238281 L 1.316406 5.03125 C 1.316406 5.070312 1.453125 5.207031 1.398438 5.328125 L 0.628906 5.328125 L 0.628906 0.296875 C 1.074219 0.375 1.90625 0.191406 2.289062 0.296875 " clip-rule="nonzero"/></clipPath><clipPath id="4e1ab0f389"><rect x="0" width="3" y="0" height="6"/></clipPath><clipPath id="2a3e7764fc"><path d="M 42.121094 24.214844 L 44.3125 24.214844 L 44.3125 29.378906 L 42.121094 29.378906 Z M 42.121094 24.214844 " clip-rule="nonzero"/></clipPath><clipPath id="2a51b73e00"><path d="M 43.472656 24.980469 L 42.878906 24.980469 L 42.878906 26.382812 C 42.878906 26.535156 43.355469 26.527344 43.472656 26.511719 Z M 43.859375 24.296875 C 43.878906 24.300781 44.089844 24.511719 44.113281 24.554688 C 44.183594 24.710938 44.199219 26.488281 44.15625 26.722656 C 44.109375 26.957031 43.863281 27.023438 43.835938 27.164062 C 43.78125 27.441406 44.234375 29.25 44.15625 29.328125 L 43.386719 29.328125 C 43.445312 29.058594 43.222656 27.175781 43.128906 27.113281 C 43.0625 27.0625 42.875 27.195312 42.875 27.238281 L 42.875 29.03125 C 42.875 29.070312 43.011719 29.207031 42.957031 29.328125 L 42.1875 29.328125 L 42.1875 24.296875 C 42.632812 24.375 43.464844 24.191406 43.847656 24.296875 " clip-rule="nonzero"/></clipPath><clipPath id="cdafa48c56"><path d="M 0.121094 0.214844 L 2.3125 0.214844 L 2.3125 5.367188 L 0.121094 5.367188 Z M 0.121094 0.214844 " clip-rule="nonzero"/></clipPath><clipPath id="87bc750c5d"><path d="M 1.472656 0.980469 L 0.878906 0.980469 L 0.878906 2.382812 C 0.878906 2.535156 1.355469 2.527344 1.472656 2.511719 Z M 1.859375 0.296875 C 1.878906 0.300781 2.089844 0.511719 2.113281 0.554688 C 2.183594 0.710938 2.199219 2.488281 2.15625 2.722656 C 2.109375 2.957031 1.863281 3.023438 1.835938 3.164062 C 1.78125 3.441406 2.234375 5.25 2.15625 5.328125 L 1.386719 5.328125 C 1.445312 5.058594 1.222656 3.175781 1.128906 3.113281 C 1.0625 3.0625 0.875 3.195312 0.875 3.238281 L 0.875 5.03125 C 0.875 5.070312 1.011719 5.207031 0.957031 5.328125 L 0.1875 5.328125 L 0.1875 0.296875 C 0.632812 0.375 1.464844 0.191406 1.847656 0.296875 " clip-rule="nonzero"/></clipPath><clipPath id="799ac1ae2e"><rect x="0" width="3" y="0" height="6"/></clipPath><clipPath id="5e61e5d19d"><path d="M 45.410156 14.511719 L 51.199219 14.511719 L 51.199219 21.242188 L 45.410156 21.242188 Z M 45.410156 14.511719 " clip-rule="nonzero"/></clipPath><clipPath id="753b503b96"><path d="M 51.0625 21.140625 C 50.964844 21.148438 50.875 21.21875 50.777344 21.203125 C 50.449219 21.171875 49.84375 19.824219 49.613281 19.476562 C 48.972656 18.5 47.925781 17.277344 47.058594 16.492188 C 46.796875 16.261719 45.65625 15.496094 45.558594 15.34375 C 45.410156 15.113281 46.035156 14.527344 46.199219 14.613281 C 48.359375 16.367188 50.464844 18.285156 51.0625 21.140625 " clip-rule="nonzero"/></clipPath><clipPath id="8d7cedaacc"><path d="M 0.410156 0.511719 L 6.199219 0.511719 L 6.199219 7.242188 L 0.410156 7.242188 Z M 0.410156 0.511719 " clip-rule="nonzero"/></clipPath><clipPath id="e02779ac17"><path d="M 6.0625 7.140625 C 5.964844 7.148438 5.875 7.21875 5.777344 7.203125 C 5.449219 7.171875 4.84375 5.824219 4.613281 5.476562 C 3.972656 4.5 2.925781 3.277344 2.058594 2.492188 C 1.796875 2.261719 0.65625 1.496094 0.558594 1.34375 C 0.410156 1.113281 1.035156 0.527344 1.199219 0.613281 C 3.359375 2.367188 5.464844 4.285156 6.0625 7.140625 " clip-rule="nonzero"/></clipPath><clipPath id="0ef42bd899"><rect x="0" width="7" y="0" height="8"/></clipPath><clipPath id="ec7669a11e"><path d="M 34.296875 24.214844 L 36.332031 24.214844 L 36.332031 29.378906 L 34.296875 29.378906 Z M 34.296875 24.214844 " clip-rule="nonzero"/></clipPath><clipPath id="e647c8fc00"><path d="M 35.546875 27.457031 C 35.542969 27.445312 35.433594 27.492188 35.382812 27.390625 C 35.347656 27.324219 35.273438 26.796875 35.292969 26.773438 L 36.320312 26.773438 C 36.078125 27.34375 36.414062 28.683594 36.15625 29.121094 C 35.972656 29.433594 34.425781 29.519531 34.359375 28.941406 L 34.402344 24.554688 C 34.554688 24.191406 35.71875 24.230469 35.976562 24.339844 C 36.371094 24.511719 36.1875 25.207031 36.320312 25.574219 C 35.636719 25.558594 35.460938 25.785156 35.550781 24.980469 L 35.039062 24.980469 L 35.039062 28.644531 L 35.550781 28.644531 C 35.550781 28.457031 35.582031 27.5 35.550781 27.449219 " clip-rule="nonzero"/></clipPath><clipPath id="42a6051617"><path d="M 0.296875 0.214844 L 2.332031 0.214844 L 2.332031 5.378906 L 0.296875 5.378906 Z M 0.296875 0.214844 " clip-rule="nonzero"/></clipPath><clipPath id="011f683fe0"><path d="M 1.546875 3.457031 C 1.542969 3.445312 1.433594 3.492188 1.382812 3.390625 C 1.347656 3.324219 1.273438 2.796875 1.292969 2.773438 L 2.320312 2.773438 C 2.078125 3.34375 2.414062 4.683594 2.15625 5.121094 C 1.972656 5.433594 0.425781 5.519531 0.359375 4.941406 L 0.402344 0.554688 C 0.554688 0.191406 1.71875 0.230469 1.976562 0.339844 C 2.371094 0.511719 2.1875 1.207031 2.320312 1.574219 C 1.636719 1.558594 1.460938 1.785156 1.550781 0.980469 L 1.039062 0.980469 L 1.039062 4.644531 L 1.550781 4.644531 C 1.550781 4.457031 1.582031 3.5 1.550781 3.449219 " clip-rule="nonzero"/></clipPath><clipPath id="16de92234c"><rect x="0" width="3" y="0" height="6"/></clipPath><clipPath id="458404b6be"><path d="M 45.878906 24.214844 L 48.382812 24.214844 L 48.382812 29.378906 L 45.878906 29.378906 Z M 45.878906 24.214844 " clip-rule="nonzero"/></clipPath><clipPath id="fb51ec8edf"><path d="M 46.800781 24.296875 C 46.851562 24.351562 46.902344 25.550781 47.097656 25.75 C 47.28125 25.558594 47.34375 24.351562 47.394531 24.296875 C 47.433594 24.261719 48.101562 24.320312 48.246094 24.296875 C 48.078125 24.988281 47.558594 26.128906 47.558594 26.808594 C 47.558594 27.484375 48.09375 28.632812 48.246094 29.324219 C 48.101562 29.300781 47.425781 29.359375 47.394531 29.324219 C 47.34375 29.269531 47.28125 28.0625 47.097656 27.871094 C 46.863281 28.058594 46.851562 29.269531 46.800781 29.324219 C 46.769531 29.355469 46.089844 29.300781 45.949219 29.324219 C 45.851562 29.234375 46.632812 27.230469 46.632812 26.808594 C 46.632812 26.152344 46.074219 24.988281 45.949219 24.296875 C 46.089844 24.320312 46.773438 24.265625 46.800781 24.296875 " clip-rule="nonzero"/></clipPath><clipPath id="1013cf3a2f"><path d="M 0.878906 0.214844 L 3.382812 0.214844 L 3.382812 5.367188 L 0.878906 5.367188 Z M 0.878906 0.214844 " clip-rule="nonzero"/></clipPath><clipPath id="d187e5cf37"><path d="M 1.800781 0.296875 C 1.851562 0.351562 1.902344 1.550781 2.097656 1.75 C 2.28125 1.558594 2.34375 0.351562 2.394531 0.296875 C 2.433594 0.261719 3.101562 0.320312 3.246094 0.296875 C 3.078125 0.988281 2.558594 2.128906 2.558594 2.808594 C 2.558594 3.484375 3.09375 4.632812 3.246094 5.324219 C 3.101562 5.300781 2.425781 5.359375 2.394531 5.324219 C 2.34375 5.269531 2.28125 4.0625 2.097656 3.871094 C 1.863281 4.058594 1.851562 5.269531 1.800781 5.324219 C 1.769531 5.355469 1.089844 5.300781 0.949219 5.324219 C 0.851562 5.234375 1.632812 3.230469 1.632812 2.808594 C 1.632812 2.152344 1.074219 0.988281 0.949219 0.296875 C 1.089844 0.320312 1.773438 0.265625 1.800781 0.296875 " clip-rule="nonzero"/></clipPath><clipPath id="79c1ef6b4a"><rect x="0" width="4" y="0" height="6"/></clipPath><clipPath id="0e1376ee40"><path d="M 48.539062 24.214844 L 50.574219 24.214844 L 50.574219 29.378906 L 48.539062 29.378906 Z M 48.539062 24.214844 " clip-rule="nonzero"/></clipPath><clipPath id="e99cdf08c3"><path d="M 49.183594 25.023438 L 49.183594 28.609375 C 49.183594 28.789062 49.867188 28.789062 49.867188 28.609375 L 49.867188 25.023438 C 49.867188 24.875 49.25 24.816406 49.183594 25.023438 M 48.90625 24.320312 C 49.226562 24.230469 50.328125 24.195312 50.449219 24.617188 L 50.472656 28.871094 C 50.480469 29.5625 48.742188 29.484375 48.609375 29.015625 L 48.585938 24.765625 C 48.574219 24.585938 48.742188 24.367188 48.90625 24.316406 " clip-rule="nonzero"/></clipPath><clipPath id="f67d959892"><path d="M 0.539062 0.214844 L 2.566406 0.214844 L 2.566406 5.378906 L 0.539062 5.378906 Z M 0.539062 0.214844 " clip-rule="nonzero"/></clipPath><clipPath id="9b518f5ce0"><path d="M 1.183594 1.023438 L 1.183594 4.609375 C 1.183594 4.789062 1.867188 4.789062 1.867188 4.609375 L 1.867188 1.023438 C 1.867188 0.875 1.25 0.816406 1.183594 1.023438 M 0.90625 0.320312 C 1.226562 0.230469 2.328125 0.195312 2.449219 0.617188 L 2.472656 4.871094 C 2.480469 5.5625 0.742188 5.484375 0.609375 5.015625 L 0.585938 0.765625 C 0.574219 0.585938 0.742188 0.367188 0.90625 0.316406 " clip-rule="nonzero"/></clipPath><clipPath id="e108dc2409"><rect x="0" width="3" y="0" height="6"/></clipPath><clipPath id="6cd154c533"><path d="M 36.644531 24.214844 L 39.304688 24.214844 L 39.304688 29.378906 L 36.644531 29.378906 Z M 36.644531 24.214844 " clip-rule="nonzero"/></clipPath><clipPath id="69d23788f9"><path d="M 37.761719 27.457031 C 37.890625 27.464844 38.140625 27.488281 38.179688 27.324219 C 38.226562 27.113281 37.890625 26.328125 38.019531 26.007812 L 37.773438 27.003906 Z M 38.355469 24.300781 L 39.207031 29.332031 C 39.074219 29.308594 38.46875 29.363281 38.4375 29.332031 C 38.394531 29.285156 38.460938 28.261719 38.1875 28.097656 C 37.316406 27.582031 37.578125 29.257812 37.503906 29.332031 C 37.472656 29.363281 36.875 29.308594 36.734375 29.332031 L 37.570312 24.664062 L 37.503906 24.300781 Z M 38.355469 24.300781 " clip-rule="nonzero"/></clipPath><clipPath id="416fd90618"><path d="M 0.644531 0.214844 L 3.304688 0.214844 L 3.304688 5.367188 L 0.644531 5.367188 Z M 0.644531 0.214844 " clip-rule="nonzero"/></clipPath><clipPath id="9c35d7504e"><path d="M 1.761719 3.457031 C 1.890625 3.464844 2.140625 3.488281 2.179688 3.324219 C 2.226562 3.113281 1.890625 2.328125 2.019531 2.007812 L 1.773438 3.003906 Z M 2.355469 0.300781 L 3.207031 5.332031 C 3.074219 5.308594 2.46875 5.363281 2.4375 5.332031 C 2.394531 5.285156 2.460938 4.261719 2.1875 4.097656 C 1.316406 3.582031 1.578125 5.257812 1.503906 5.332031 C 1.472656 5.363281 0.875 5.308594 0.734375 5.332031 L 1.570312 0.664062 L 1.503906 0.300781 Z M 2.355469 0.300781 " clip-rule="nonzero"/></clipPath><clipPath id="72c0187eee"><rect x="0" width="4" y="0" height="6"/></clipPath><clipPath id="4ad112455d"><path d="M 44.625 24.214844 L 45.566406 24.214844 L 45.566406 29.378906 L 44.625 29.378906 Z M 44.625 24.214844 " clip-rule="nonzero"/></clipPath><clipPath id="f0c04e15e6"><path d="M 44.753906 24.296875 L 45.523438 24.34375 L 45.523438 29.328125 L 44.753906 29.328125 Z M 44.753906 24.296875 " clip-rule="nonzero"/></clipPath><clipPath id="1361934671"><path d="M 0.644531 0.214844 L 1.566406 0.214844 L 1.566406 5.367188 L 0.644531 5.367188 Z M 0.644531 0.214844 " clip-rule="nonzero"/></clipPath><clipPath id="67b17bd47a"><path d="M 0.753906 0.296875 L 1.523438 0.34375 L 1.523438 5.328125 L 0.753906 5.328125 Z M 0.753906 0.296875 " clip-rule="nonzero"/></clipPath><clipPath id="28ac010d90"><rect x="0" width="2" y="0" height="6"/></clipPath></defs><g clip-path="url(#2d0cf7d6c8)"><g clip-path="url(#3e58c595fd)"><g transform="matrix(1, 0, 0, 1, 26, -0.000000000000001443)"><g clip-path="url(#241804fd4e)"><g clip-path="url(#e72f369eb3)"><g clip-path="url(#f73b7b26ac)"><rect x="-45.8" width="129.6" fill="#939393" height="54" y="-8.25" fill-opacity="1"/></g></g></g></g></g></g><g clip-path="url(#286e0570c8)"><g clip-path="url(#e9d50cea9e)"><g transform="matrix(1, 0, 0, 1, 35, 7)"><g clip-path="url(#e9d3c7f23e)"><g clip-path="url(#58f1bded03)"><g clip-path="url(#7e91e562eb)"><rect x="-54.8" width="129.6" fill="#939393" height="54" y="-15.25" fill-opacity="1"/></g></g></g></g></g></g><g clip-path="url(#8ec63a3e67)"><g clip-path="url(#ceacfeb661)"><g transform="matrix(1, 0, 0, 1, 43, 6)"><g clip-path="url(#2e28a58db0)"><g clip-path="url(#84c0403bef)"><g clip-path="url(#ccb10f020e)"><rect x="-62.8" width="129.6" fill="#939393" height="54" y="-14.25" fill-opacity="1"/></g></g></g></g></g></g><g clip-path="url(#310490b3cc)"><g clip-path="url(#f068c37783)"><g transform="matrix(1, 0, 0, 1, 37, 16)"><g clip-path="url(#3894bf43f8)"><g clip-path="url(#a76ea01e2e)"><g clip-path="url(#7e2f5a34d6)"><rect x="-56.8" width="129.6" fill="#939393" height="54" y="-24.25" fill-opacity="1"/></g></g></g></g></g></g><g clip-path="url(#7eb72dcd6a)"><g clip-path="url(#4933bb402c)"><g transform="matrix(1, 0, 0, 1, 51, 24)"><g clip-path="url(#daf64066c6)"><g clip-path="url(#55bdc4460d)"><g clip-path="url(#1ec28b92a6)"><rect x="-70.8" width="129.6" fill="#939393" height="54" y="-32.25" fill-opacity="1"/></g></g></g></g></g></g><g clip-path="url(#a44938346a)"><g clip-path="url(#adf47b7d3f)"><g transform="matrix(1, 0, 0, 1, 39, 24)"><g clip-path="url(#4e1ab0f389)"><g clip-path="url(#416f25cd2d)"><g clip-path="url(#db195c7fd8)"><rect x="-58.8" width="129.6" fill="#939393" height="54" y="-32.25" fill-opacity="1"/></g></g></g></g></g></g><g clip-path="url(#2a3e7764fc)"><g clip-path="url(#2a51b73e00)"><g transform="matrix(1, 0, 0, 1, 42, 24)"><g clip-path="url(#799ac1ae2e)"><g clip-path="url(#cdafa48c56)"><g clip-path="url(#87bc750c5d)"><rect x="-61.8" width="129.6" fill="#939393" height="54" y="-32.25" fill-opacity="1"/></g></g></g></g></g></g><g clip-path="url(#5e61e5d19d)"><g clip-path="url(#753b503b96)"><g transform="matrix(1, 0, 0, 1, 45, 14)"><g clip-path="url(#0ef42bd899)"><g clip-path="url(#8d7cedaacc)"><g clip-path="url(#e02779ac17)"><rect x="-64.8" width="129.6" fill="#939393" height="54" y="-22.25" fill-opacity="1"/></g></g></g></g></g></g><g clip-path="url(#ec7669a11e)"><g clip-path="url(#e647c8fc00)"><g transform="matrix(1, 0, 0, 1, 34, 24)"><g clip-path="url(#16de92234c)"><g clip-path="url(#42a6051617)"><g clip-path="url(#011f683fe0)"><rect x="-53.8" width="129.6" fill="#939393" height="54" y="-32.25" fill-opacity="1"/></g></g></g></g></g></g><g clip-path="url(#458404b6be)"><g clip-path="url(#fb51ec8edf)"><g transform="matrix(1, 0, 0, 1, 45, 24)"><g clip-path="url(#79c1ef6b4a)"><g clip-path="url(#1013cf3a2f)"><g clip-path="url(#d187e5cf37)"><rect x="-64.8" width="129.6" fill="#939393" height="54" y="-32.25" fill-opacity="1"/></g></g></g></g></g></g><g clip-path="url(#0e1376ee40)"><g clip-path="url(#e99cdf08c3)"><g transform="matrix(1, 0, 0, 1, 48, 24)"><g clip-path="url(#e108dc2409)"><g clip-path="url(#f67d959892)"><g clip-path="url(#9b518f5ce0)"><rect x="-67.8" width="129.6" fill="#939393" height="54" y="-32.25" fill-opacity="1"/></g></g></g></g></g></g><g clip-path="url(#6cd154c533)"><g clip-path="url(#69d23788f9)"><g transform="matrix(1, 0, 0, 1, 36, 24)"><g clip-path="url(#72c0187eee)"><g clip-path="url(#416fd90618)"><g clip-path="url(#9c35d7504e)"><rect x="-55.8" width="129.6" fill="#939393" height="54" y="-32.25" fill-opacity="1"/></g></g></g></g></g></g><g clip-path="url(#4ad112455d)"><g clip-path="url(#f0c04e15e6)"><g transform="matrix(1, 0, 0, 1, 44, 24)"><g clip-path="url(#28ac010d90)"><g clip-path="url(#1361934671)"><g clip-path="url(#67b17bd47a)"><rect x="-63.8" width="129.6" fill="#939393" height="54" y="-32.25" fill-opacity="1"/></g></g></g></g></g></g></svg>