<svg xmlns="http://www.w3.org/2000/svg" xmlns:xlink="http://www.w3.org/1999/xlink" width="120" zoomAndPan="magnify" viewBox="0 0 90 37.5" height="50" preserveAspectRatio="xMidYMid meet" version="1.0"><defs><clipPath id="e28b3eccf5"><path d="M 4.292969 3.691406 L 87.46875 3.691406 L 87.46875 33.421875 L 4.292969 33.421875 Z M 4.292969 3.691406 " clip-rule="nonzero"/></clipPath><clipPath id="42bb277d6d"><path d="M 13.460938 33.296875 C 10.984375 33.199219 8.960938 32.523438 7.375 31.257812 C 7.070312 31.023438 6.347656 30.296875 6.113281 29.996094 C 5.46875 29.191406 5.03125 28.402344 4.742188 27.535156 C 3.84375 24.847656 4.304688 21.324219 6.058594 17.457031 C 7.558594 14.144531 9.878906 10.863281 13.921875 6.316406 C 14.519531 5.644531 16.292969 3.691406 16.304688 3.691406 C 16.3125 3.691406 16.210938 3.859375 16.089844 4.066406 C 15.035156 5.828125 14.132812 7.898438 13.644531 9.699219 C 12.859375 12.582031 12.953125 15.050781 13.921875 16.964844 C 14.59375 18.289062 15.742188 19.429688 17.03125 20.0625 C 19.292969 21.167969 22.597656 21.261719 26.636719 20.324219 C 26.914062 20.265625 40.699219 16.605469 57.257812 12.195312 C 73.816406 7.785156 87.382812 4.195312 87.382812 4.195312 C 87.382812 4.195312 48.902344 20.671875 28.921875 29.214844 C 25.757812 30.566406 24.910156 30.914062 23.425781 31.4375 C 19.625 32.773438 16.21875 33.410156 13.460938 33.296875 " clip-rule="nonzero"/></clipPath><clipPath id="d7cba0b75b"><path d="M 0.292969 0.691406 L 83.46875 0.691406 L 83.46875 30.394531 L 0.292969 30.394531 Z M 0.292969 0.691406 " clip-rule="nonzero"/></clipPath><clipPath id="1f5a1b2854"><path d="M 9.460938 30.296875 C 6.984375 30.199219 4.960938 29.523438 3.375 28.257812 C 3.070312 28.023438 2.347656 27.296875 2.113281 26.996094 C 1.46875 26.191406 1.03125 25.402344 0.742188 24.535156 C -0.15625 21.847656 0.304688 18.324219 2.058594 14.457031 C 3.558594 11.144531 5.878906 7.863281 9.921875 3.316406 C 10.519531 2.644531 12.292969 0.691406 12.304688 0.691406 C 12.3125 0.691406 12.210938 0.859375 12.089844 1.066406 C 11.035156 2.828125 10.132812 4.898438 9.644531 6.699219 C 8.859375 9.582031 8.953125 12.050781 9.921875 13.964844 C 10.59375 15.289062 11.742188 16.429688 13.03125 17.0625 C 15.292969 18.167969 18.597656 18.261719 22.636719 17.324219 C 22.914062 17.265625 36.699219 13.605469 53.257812 9.195312 C 69.816406 4.785156 83.382812 1.195312 83.382812 1.195312 C 83.382812 1.195312 44.902344 17.671875 24.921875 26.214844 C 21.757812 27.566406 20.910156 27.914062 19.425781 28.4375 C 15.625 29.773438 12.21875 30.410156 9.460938 30.296875 " clip-rule="nonzero"/></clipPath><clipPath id="3720e028fe"><rect x="0" width="84" y="0" height="31"/></clipPath></defs><g clip-path="url(#e28b3eccf5)"><g clip-path="url(#42bb277d6d)"><g transform="matrix(1, 0, 0, 1, 4, 3)"><g clip-path="url(#3720e028fe)"><g clip-path="url(#d7cba0b75b)"><g clip-path="url(#1f5a1b2854)"><path fill="#939393" d="M 0.292969 0.691406 L 83.351562 0.691406 L 83.351562 30.304688 L 0.292969 30.304688 Z M 0.292969 0.691406 " fill-opacity="1" fill-rule="nonzero"/></g></g></g></g></g></g></svg>