<svg xmlns="http://www.w3.org/2000/svg" xmlns:xlink="http://www.w3.org/1999/xlink" width="120" zoomAndPan="magnify" viewBox="0 0 90 37.5" height="50" preserveAspectRatio="xMidYMid meet" version="1.0"><defs><clipPath id="dad1b43b9d"><path d="M 7.070312 9.542969 L 82.988281 9.542969 L 82.988281 30.351562 L 7.070312 30.351562 Z M 7.070312 9.542969 " clip-rule="nonzero"/></clipPath><clipPath id="289da946b7"><path d="M 7.070312 9.542969 L 7.070312 12.734375 L 12.402344 12.734375 L 12.402344 25.511719 L 16.054688 25.511719 L 16.054688 12.734375 L 21.394531 12.734375 L 21.394531 9.542969 Z M 28.464844 19.144531 C 28.464844 20.871094 27.636719 22.710938 25.835938 22.710938 C 24.230469 22.710938 23.234375 21.359375 23.226562 19.144531 C 23.226562 16.910156 24.230469 15.542969 25.835938 15.542969 C 27.457031 15.542969 28.464844 16.910156 28.464844 19.144531 M 30.226562 14.378906 C 29.101562 13.148438 27.535156 12.472656 25.828125 12.472656 C 24.128906 12.472656 22.570312 13.148438 21.453125 14.378906 C 20.335938 15.613281 19.714844 17.296875 19.714844 19.144531 C 19.714844 21.011719 20.324219 22.710938 21.425781 23.914062 C 22.53125 25.117188 24.097656 25.789062 25.824219 25.789062 C 27.527344 25.789062 29.085938 25.113281 30.21875 23.886719 C 31.347656 22.664062 31.964844 20.976562 31.964844 19.136719 C 31.964844 17.289062 31.34375 15.597656 30.21875 14.375 M 64.421875 17.734375 L 64.425781 17.660156 C 64.589844 16.121094 65.453125 15.222656 66.742188 15.222656 C 68.207031 15.222656 69.117188 16.101562 69.265625 17.660156 L 69.273438 17.734375 L 69.277344 17.824219 L 64.421875 17.824219 Z M 67.023438 12.46875 C 63.445312 12.472656 60.847656 15.277344 60.839844 19.136719 C 60.847656 23.164062 63.410156 25.773438 67.363281 25.78125 C 69.238281 25.78125 71.078125 25.058594 72.175781 23.882812 L 72.242188 23.8125 L 72.277344 23.78125 L 72.160156 23.695312 L 69.792969 21.875 L 69.734375 21.828125 L 69.707031 21.808594 L 69.625 21.878906 C 69.070312 22.375 68.261719 22.648438 67.359375 22.648438 C 66.066406 22.644531 64.640625 22.035156 64.46875 20.289062 L 64.460938 20.195312 L 72.816406 20.195312 L 72.824219 20.074219 L 72.871094 19.136719 C 72.863281 15.214844 70.46875 12.480469 67.035156 12.472656 M 82.785156 12.699219 C 82.238281 12.59375 81.507812 12.472656 80.671875 12.472656 C 76.832031 12.472656 75 13.933594 74.671875 14.234375 L 74.644531 14.261719 L 74.628906 14.273438 L 74.628906 25.519531 L 78.230469 25.519531 L 78.230469 15.964844 L 78.269531 15.9375 C 78.277344 15.933594 79.09375 15.4375 80.417969 15.4375 C 80.867188 15.4375 81.335938 15.464844 81.78125 15.632812 L 81.863281 15.664062 L 81.902344 15.679688 L 81.949219 15.550781 L 82.878906 12.863281 L 82.914062 12.769531 L 82.933594 12.722656 Z M 37.382812 15.914062 C 37.777344 15.652344 38.140625 15.492188 38.496094 15.429688 C 38.660156 15.402344 38.828125 15.382812 38.988281 15.382812 C 39.820312 15.382812 40.59375 15.777344 41.183594 16.507812 C 41.734375 17.195312 42.054688 18.105469 42.054688 19.011719 C 42.046875 20.984375 40.449219 22.582031 38.476562 22.589844 C 38.105469 22.589844 37.746094 22.53125 37.390625 22.414062 Z M 45.566406 17.953125 C 45.152344 15.335938 43.21875 13.238281 40.648438 12.609375 C 40.132812 12.480469 39.605469 12.421875 39.078125 12.421875 C 38.125 12.421875 37.429688 12.632812 36.402344 12.988281 C 35.277344 13.375 34.679688 13.644531 33.75 14.1875 L 33.710938 14.214844 L 33.691406 14.226562 L 33.691406 30.351562 L 37.289062 30.351562 L 37.289062 25.328125 C 37.707031 25.441406 38.125 25.519531 38.5625 25.546875 C 38.75 25.558594 38.917969 25.566406 39.070312 25.566406 C 42.617188 25.566406 45.566406 22.683594 45.640625 19.136719 L 45.640625 19.089844 C 45.640625 19.058594 45.640625 19.023438 45.640625 18.996094 C 45.640625 18.648438 45.613281 18.300781 45.558594 17.960938 M 51.09375 15.914062 C 51.488281 15.652344 51.847656 15.492188 52.195312 15.429688 C 52.363281 15.402344 52.53125 15.382812 52.691406 15.382812 C 54.519531 15.390625 55.75 17.257812 55.757812 19.011719 C 55.757812 20.984375 54.152344 22.582031 52.175781 22.589844 C 51.816406 22.589844 51.449219 22.53125 51.09375 22.414062 Z M 59.277344 17.953125 C 58.859375 15.335938 56.925781 13.238281 54.359375 12.609375 C 53.84375 12.480469 53.3125 12.421875 52.785156 12.414062 C 51.84375 12.414062 51.140625 12.628906 50.109375 12.980469 C 48.992188 13.363281 48.390625 13.636719 47.460938 14.179688 L 47.421875 14.207031 L 47.398438 14.21875 L 47.398438 30.351562 L 51 30.351562 L 51 25.328125 C 51.414062 25.441406 51.835938 25.511719 52.269531 25.546875 C 52.457031 25.558594 52.625 25.566406 52.777344 25.566406 C 56.324219 25.566406 59.277344 22.683594 59.347656 19.136719 L 59.347656 19.089844 C 59.347656 19.058594 59.347656 19.03125 59.347656 18.996094 C 59.347656 18.648438 59.324219 18.300781 59.269531 17.960938 " clip-rule="nonzero"/></clipPath><clipPath id="025bbe6b83"><path d="M 0.0703125 0.542969 L 75.988281 0.542969 L 75.988281 21.351562 L 0.0703125 21.351562 Z M 0.0703125 0.542969 " clip-rule="nonzero"/></clipPath><clipPath id="d47e3c6f3c"><path d="M 0.0703125 0.542969 L 0.0703125 3.734375 L 5.402344 3.734375 L 5.402344 16.511719 L 9.054688 16.511719 L 9.054688 3.734375 L 14.394531 3.734375 L 14.394531 0.542969 Z M 21.464844 10.144531 C 21.464844 11.871094 20.636719 13.710938 18.835938 13.710938 C 17.230469 13.710938 16.234375 12.359375 16.226562 10.144531 C 16.226562 7.910156 17.230469 6.542969 18.835938 6.542969 C 20.457031 6.542969 21.464844 7.910156 21.464844 10.144531 M 23.226562 5.378906 C 22.101562 4.148438 20.535156 3.472656 18.828125 3.472656 C 17.128906 3.472656 15.570312 4.148438 14.453125 5.378906 C 13.335938 6.613281 12.714844 8.296875 12.714844 10.144531 C 12.714844 12.011719 13.324219 13.710938 14.425781 14.914062 C 15.53125 16.117188 17.097656 16.789062 18.824219 16.789062 C 20.527344 16.789062 22.085938 16.113281 23.21875 14.886719 C 24.347656 13.664062 24.964844 11.976562 24.964844 10.136719 C 24.964844 8.289062 24.34375 6.597656 23.21875 5.375 M 57.421875 8.734375 L 57.425781 8.660156 C 57.589844 7.121094 58.453125 6.222656 59.742188 6.222656 C 61.207031 6.222656 62.117188 7.101562 62.265625 8.660156 L 62.273438 8.734375 L 62.277344 8.824219 L 57.421875 8.824219 Z M 60.023438 3.46875 C 56.445312 3.472656 53.847656 6.277344 53.839844 10.136719 C 53.847656 14.164062 56.410156 16.773438 60.363281 16.78125 C 62.238281 16.78125 64.078125 16.058594 65.175781 14.882812 L 65.242188 14.8125 L 65.277344 14.78125 L 65.160156 14.695312 L 62.792969 12.875 L 62.734375 12.828125 L 62.707031 12.808594 L 62.625 12.878906 C 62.070312 13.375 61.261719 13.648438 60.359375 13.648438 C 59.066406 13.644531 57.640625 13.035156 57.46875 11.289062 L 57.460938 11.195312 L 65.816406 11.195312 L 65.824219 11.074219 L 65.871094 10.136719 C 65.863281 6.214844 63.46875 3.480469 60.035156 3.472656 M 75.785156 3.699219 C 75.238281 3.59375 74.507812 3.472656 73.671875 3.472656 C 69.832031 3.472656 68 4.933594 67.671875 5.234375 L 67.644531 5.261719 L 67.628906 5.273438 L 67.628906 16.519531 L 71.230469 16.519531 L 71.230469 6.964844 L 71.269531 6.9375 C 71.277344 6.933594 72.09375 6.4375 73.417969 6.4375 C 73.867188 6.4375 74.335938 6.464844 74.78125 6.632812 L 74.863281 6.664062 L 74.902344 6.679688 L 74.949219 6.550781 L 75.878906 3.863281 L 75.914062 3.769531 L 75.933594 3.722656 Z M 30.382812 6.914062 C 30.777344 6.652344 31.140625 6.492188 31.496094 6.429688 C 31.660156 6.402344 31.828125 6.382812 31.988281 6.382812 C 32.820312 6.382812 33.59375 6.777344 34.183594 7.507812 C 34.734375 8.195312 35.054688 9.105469 35.054688 10.011719 C 35.046875 11.984375 33.449219 13.582031 31.476562 13.589844 C 31.105469 13.589844 30.746094 13.53125 30.390625 13.414062 Z M 38.566406 8.953125 C 38.152344 6.335938 36.21875 4.238281 33.648438 3.609375 C 33.132812 3.480469 32.605469 3.421875 32.078125 3.421875 C 31.125 3.421875 30.429688 3.632812 29.402344 3.988281 C 28.277344 4.375 27.679688 4.644531 26.75 5.1875 L 26.710938 5.214844 L 26.691406 5.226562 L 26.691406 21.351562 L 30.289062 21.351562 L 30.289062 16.328125 C 30.707031 16.441406 31.125 16.519531 31.5625 16.546875 C 31.75 16.558594 31.917969 16.566406 32.070312 16.566406 C 35.617188 16.566406 38.566406 13.683594 38.640625 10.136719 L 38.640625 10.089844 C 38.640625 10.058594 38.640625 10.023438 38.640625 9.996094 C 38.640625 9.648438 38.613281 9.300781 38.558594 8.960938 M 44.09375 6.914062 C 44.488281 6.652344 44.847656 6.492188 45.195312 6.429688 C 45.363281 6.402344 45.53125 6.382812 45.691406 6.382812 C 47.519531 6.390625 48.75 8.257812 48.757812 10.011719 C 48.757812 11.984375 47.152344 13.582031 45.175781 13.589844 C 44.816406 13.589844 44.449219 13.53125 44.09375 13.414062 Z M 52.277344 8.953125 C 51.859375 6.335938 49.925781 4.238281 47.359375 3.609375 C 46.84375 3.480469 46.3125 3.421875 45.785156 3.414062 C 44.84375 3.414062 44.140625 3.628906 43.109375 3.980469 C 41.992188 4.363281 41.390625 4.636719 40.460938 5.179688 L 40.421875 5.207031 L 40.398438 5.21875 L 40.398438 21.351562 L 44 21.351562 L 44 16.328125 C 44.414062 16.441406 44.835938 16.511719 45.269531 16.546875 C 45.457031 16.558594 45.625 16.566406 45.777344 16.566406 C 49.324219 16.566406 52.277344 13.683594 52.347656 10.136719 L 52.347656 10.089844 C 52.347656 10.058594 52.347656 10.03125 52.347656 9.996094 C 52.347656 9.648438 52.324219 9.300781 52.269531 8.960938 " clip-rule="nonzero"/></clipPath><clipPath id="b392dc5a30"><rect x="0" width="76" y="0" height="22"/></clipPath></defs><g clip-path="url(#dad1b43b9d)"><g clip-path="url(#289da946b7)"><g transform="matrix(1, 0, 0, 1, 7, 9)"><g clip-path="url(#b392dc5a30)"><g clip-path="url(#025bbe6b83)"><g clip-path="url(#d47e3c6f3c)"><path fill="#939393" d="M 0.0703125 0.542969 L 75.90625 0.542969 L 75.90625 21.351562 L 0.0703125 21.351562 Z M 0.0703125 0.542969 " fill-opacity="1" fill-rule="nonzero"/></g></g></g></g></g></g></svg>