<svg xmlns="http://www.w3.org/2000/svg" xmlns:xlink="http://www.w3.org/1999/xlink" width="120" zoomAndPan="magnify" viewBox="0 0 90 37.5" height="50" preserveAspectRatio="xMidYMid meet" version="1.0"><defs><clipPath id="95c72f28b4"><path d="M 75 16.183594 L 80.214844 16.183594 L 80.214844 21.765625 L 75 21.765625 Z M 75 16.183594 " clip-rule="nonzero"/></clipPath><clipPath id="59d83b88f9"><path d="M 78.191406 18.320312 L 78.191406 16.210938 L 76.992188 17.914062 L 75.007812 17.265625 L 76.253906 18.96875 L 75.023438 20.671875 L 76.992188 20.023438 L 78.191406 21.726562 L 78.191406 19.617188 L 80.199219 18.972656 Z M 78.191406 18.320312 " clip-rule="nonzero"/></clipPath><clipPath id="aa6e26f84d"><path d="M 0 0.183594 L 5.214844 0.183594 L 5.214844 5.765625 L 0 5.765625 Z M 0 0.183594 " clip-rule="nonzero"/></clipPath><clipPath id="579c721552"><path d="M 3.191406 2.320312 L 3.191406 0.210938 L 1.992188 1.914062 L 0.0078125 1.265625 L 1.253906 2.96875 L 0.0234375 4.671875 L 1.992188 4.023438 L 3.191406 5.726562 L 3.191406 3.617188 L 5.199219 2.972656 Z M 3.191406 2.320312 " clip-rule="nonzero"/></clipPath><clipPath id="2745b210ad"><rect x="0" width="6" y="0" height="6"/></clipPath><clipPath id="6121cdefc7"><path d="M 78.273438 14.121094 L 86.527344 14.121094 L 86.527344 23.828125 L 78.273438 23.828125 Z M 78.273438 14.121094 " clip-rule="nonzero"/></clipPath><clipPath id="4a37926d21"><path d="M 82.070312 14.132812 L 78.289062 14.132812 L 82.699219 18.972656 L 78.289062 23.816406 L 82.070312 23.816406 L 86.480469 18.972656 Z M 82.070312 14.132812 " clip-rule="nonzero"/></clipPath><clipPath id="0f6fa60549"><path d="M 0.277344 0.121094 L 8.527344 0.121094 L 8.527344 9.828125 L 0.277344 9.828125 Z M 0.277344 0.121094 " clip-rule="nonzero"/></clipPath><clipPath id="df15170ebe"><path d="M 4.070312 0.132812 L 0.289062 0.132812 L 4.699219 4.972656 L 0.289062 9.816406 L 4.070312 9.816406 L 8.480469 4.972656 Z M 4.070312 0.132812 " clip-rule="nonzero"/></clipPath><clipPath id="088fe91f94"><rect x="0" width="9" y="0" height="10"/></clipPath><clipPath id="226e2c2876"><path d="M 3.503906 14.789062 L 11.394531 14.789062 L 11.394531 23.101562 L 3.503906 23.101562 Z M 3.503906 14.789062 " clip-rule="nonzero"/></clipPath><clipPath id="5eb107c563"><path d="M 7.804688 16.960938 C 8.394531 16.960938 8.984375 17.253906 9.382812 17.738281 L 9.53125 17.914062 L 11.375 16.648438 L 11.210938 16.445312 C 10.398438 15.425781 9.15625 14.839844 7.808594 14.839844 C 5.4375 14.839844 3.519531 16.679688 3.519531 18.9375 C 3.519531 21.199219 5.4375 23.042969 7.804688 23.042969 C 9.136719 23.042969 10.375 22.46875 11.1875 21.460938 L 11.355469 21.257812 L 9.511719 19.988281 L 9.371094 20.164062 C 8.96875 20.640625 8.402344 20.921875 7.804688 20.921875 C 6.707031 20.921875 5.785156 20.015625 5.785156 18.945312 C 5.785156 17.875 6.707031 16.964844 7.804688 16.964844 " clip-rule="nonzero"/></clipPath><clipPath id="207d6f0b2c"><path d="M 0.503906 0.789062 L 8.394531 0.789062 L 8.394531 9.101562 L 0.503906 9.101562 Z M 0.503906 0.789062 " clip-rule="nonzero"/></clipPath><clipPath id="10894b2876"><path d="M 4.804688 2.960938 C 5.394531 2.960938 5.984375 3.253906 6.382812 3.738281 L 6.53125 3.914062 L 8.375 2.648438 L 8.210938 2.445312 C 7.398438 1.425781 6.15625 0.839844 4.808594 0.839844 C 2.4375 0.839844 0.519531 2.679688 0.519531 4.9375 C 0.519531 7.199219 2.4375 9.042969 4.804688 9.042969 C 6.136719 9.042969 7.375 8.46875 8.1875 7.460938 L 8.355469 7.257812 L 6.511719 5.988281 L 6.371094 6.164062 C 5.96875 6.640625 5.402344 6.921875 4.804688 6.921875 C 3.707031 6.921875 2.785156 6.015625 2.785156 4.945312 C 2.785156 3.875 3.707031 2.964844 4.804688 2.964844 " clip-rule="nonzero"/></clipPath><clipPath id="29b570eec9"><rect x="0" width="9" y="0" height="10"/></clipPath><clipPath id="f0583d3a9c"><path d="M 22.136719 15.03125 L 29.722656 15.03125 L 29.722656 22.796875 L 22.136719 22.796875 Z M 22.136719 15.03125 " clip-rule="nonzero"/></clipPath><clipPath id="c00bfda68e"><path d="M 27.617188 19.425781 L 24.269531 15.058594 L 22.15625 15.058594 L 22.15625 22.785156 L 24.214844 22.785156 L 24.214844 18.460938 L 27.320312 22.785156 L 29.679688 22.785156 L 29.679688 15.058594 L 27.617188 15.058594 Z M 27.617188 19.425781 " clip-rule="nonzero"/></clipPath><clipPath id="cb92266211"><path d="M 0.144531 0.03125 L 7.722656 0.03125 L 7.722656 7.796875 L 0.144531 7.796875 Z M 0.144531 0.03125 " clip-rule="nonzero"/></clipPath><clipPath id="e310145941"><path d="M 5.617188 4.425781 L 2.269531 0.0585938 L 0.15625 0.0585938 L 0.15625 7.785156 L 2.214844 7.785156 L 2.214844 3.460938 L 5.320312 7.785156 L 7.679688 7.785156 L 7.679688 0.0585938 L 5.617188 0.0585938 Z M 5.617188 4.425781 " clip-rule="nonzero"/></clipPath><clipPath id="27da6f7d99"><rect x="0" width="8" y="0" height="8"/></clipPath><clipPath id="64cedc6885"><path d="M 31.179688 15.03125 L 39.675781 15.03125 L 39.675781 22.796875 L 31.179688 22.796875 Z M 31.179688 15.03125 " clip-rule="nonzero"/></clipPath><clipPath id="b19d0afbaa"><path d="M 35.546875 20.558594 L 35.546875 20.546875 C 35.546875 20.625 35.460938 20.628906 35.425781 20.628906 C 35.390625 20.628906 35.328125 20.625 35.304688 20.546875 L 33.585938 15.058594 L 31.222656 15.058594 L 33.738281 22.785156 L 37.113281 22.785156 L 39.628906 15.058594 L 37.265625 15.058594 Z M 35.546875 20.558594 " clip-rule="nonzero"/></clipPath><clipPath id="03f614b357"><path d="M 0.179688 0.03125 L 8.671875 0.03125 L 8.671875 7.796875 L 0.179688 7.796875 Z M 0.179688 0.03125 " clip-rule="nonzero"/></clipPath><clipPath id="39cffcc1d5"><path d="M 4.546875 5.558594 L 4.546875 5.546875 C 4.546875 5.625 4.460938 5.628906 4.425781 5.628906 C 4.390625 5.628906 4.328125 5.625 4.304688 5.546875 L 2.585938 0.0585938 L 0.222656 0.0585938 L 2.738281 7.785156 L 6.113281 7.785156 L 8.628906 0.0585938 L 6.265625 0.0585938 Z M 4.546875 5.558594 " clip-rule="nonzero"/></clipPath><clipPath id="e7354b3b04"><rect x="0" width="9" y="0" height="8"/></clipPath><clipPath id="17f5b732f2"><path d="M 49.445312 15.03125 L 56.363281 15.03125 L 56.363281 22.796875 L 49.445312 22.796875 Z M 49.445312 15.03125 " clip-rule="nonzero"/></clipPath><clipPath id="b9a4785af7"><path d="M 53.332031 17.945312 L 51.511719 17.945312 L 51.511719 17.117188 L 53.332031 17.117188 C 53.582031 17.117188 53.789062 17.28125 53.789062 17.527344 C 53.789062 17.773438 53.582031 17.9375 53.332031 17.9375 M 54.722656 19.625 C 55.542969 19.144531 56.019531 18.285156 55.949219 17.335938 C 55.855469 16.054688 54.730469 15.050781 53.394531 15.050781 L 49.449219 15.050781 L 49.449219 22.777344 L 51.511719 22.777344 L 51.511719 20.003906 L 52.441406 20.003906 C 52.535156 20.003906 52.625 20.023438 52.675781 20.09375 L 54.003906 22.785156 L 56.328125 22.785156 Z M 54.722656 19.625 " clip-rule="nonzero"/></clipPath><clipPath id="96e7c7e638"><path d="M 0.445312 0.03125 L 7.363281 0.03125 L 7.363281 7.796875 L 0.445312 7.796875 Z M 0.445312 0.03125 " clip-rule="nonzero"/></clipPath><clipPath id="347408748b"><path d="M 4.332031 2.945312 L 2.511719 2.945312 L 2.511719 2.117188 L 4.332031 2.117188 C 4.582031 2.117188 4.789062 2.28125 4.789062 2.527344 C 4.789062 2.773438 4.582031 2.9375 4.332031 2.9375 M 5.722656 4.625 C 6.542969 4.144531 7.019531 3.285156 6.949219 2.335938 C 6.855469 1.054688 5.730469 0.0507812 4.394531 0.0507812 L 0.449219 0.0507812 L 0.449219 7.777344 L 2.511719 7.777344 L 2.511719 5.003906 L 3.441406 5.003906 C 3.535156 5.003906 3.625 5.023438 3.675781 5.09375 L 5.003906 7.785156 L 7.328125 7.785156 Z M 5.722656 4.625 " clip-rule="nonzero"/></clipPath><clipPath id="ba99f1657c"><rect x="0" width="8" y="0" height="8"/></clipPath><clipPath id="a35fc84efb"><path d="M 66.140625 15.058594 L 72.320312 15.058594 L 72.320312 17.117188 L 66.140625 17.117188 Z M 66.140625 17.117188 L 68.199219 17.117188 L 68.199219 17.945312 L 66.140625 17.945312 Z M 66.140625 17.945312 L 71.90625 17.945312 L 71.90625 19.800781 L 66.140625 19.800781 Z M 66.140625 19.800781 L 68.199219 19.800781 L 68.199219 20.722656 L 66.140625 20.722656 Z M 66.140625 20.722656 L 72.320312 20.722656 L 72.320312 22.785156 L 66.140625 22.785156 Z M 66.140625 20.722656 " clip-rule="nonzero"/></clipPath><clipPath id="d9e050ca25"><path d="M 0.140625 0.0585938 L 6.320312 0.0585938 L 6.320312 2.117188 L 0.140625 2.117188 Z M 0.140625 2.117188 L 2.199219 2.117188 L 2.199219 2.945312 L 0.140625 2.945312 Z M 0.140625 2.945312 L 5.90625 2.945312 L 5.90625 4.800781 L 0.140625 4.800781 Z M 0.140625 4.800781 L 2.199219 4.800781 L 2.199219 5.722656 L 0.140625 5.722656 Z M 0.140625 5.722656 L 6.320312 5.722656 L 6.320312 7.785156 L 0.140625 7.785156 Z M 0.140625 5.722656 " clip-rule="nonzero"/></clipPath><clipPath id="625c9bf8af"><rect x="0" width="7" y="0" height="8"/></clipPath><clipPath id="d92e4c64e5"><path d="M 57.335938 14.789062 L 64.496094 14.789062 L 64.496094 23.101562 L 57.335938 23.101562 Z M 57.335938 14.789062 " clip-rule="nonzero"/></clipPath><clipPath id="01c7096f1b"><path d="M 61.480469 17.972656 C 60.375 17.722656 60.0625 17.5625 60.0625 17.199219 L 60.0625 17.175781 C 60.0625 16.890625 60.28125 16.660156 60.816406 16.660156 C 61.527344 16.660156 62.101562 16.890625 62.882812 17.347656 L 64.121094 15.890625 C 63.253906 15.191406 62.21875 14.828125 60.859375 14.828125 C 58.945312 14.828125 57.796875 15.902344 57.796875 17.382812 L 57.796875 17.40625 C 57.796875 19.042969 59.144531 19.523438 60.839844 19.910156 C 61.925781 20.164062 62.222656 20.34375 62.222656 20.671875 L 62.222656 20.695312 C 62.222656 21.035156 61.835938 21.238281 61.246094 21.238281 C 60.328125 21.238281 59.414062 20.90625 58.628906 20.285156 L 57.382812 21.753906 C 58.359375 22.632812 59.78125 23.078125 61.191406 23.078125 C 63.128906 23.078125 64.488281 22.113281 64.488281 20.484375 L 64.488281 20.453125 C 64.488281 18.960938 63.3125 18.371094 61.472656 17.972656 " clip-rule="nonzero"/></clipPath><clipPath id="f8f8e46591"><path d="M 0.335938 0.789062 L 7.496094 0.789062 L 7.496094 9.101562 L 0.335938 9.101562 Z M 0.335938 0.789062 " clip-rule="nonzero"/></clipPath><clipPath id="092321eb6c"><path d="M 4.480469 3.972656 C 3.375 3.722656 3.0625 3.5625 3.0625 3.199219 L 3.0625 3.175781 C 3.0625 2.890625 3.28125 2.660156 3.816406 2.660156 C 4.527344 2.660156 5.101562 2.890625 5.882812 3.347656 L 7.121094 1.890625 C 6.253906 1.191406 5.21875 0.828125 3.859375 0.828125 C 1.945312 0.828125 0.796875 1.902344 0.796875 3.382812 L 0.796875 3.40625 C 0.796875 5.042969 2.144531 5.523438 3.839844 5.910156 C 4.925781 6.164062 5.222656 6.34375 5.222656 6.671875 L 5.222656 6.695312 C 5.222656 7.035156 4.835938 7.238281 4.246094 7.238281 C 3.328125 7.238281 2.414062 6.90625 1.628906 6.285156 L 0.382812 7.753906 C 1.359375 8.632812 2.78125 9.078125 4.191406 9.078125 C 6.128906 9.078125 7.488281 8.113281 7.488281 6.484375 L 7.488281 6.453125 C 7.488281 4.960938 6.3125 4.371094 4.472656 3.972656 " clip-rule="nonzero"/></clipPath><clipPath id="72496db0ba"><rect x="0" width="8" y="0" height="10"/></clipPath><clipPath id="b2285bd2bb"><path d="M 12.183594 14.789062 L 20.558594 14.789062 L 20.558594 23.101562 L 12.183594 23.101562 Z M 12.183594 14.789062 " clip-rule="nonzero"/></clipPath><clipPath id="ec1c8ebb2c"><path d="M 16.378906 20.898438 C 15.296875 20.898438 14.421875 20.023438 14.421875 18.945312 C 14.421875 17.867188 15.300781 16.988281 16.378906 16.988281 C 17.457031 16.988281 18.332031 17.867188 18.332031 18.945312 C 18.332031 20.023438 17.457031 20.898438 16.378906 20.898438 M 16.378906 14.839844 C 14.074219 14.839844 12.199219 16.679688 12.199219 18.945312 C 12.199219 21.210938 14.074219 23.046875 16.378906 23.046875 C 18.683594 23.046875 20.558594 21.210938 20.558594 18.945312 C 20.558594 16.679688 18.683594 14.839844 16.378906 14.839844 " clip-rule="nonzero"/></clipPath><clipPath id="4c13f5f01f"><path d="M 0.199219 0.789062 L 8.558594 0.789062 L 8.558594 9.101562 L 0.199219 9.101562 Z M 0.199219 0.789062 " clip-rule="nonzero"/></clipPath><clipPath id="7aeb016ec6"><path d="M 4.378906 6.898438 C 3.296875 6.898438 2.421875 6.023438 2.421875 4.945312 C 2.421875 3.867188 3.300781 2.988281 4.378906 2.988281 C 5.457031 2.988281 6.332031 3.867188 6.332031 4.945312 C 6.332031 6.023438 5.457031 6.898438 4.378906 6.898438 M 4.378906 0.839844 C 2.074219 0.839844 0.199219 2.679688 0.199219 4.945312 C 0.199219 7.210938 2.074219 9.046875 4.378906 9.046875 C 6.683594 9.046875 8.558594 7.210938 8.558594 4.945312 C 8.558594 2.679688 6.683594 0.839844 4.378906 0.839844 " clip-rule="nonzero"/></clipPath><clipPath id="1500eb2ca4"><rect x="0" width="9" y="0" height="10"/></clipPath><clipPath id="95a6efbc5c"><path d="M 41.109375 15.058594 L 47.289062 15.058594 L 47.289062 17.117188 L 41.109375 17.117188 Z M 41.109375 17.117188 L 43.167969 17.117188 L 43.167969 17.945312 L 41.109375 17.945312 Z M 41.109375 17.945312 L 46.875 17.945312 L 46.875 19.800781 L 41.109375 19.800781 Z M 41.109375 19.800781 L 43.167969 19.800781 L 43.167969 20.722656 L 41.109375 20.722656 Z M 41.109375 20.722656 L 47.289062 20.722656 L 47.289062 22.785156 L 41.109375 22.785156 Z M 41.109375 20.722656 " clip-rule="nonzero"/></clipPath><clipPath id="2a50f94706"><path d="M 0.109375 0.0585938 L 6.289062 0.0585938 L 6.289062 2.117188 L 0.109375 2.117188 Z M 0.109375 2.117188 L 2.167969 2.117188 L 2.167969 2.945312 L 0.109375 2.945312 Z M 0.109375 2.945312 L 5.875 2.945312 L 5.875 4.800781 L 0.109375 4.800781 Z M 0.109375 4.800781 L 2.167969 4.800781 L 2.167969 5.722656 L 0.109375 5.722656 Z M 0.109375 5.722656 L 6.289062 5.722656 L 6.289062 7.785156 L 0.109375 7.785156 Z M 0.109375 5.722656 " clip-rule="nonzero"/></clipPath><clipPath id="c872aa8211"><rect x="0" width="7" y="0" height="8"/></clipPath></defs><g clip-path="url(#95c72f28b4)"><g clip-path="url(#59d83b88f9)"><g transform="matrix(1, 0, 0, 1, 75, 16)"><g clip-path="url(#2745b210ad)"><g clip-path="url(#aa6e26f84d)"><g clip-path="url(#579c721552)"><rect x="-94.8" width="129.6" fill="#939393" height="54" y="-24.25" fill-opacity="1"/></g></g></g></g></g></g><g clip-path="url(#6121cdefc7)"><g clip-path="url(#4a37926d21)"><g transform="matrix(1, 0, 0, 1, 78, 14)"><g clip-path="url(#088fe91f94)"><g clip-path="url(#0f6fa60549)"><g clip-path="url(#df15170ebe)"><rect x="-97.8" width="129.6" fill="#939393" height="54" y="-22.25" fill-opacity="1"/></g></g></g></g></g></g><g clip-path="url(#226e2c2876)"><g clip-path="url(#5eb107c563)"><g transform="matrix(1, 0, 0, 1, 3, 14)"><g clip-path="url(#29b570eec9)"><g clip-path="url(#207d6f0b2c)"><g clip-path="url(#10894b2876)"><rect x="-22.8" width="129.6" fill="#939393" height="54" y="-22.25" fill-opacity="1"/></g></g></g></g></g></g><g clip-path="url(#f0583d3a9c)"><g clip-path="url(#c00bfda68e)"><g transform="matrix(1, 0, 0, 1, 22, 15)"><g clip-path="url(#27da6f7d99)"><g clip-path="url(#cb92266211)"><g clip-path="url(#e310145941)"><rect x="-41.8" width="129.6" fill="#939393" height="54" y="-23.25" fill-opacity="1"/></g></g></g></g></g></g><g clip-path="url(#64cedc6885)"><g clip-path="url(#b19d0afbaa)"><g transform="matrix(1, 0, 0, 1, 31, 15)"><g clip-path="url(#e7354b3b04)"><g clip-path="url(#03f614b357)"><g clip-path="url(#39cffcc1d5)"><rect x="-50.8" width="129.6" fill="#939393" height="54" y="-23.25" fill-opacity="1"/></g></g></g></g></g></g><g clip-path="url(#17f5b732f2)"><g clip-path="url(#b9a4785af7)"><g transform="matrix(1, 0, 0, 1, 49, 15)"><g clip-path="url(#ba99f1657c)"><g clip-path="url(#96e7c7e638)"><g clip-path="url(#347408748b)"><rect x="-68.8" width="129.6" fill="#939393" height="54" y="-23.25" fill-opacity="1"/></g></g></g></g></g></g><g clip-path="url(#a35fc84efb)"><g transform="matrix(1, 0, 0, 1, 66, 15)"><g clip-path="url(#625c9bf8af)"><g clip-path="url(#d9e050ca25)"><rect x="-85.8" width="129.6" fill="#939393" height="54" y="-23.25" fill-opacity="1"/></g></g></g></g><g clip-path="url(#d92e4c64e5)"><g clip-path="url(#01c7096f1b)"><g transform="matrix(1, 0, 0, 1, 57, 14)"><g clip-path="url(#72496db0ba)"><g clip-path="url(#f8f8e46591)"><g clip-path="url(#092321eb6c)"><rect x="-76.8" width="129.6" fill="#939393" height="54" y="-22.25" fill-opacity="1"/></g></g></g></g></g></g><g clip-path="url(#b2285bd2bb)"><g clip-path="url(#ec1c8ebb2c)"><g transform="matrix(1, 0, 0, 1, 12, 14)"><g clip-path="url(#1500eb2ca4)"><g clip-path="url(#4c13f5f01f)"><g clip-path="url(#7aeb016ec6)"><rect x="-31.8" width="129.6" fill="#939393" height="54" y="-22.25" fill-opacity="1"/></g></g></g></g></g></g><g clip-path="url(#95a6efbc5c)"><g transform="matrix(1, 0, 0, 1, 41, 15)"><g clip-path="url(#c872aa8211)"><g clip-path="url(#2a50f94706)"><rect x="-60.8" width="129.6" fill="#939393" height="54" y="-23.25" fill-opacity="1"/></g></g></g></g></svg>