<svg xmlns="http://www.w3.org/2000/svg" xmlns:xlink="http://www.w3.org/1999/xlink" width="120" zoomAndPan="magnify" viewBox="0 0 90 37.5" height="50" preserveAspectRatio="xMidYMid meet" version="1.0"><defs><clipPath id="54071b1c0a"><path d="M 37 18.753906 L 50.464844 18.753906 L 50.464844 32.246094 L 37 32.246094 Z M 37 18.753906 " clip-rule="nonzero"/></clipPath><clipPath id="d78328f2b7"><path d="M 50.445312 32.164062 L 46.816406 32.164062 L 46.816406 20.925781 C 46.816406 20.714844 46.386719 20.433594 46.167969 20.433594 C 45.980469 20.4375 45.570312 20.679688 45.570312 20.878906 L 45.570312 32.164062 L 41.949219 32.164062 L 41.949219 20.976562 C 41.949219 20.71875 41.558594 20.4375 41.300781 20.4375 C 41.09375 20.4375 40.703125 20.671875 40.703125 20.878906 L 40.703125 32.164062 L 37.03125 32.164062 L 37.03125 19.878906 C 37.03125 19.398438 37.71875 18.828125 38.199219 18.847656 L 49.320312 18.855469 C 49.707031 18.90625 50.019531 19.039062 50.246094 19.363281 C 50.277344 19.414062 50.445312 19.71875 50.445312 19.738281 Z M 50.445312 32.164062 " clip-rule="nonzero"/></clipPath><clipPath id="a1b74b74d0"><path d="M 0 0.753906 L 13.464844 0.753906 L 13.464844 14.210938 L 0 14.210938 Z M 0 0.753906 " clip-rule="nonzero"/></clipPath><clipPath id="169df2aee5"><path d="M 13.445312 14.164062 L 9.816406 14.164062 L 9.816406 2.925781 C 9.816406 2.714844 9.386719 2.433594 9.167969 2.433594 C 8.980469 2.4375 8.570312 2.679688 8.570312 2.878906 L 8.570312 14.164062 L 4.949219 14.164062 L 4.949219 2.976562 C 4.949219 2.71875 4.558594 2.4375 4.300781 2.4375 C 4.09375 2.4375 3.703125 2.671875 3.703125 2.878906 L 3.703125 14.164062 L 0.03125 14.164062 L 0.03125 1.878906 C 0.03125 1.398438 0.71875 0.828125 1.199219 0.847656 L 12.320312 0.855469 C 12.707031 0.90625 13.019531 1.039062 13.246094 1.363281 C 13.277344 1.414062 13.445312 1.71875 13.445312 1.738281 Z M 13.445312 14.164062 " clip-rule="nonzero"/></clipPath><clipPath id="038b16ffc1"><rect x="0" width="14" y="0" height="15"/></clipPath><clipPath id="936e6dcb1c"><path d="M 44.414062 4.757812 L 72.53125 4.757812 L 72.53125 26.699219 L 44.414062 26.699219 Z M 44.414062 4.757812 " clip-rule="nonzero"/></clipPath><clipPath id="9c2c08ba36"><path d="M 45.941406 12.398438 C 45.539062 12.800781 44.621094 12.203125 44.53125 11.707031 C 44.328125 10.527344 45.882812 10.105469 46.785156 10.121094 C 47.328125 10.125 48.394531 10.679688 48.230469 9.632812 C 48.171875 9.25 47.65625 9.035156 47.3125 9.035156 C 47.078125 9.03125 46.757812 9.207031 46.542969 9.214844 C 46.183594 9.226562 45.890625 8.769531 45.640625 8.550781 C 45.363281 8.3125 44.890625 8.191406 44.949219 7.722656 C 44.988281 7.417969 45.449219 7.273438 45.582031 7.011719 C 45.671875 6.820312 45.628906 6.578125 45.742188 6.40625 C 45.886719 6.179688 46.300781 6.097656 46.503906 5.878906 C 46.664062 5.714844 47.042969 4.910156 47.132812 4.878906 C 47.324219 4.820312 47.574219 5.429688 47.792969 5.449219 C 47.996094 5.460938 48.28125 4.804688 48.542969 4.882812 C 48.71875 4.933594 48.941406 5.648438 49.132812 5.777344 C 51.296875 5.972656 53.3125 7.253906 55.015625 8.53125 C 57.34375 10.285156 60.714844 14.089844 63.945312 13.441406 C 66.625 12.910156 67.171875 9.472656 68.34375 7.53125 C 68.941406 6.546875 70.144531 5.234375 71.265625 4.875 C 72.417969 4.503906 72.820312 5.515625 72.316406 6.449219 C 71.839844 7.316406 70.148438 7.769531 69.3125 8.507812 C 67.710938 9.921875 67.589844 12.3125 66.230469 13.679688 C 66.066406 13.851562 65.113281 14.53125 65.09375 14.601562 C 65.054688 14.757812 65.359375 15.015625 65.441406 15.148438 C 66.035156 16.078125 66.328125 17.882812 66.378906 18.984375 C 66.429688 19.996094 66.1875 20.804688 66.972656 21.636719 C 67.207031 21.878906 67.652344 22.023438 67.816406 22.316406 C 68.027344 22.6875 67.90625 23.140625 68.046875 23.570312 C 68.183594 23.976562 68.628906 24.386719 68.570312 24.804688 C 68.546875 24.988281 68.40625 25.191406 68.382812 25.425781 C 68.351562 25.734375 68.382812 26.105469 68.421875 26.417969 C 68.351562 26.878906 67.449219 26.503906 67.214844 26.304688 C 66.355469 25.585938 66.511719 24.109375 66.449219 23.109375 C 65.054688 22.074219 63.742188 20.742188 62.917969 19.199219 C 62.003906 17.5 61.730469 15.414062 59.292969 15.234375 C 57.210938 15.085938 55.695312 15.085938 53.925781 13.777344 C 53.292969 13.304688 52.828125 12.683594 52.25 12.203125 C 51.648438 11.703125 51.730469 12.074219 51.214844 12.414062 C 49.632812 13.453125 48.085938 12.125 46.664062 11.683594 C 45.835938 11.425781 46.230469 12.117188 45.9375 12.40625 " clip-rule="nonzero"/></clipPath><clipPath id="7278cec1b3"><path d="M 0.414062 0.757812 L 28.53125 0.757812 L 28.53125 22.699219 L 0.414062 22.699219 Z M 0.414062 0.757812 " clip-rule="nonzero"/></clipPath><clipPath id="d7eb81ab3d"><path d="M 1.941406 8.398438 C 1.539062 8.800781 0.621094 8.203125 0.53125 7.707031 C 0.328125 6.527344 1.882812 6.105469 2.785156 6.121094 C 3.328125 6.125 4.394531 6.679688 4.230469 5.632812 C 4.171875 5.25 3.65625 5.035156 3.3125 5.035156 C 3.078125 5.03125 2.757812 5.207031 2.542969 5.214844 C 2.183594 5.226562 1.890625 4.769531 1.640625 4.550781 C 1.363281 4.3125 0.890625 4.191406 0.949219 3.722656 C 0.988281 3.417969 1.449219 3.273438 1.582031 3.011719 C 1.671875 2.820312 1.628906 2.578125 1.742188 2.40625 C 1.886719 2.179688 2.300781 2.097656 2.503906 1.878906 C 2.664062 1.714844 3.042969 0.910156 3.132812 0.878906 C 3.324219 0.820312 3.574219 1.429688 3.792969 1.449219 C 3.996094 1.460938 4.28125 0.804688 4.542969 0.882812 C 4.71875 0.933594 4.941406 1.648438 5.132812 1.777344 C 7.296875 1.972656 9.3125 3.253906 11.015625 4.53125 C 13.34375 6.285156 16.714844 10.089844 19.945312 9.441406 C 22.625 8.910156 23.171875 5.472656 24.34375 3.53125 C 24.941406 2.546875 26.144531 1.234375 27.265625 0.875 C 28.417969 0.503906 28.820312 1.515625 28.316406 2.449219 C 27.839844 3.316406 26.148438 3.769531 25.3125 4.507812 C 23.710938 5.921875 23.589844 8.3125 22.230469 9.679688 C 22.066406 9.851562 21.113281 10.53125 21.09375 10.601562 C 21.054688 10.757812 21.359375 11.015625 21.441406 11.148438 C 22.035156 12.078125 22.328125 13.882812 22.378906 14.984375 C 22.429688 15.996094 22.1875 16.804688 22.972656 17.636719 C 23.207031 17.878906 23.652344 18.023438 23.816406 18.316406 C 24.027344 18.6875 23.90625 19.140625 24.046875 19.570312 C 24.183594 19.976562 24.628906 20.386719 24.570312 20.804688 C 24.546875 20.988281 24.40625 21.191406 24.382812 21.425781 C 24.351562 21.734375 24.382812 22.105469 24.421875 22.417969 C 24.351562 22.878906 23.449219 22.503906 23.214844 22.304688 C 22.355469 21.585938 22.511719 20.109375 22.449219 19.109375 C 21.054688 18.074219 19.742188 16.742188 18.917969 15.199219 C 18.003906 13.5 17.730469 11.414062 15.292969 11.234375 C 13.210938 11.085938 11.695312 11.085938 9.925781 9.777344 C 9.292969 9.304688 8.828125 8.683594 8.25 8.203125 C 7.648438 7.703125 7.730469 8.074219 7.214844 8.414062 C 5.632812 9.453125 4.085938 8.125 2.664062 7.683594 C 1.835938 7.425781 2.230469 8.117188 1.9375 8.40625 " clip-rule="nonzero"/></clipPath><clipPath id="6bef44dfcb"><rect x="0" width="29" y="0" height="23"/></clipPath><clipPath id="b165e4d126"><path d="M 51.601562 18.753906 L 60.300781 18.753906 L 60.300781 32.246094 L 51.601562 32.246094 Z M 51.601562 18.753906 " clip-rule="nonzero"/></clipPath><clipPath id="6c276c2304"><path d="M 56.597656 27.15625 L 56.597656 20.976562 C 56.597656 20.859375 56.371094 20.558594 56.253906 20.511719 C 56.03125 20.421875 55.6875 20.460938 55.519531 20.632812 C 55.496094 20.65625 55.359375 20.863281 55.359375 20.878906 L 55.359375 27.15625 Z M 60.226562 32.164062 L 56.597656 32.164062 L 56.597656 28.824219 L 55.359375 28.824219 L 55.359375 32.167969 L 51.683594 32.167969 L 51.683594 19.976562 C 51.683594 19.894531 51.8125 19.527344 51.863281 19.441406 C 52.082031 19.070312 52.480469 18.886719 52.894531 18.855469 C 54.902344 18.699219 57.117188 18.96875 59.144531 18.859375 C 59.542969 18.839844 60.222656 19.398438 60.222656 19.78125 Z M 60.226562 32.164062 " clip-rule="nonzero"/></clipPath><clipPath id="62e14560ea"><path d="M 0.601562 0.753906 L 9.277344 0.753906 L 9.277344 14.210938 L 0.601562 14.210938 Z M 0.601562 0.753906 " clip-rule="nonzero"/></clipPath><clipPath id="1326c27e70"><path d="M 5.597656 9.15625 L 5.597656 2.976562 C 5.597656 2.859375 5.371094 2.558594 5.253906 2.511719 C 5.03125 2.421875 4.6875 2.460938 4.519531 2.632812 C 4.496094 2.65625 4.359375 2.863281 4.359375 2.878906 L 4.359375 9.15625 Z M 9.226562 14.164062 L 5.597656 14.164062 L 5.597656 10.824219 L 4.359375 10.824219 L 4.359375 14.167969 L 0.683594 14.167969 L 0.683594 1.976562 C 0.683594 1.894531 0.8125 1.527344 0.863281 1.441406 C 1.082031 1.070312 1.480469 0.886719 1.894531 0.855469 C 3.902344 0.699219 6.117188 0.96875 8.144531 0.859375 C 8.542969 0.839844 9.222656 1.398438 9.222656 1.78125 Z M 9.226562 14.164062 " clip-rule="nonzero"/></clipPath><clipPath id="b01bb030f4"><rect x="0" width="10" y="0" height="15"/></clipPath><clipPath id="d24795db93"><path d="M 27.140625 18.753906 L 35.839844 18.753906 L 35.839844 32.246094 L 27.140625 32.246094 Z M 27.140625 18.753906 " clip-rule="nonzero"/></clipPath><clipPath id="88b104974d"><path d="M 30.921875 18.855469 L 30.921875 30.136719 C 30.921875 30.195312 31.195312 30.476562 31.265625 30.507812 C 31.5 30.597656 31.832031 30.539062 31.992188 30.347656 C 32.035156 30.292969 32.160156 29.996094 32.160156 29.941406 L 32.160156 18.855469 L 35.789062 18.855469 L 35.789062 31.277344 C 35.789062 31.296875 35.671875 31.570312 35.648438 31.613281 C 35.472656 31.925781 35.152344 32.097656 34.808594 32.152344 C 32.714844 32.046875 30.441406 32.3125 28.367188 32.164062 C 27.933594 32.128906 27.554688 31.949219 27.367188 31.539062 C 27.34375 31.488281 27.25 31.257812 27.25 31.230469 L 27.25 18.855469 Z M 30.921875 18.855469 " clip-rule="nonzero"/></clipPath><clipPath id="197ee3abe2"><path d="M 0.140625 0.753906 L 8.839844 0.753906 L 8.839844 14.246094 L 0.140625 14.246094 Z M 0.140625 0.753906 " clip-rule="nonzero"/></clipPath><clipPath id="6aaa9402c5"><path d="M 3.921875 0.855469 L 3.921875 12.136719 C 3.921875 12.195312 4.195312 12.476562 4.265625 12.507812 C 4.5 12.597656 4.832031 12.539062 4.992188 12.347656 C 5.035156 12.292969 5.160156 11.996094 5.160156 11.941406 L 5.160156 0.855469 L 8.789062 0.855469 L 8.789062 13.277344 C 8.789062 13.296875 8.671875 13.570312 8.648438 13.613281 C 8.472656 13.925781 8.152344 14.097656 7.808594 14.152344 C 5.714844 14.046875 3.441406 14.3125 1.367188 14.164062 C 0.933594 14.128906 0.554688 13.949219 0.367188 13.539062 C 0.34375 13.488281 0.25 13.257812 0.25 13.230469 L 0.25 0.855469 Z M 3.921875 0.855469 " clip-rule="nonzero"/></clipPath><clipPath id="f667fbde2e"><rect x="0" width="9" y="0" height="15"/></clipPath><clipPath id="492d9bc02b"><path d="M 17.429688 18.753906 L 26.128906 18.753906 L 26.128906 32.246094 L 17.429688 32.246094 Z M 17.429688 18.753906 " clip-rule="nonzero"/></clipPath><clipPath id="b7201062f3"><path d="M 21.140625 27.15625 L 21.925781 27.15625 C 22.105469 27.15625 22.414062 26.757812 22.378906 26.558594 L 22.375 21.023438 C 22.269531 20.378906 21.664062 20.402344 21.136719 20.421875 Z M 21.140625 28.824219 L 21.140625 32.167969 L 17.460938 32.167969 L 17.460938 18.855469 L 24.980469 18.855469 C 25.011719 18.855469 25.320312 18.964844 25.371094 18.988281 C 25.777344 19.183594 25.976562 19.585938 26.007812 20.019531 C 26.191406 22.527344 25.867188 25.265625 25.996094 27.789062 C 25.980469 28.238281 25.417969 28.820312 24.976562 28.820312 Z M 21.140625 28.824219 " clip-rule="nonzero"/></clipPath><clipPath id="c85386fb12"><path d="M 0.429688 0.753906 L 9.128906 0.753906 L 9.128906 14.210938 L 0.429688 14.210938 Z M 0.429688 0.753906 " clip-rule="nonzero"/></clipPath><clipPath id="c1773abb4d"><path d="M 4.140625 9.15625 L 4.925781 9.15625 C 5.105469 9.15625 5.414062 8.757812 5.378906 8.558594 L 5.375 3.023438 C 5.269531 2.378906 4.664062 2.402344 4.136719 2.421875 Z M 4.140625 10.824219 L 4.140625 14.167969 L 0.460938 14.167969 L 0.460938 0.855469 L 7.980469 0.855469 C 8.011719 0.855469 8.320312 0.964844 8.371094 0.988281 C 8.777344 1.183594 8.976562 1.585938 9.007812 2.019531 C 9.191406 4.527344 8.867188 7.265625 8.996094 9.789062 C 8.980469 10.238281 8.417969 10.820312 7.976562 10.820312 Z M 4.140625 10.824219 " clip-rule="nonzero"/></clipPath><clipPath id="b1b9d3a962"><rect x="0" width="10" y="0" height="15"/></clipPath></defs><g clip-path="url(#54071b1c0a)"><g clip-path="url(#d78328f2b7)"><g transform="matrix(1, 0, 0, 1, 37, 18)"><g clip-path="url(#038b16ffc1)"><g clip-path="url(#a1b74b74d0)"><g clip-path="url(#169df2aee5)"><rect x="-56.8" width="129.6" fill="#939393" height="54" y="-26.25" fill-opacity="1"/></g></g></g></g></g></g><g clip-path="url(#936e6dcb1c)"><g clip-path="url(#9c2c08ba36)"><g transform="matrix(1, 0, 0, 1, 44, 4)"><g clip-path="url(#6bef44dfcb)"><g clip-path="url(#7278cec1b3)"><g clip-path="url(#d7eb81ab3d)"><rect x="-63.8" width="129.6" fill="#939393" height="54" y="-12.25" fill-opacity="1"/></g></g></g></g></g></g><g clip-path="url(#b165e4d126)"><g clip-path="url(#6c276c2304)"><g transform="matrix(1, 0, 0, 1, 51, 18)"><g clip-path="url(#b01bb030f4)"><g clip-path="url(#62e14560ea)"><g clip-path="url(#1326c27e70)"><rect x="-70.8" width="129.6" fill="#939393" height="54" y="-26.25" fill-opacity="1"/></g></g></g></g></g></g><g clip-path="url(#d24795db93)"><g clip-path="url(#88b104974d)"><g transform="matrix(1, 0, 0, 1, 27, 18)"><g clip-path="url(#f667fbde2e)"><g clip-path="url(#197ee3abe2)"><g clip-path="url(#6aaa9402c5)"><rect x="-46.8" width="129.6" fill="#939393" height="54" y="-26.25" fill-opacity="1"/></g></g></g></g></g></g><g clip-path="url(#492d9bc02b)"><g clip-path="url(#b7201062f3)"><g transform="matrix(1, 0, 0, 1, 17, 18)"><g clip-path="url(#b1b9d3a962)"><g clip-path="url(#c85386fb12)"><g clip-path="url(#c1773abb4d)"><rect x="-36.8" width="129.6" fill="#939393" height="54" y="-26.25" fill-opacity="1"/></g></g></g></g></g></g></svg>