<svg xmlns="http://www.w3.org/2000/svg" xmlns:xlink="http://www.w3.org/1999/xlink" width="120" zoomAndPan="magnify" viewBox="0 0 90 37.5" height="50" preserveAspectRatio="xMidYMid meet" version="1.0"><defs><clipPath id="aa5cf25935"><path d="M 52.925781 4.777344 L 79.191406 4.777344 L 79.191406 29.410156 L 52.925781 29.410156 Z M 52.925781 4.777344 " clip-rule="nonzero"/></clipPath><clipPath id="1d26e441d6"><path d="M 60.507812 22.636719 C 59.9375 22.394531 59.335938 21.984375 58.9375 21.519531 C 58.78125 21.335938 58.652344 21.035156 58.519531 20.890625 C 58.488281 20.847656 58.464844 20.8125 58.410156 20.863281 C 57.972656 21.449219 57.550781 22.054688 57.179688 22.691406 C 56.679688 23.550781 55.796875 25.230469 55.933594 26.222656 C 55.996094 26.699219 56.34375 27.027344 56.84375 26.933594 C 57.769531 26.761719 59.042969 25.125 59.5625 24.359375 C 59.707031 24.152344 60.59375 22.75 60.511719 22.628906 M 75.324219 18.089844 C 74.589844 18.160156 73.179688 19.789062 72.707031 20.375 C 71.710938 21.628906 69.503906 24.886719 69.511719 26.445312 C 69.511719 26.941406 69.882812 27.050781 70.300781 26.886719 C 71.011719 26.597656 72.023438 25.03125 72.457031 24.367188 C 73.652344 22.53125 74.617188 20.546875 75.78125 18.691406 C 75.953125 18.324219 75.707031 18.054688 75.316406 18.089844 M 61.066406 17.917969 C 60.589844 17.988281 59.847656 18.632812 59.601562 19.027344 C 58.871094 20.207031 59.664062 21.613281 60.921875 21.917969 C 61.464844 21.011719 62.078125 19.710938 61.941406 18.636719 C 61.875 18.117188 61.613281 17.835938 61.074219 17.914062 M 78.695312 22.921875 C 77.757812 24.414062 76.71875 25.945312 75.507812 27.226562 C 74.816406 27.953125 73.230469 29.316406 72.210938 29.347656 C 71.019531 29.382812 70.910156 28.320312 71.046875 27.378906 C 70.15625 28.183594 68.292969 30.074219 67.019531 29.0625 C 66.386719 28.546875 66.425781 27.597656 66.496094 26.859375 C 65.613281 27.789062 64.207031 29.546875 62.769531 29.335938 C 62.066406 29.230469 61.574219 28.410156 61.511719 27.753906 C 61.355469 26.070312 62.21875 24.242188 62.6875 22.667969 C 62.375 22.703125 62.066406 22.765625 61.75 22.800781 C 61.601562 22.820312 61.421875 22.757812 61.292969 22.867188 C 59.972656 25.058594 58.460938 27.492188 56.1875 28.820312 C 53.792969 30.21875 52.65625 28.765625 53.082031 26.332031 C 53.632812 23.175781 57.171875 18.078125 60.265625 17.003906 C 60.929688 16.777344 61.867188 16.6875 62.347656 17.304688 C 63.113281 18.296875 62.558594 20.046875 62.128906 21.101562 C 62.078125 21.226562 61.675781 22.027344 61.71875 22.066406 C 62.175781 22.09375 62.613281 21.964844 63.023438 21.777344 C 65.597656 16.550781 68.71875 11.429688 73.078125 7.496094 C 74.097656 6.570312 76.179688 4.75 77.601562 4.855469 C 77.890625 4.875 78.128906 4.96875 78.285156 5.21875 C 78.691406 5.867188 78.210938 7.378906 77.800781 7.976562 C 77.601562 8.261719 77.207031 8.253906 76.882812 8.304688 C 77.082031 7.871094 77.355469 7.433594 77.519531 6.996094 C 78.265625 4.976562 76.835938 6.011719 76.054688 6.667969 C 74.097656 8.316406 72.378906 10.542969 70.9375 12.640625 C 69.335938 14.96875 67.863281 17.433594 66.617188 19.972656 C 66.726562 20.066406 68.070312 18.953125 68.234375 18.816406 C 70.65625 16.75 72.851562 14.222656 74.804688 11.710938 C 75.050781 11.648438 75.300781 11.621094 75.550781 11.589844 C 75.609375 11.582031 75.632812 11.589844 75.609375 11.648438 C 75.578125 11.753906 75.273438 12.15625 75.191406 12.28125 C 73.1875 15.160156 70.058594 18.300781 67.300781 20.472656 C 66.980469 20.726562 66.035156 21.308594 65.84375 21.546875 C 65.671875 21.757812 65.351562 22.601562 65.234375 22.902344 C 64.894531 23.75 64.078125 25.925781 64.34375 26.753906 C 64.652344 27.691406 65.605469 26.714844 65.953125 26.332031 C 67.015625 25.160156 67.847656 23.546875 68.757812 22.230469 C 69.683594 20.890625 70.730469 19.515625 71.941406 18.417969 C 72.777344 17.671875 74.597656 16.25 75.71875 17.089844 C 75.878906 17.207031 76.246094 17.726562 76.289062 17.75 C 76.355469 17.78125 76.351562 17.714844 76.363281 17.695312 C 76.472656 17.515625 76.574219 17.332031 76.65625 17.140625 L 79.148438 17.140625 C 77.972656 19.191406 76.835938 21.273438 75.660156 23.324219 C 75.261719 24.023438 74.796875 24.695312 74.417969 25.40625 C 74.277344 25.679688 73.789062 26.589844 73.867188 26.84375 C 74.023438 27.371094 75.015625 26.5 75.214844 26.332031 C 76.300781 25.371094 77.046875 24.097656 77.902344 22.941406 Z M 78.695312 22.921875 " clip-rule="nonzero"/></clipPath><clipPath id="ecbb9d5bf4"><path d="M 0.925781 0.777344 L 27.191406 0.777344 L 27.191406 25.410156 L 0.925781 25.410156 Z M 0.925781 0.777344 " clip-rule="nonzero"/></clipPath><clipPath id="482b940f94"><path d="M 8.507812 18.636719 C 7.9375 18.394531 7.335938 17.984375 6.9375 17.519531 C 6.78125 17.335938 6.652344 17.035156 6.519531 16.890625 C 6.488281 16.847656 6.464844 16.8125 6.410156 16.863281 C 5.972656 17.449219 5.550781 18.054688 5.179688 18.691406 C 4.679688 19.550781 3.796875 21.230469 3.933594 22.222656 C 3.996094 22.699219 4.34375 23.027344 4.84375 22.933594 C 5.769531 22.761719 7.042969 21.125 7.5625 20.359375 C 7.707031 20.152344 8.59375 18.75 8.511719 18.628906 M 23.324219 14.089844 C 22.589844 14.160156 21.179688 15.789062 20.707031 16.375 C 19.710938 17.628906 17.503906 20.886719 17.511719 22.445312 C 17.511719 22.941406 17.882812 23.050781 18.300781 22.886719 C 19.011719 22.597656 20.023438 21.03125 20.457031 20.367188 C 21.652344 18.53125 22.617188 16.546875 23.78125 14.691406 C 23.953125 14.324219 23.707031 14.054688 23.316406 14.089844 M 9.066406 13.917969 C 8.589844 13.988281 7.847656 14.632812 7.601562 15.027344 C 6.871094 16.207031 7.664062 17.613281 8.921875 17.917969 C 9.464844 17.011719 10.078125 15.710938 9.941406 14.636719 C 9.875 14.117188 9.613281 13.835938 9.074219 13.914062 M 26.695312 18.921875 C 25.757812 20.414062 24.71875 21.945312 23.507812 23.226562 C 22.816406 23.953125 21.230469 25.316406 20.210938 25.347656 C 19.019531 25.382812 18.910156 24.320312 19.046875 23.378906 C 18.15625 24.183594 16.292969 26.074219 15.019531 25.0625 C 14.386719 24.546875 14.425781 23.597656 14.496094 22.859375 C 13.613281 23.789062 12.207031 25.546875 10.769531 25.335938 C 10.066406 25.230469 9.574219 24.410156 9.511719 23.753906 C 9.355469 22.070312 10.21875 20.242188 10.6875 18.667969 C 10.375 18.703125 10.066406 18.765625 9.75 18.800781 C 9.601562 18.820312 9.421875 18.757812 9.292969 18.867188 C 7.972656 21.058594 6.460938 23.492188 4.1875 24.820312 C 1.792969 26.21875 0.65625 24.765625 1.082031 22.332031 C 1.632812 19.175781 5.171875 14.078125 8.265625 13.003906 C 8.929688 12.777344 9.867188 12.6875 10.347656 13.304688 C 11.113281 14.296875 10.558594 16.046875 10.128906 17.101562 C 10.078125 17.226562 9.675781 18.027344 9.71875 18.066406 C 10.175781 18.09375 10.613281 17.964844 11.023438 17.777344 C 13.597656 12.550781 16.71875 7.429688 21.078125 3.496094 C 22.097656 2.570312 24.179688 0.75 25.601562 0.855469 C 25.890625 0.875 26.128906 0.96875 26.285156 1.21875 C 26.691406 1.867188 26.210938 3.378906 25.800781 3.976562 C 25.601562 4.261719 25.207031 4.253906 24.882812 4.304688 C 25.082031 3.871094 25.355469 3.433594 25.519531 2.996094 C 26.265625 0.976562 24.835938 2.011719 24.054688 2.667969 C 22.097656 4.316406 20.378906 6.542969 18.9375 8.640625 C 17.335938 10.96875 15.863281 13.433594 14.617188 15.972656 C 14.726562 16.066406 16.070312 14.953125 16.234375 14.816406 C 18.65625 12.75 20.851562 10.222656 22.804688 7.710938 C 23.050781 7.648438 23.300781 7.621094 23.550781 7.589844 C 23.609375 7.582031 23.632812 7.589844 23.609375 7.648438 C 23.578125 7.753906 23.273438 8.15625 23.191406 8.28125 C 21.1875 11.160156 18.058594 14.300781 15.300781 16.472656 C 14.980469 16.726562 14.035156 17.308594 13.84375 17.546875 C 13.671875 17.757812 13.351562 18.601562 13.234375 18.902344 C 12.894531 19.75 12.078125 21.925781 12.34375 22.753906 C 12.652344 23.691406 13.605469 22.714844 13.953125 22.332031 C 15.015625 21.160156 15.847656 19.546875 16.757812 18.230469 C 17.683594 16.890625 18.730469 15.515625 19.941406 14.417969 C 20.777344 13.671875 22.597656 12.25 23.71875 13.089844 C 23.878906 13.207031 24.246094 13.726562 24.289062 13.75 C 24.355469 13.78125 24.351562 13.714844 24.363281 13.695312 C 24.472656 13.515625 24.574219 13.332031 24.65625 13.140625 L 27.148438 13.140625 C 25.972656 15.191406 24.835938 17.273438 23.660156 19.324219 C 23.261719 20.023438 22.796875 20.695312 22.417969 21.40625 C 22.277344 21.679688 21.789062 22.589844 21.867188 22.84375 C 22.023438 23.371094 23.015625 22.5 23.214844 22.332031 C 24.300781 21.371094 25.046875 20.097656 25.902344 18.941406 Z M 26.695312 18.921875 " clip-rule="nonzero"/></clipPath><clipPath id="88c8bedf60"><rect x="0" width="28" y="0" height="26"/></clipPath><clipPath id="e14fa5aba2"><path d="M 14.339844 10.558594 L 42.617188 10.558594 L 42.617188 23.375 L 14.339844 23.375 Z M 14.339844 10.558594 " clip-rule="nonzero"/></clipPath><clipPath id="ad4750acec"><path d="M 19.996094 14.550781 C 19.949219 14.519531 19.46875 15.230469 19.421875 15.304688 C 18.738281 16.3125 17.328125 18.699219 17.421875 19.902344 C 17.445312 20.164062 17.628906 20.648438 17.902344 20.738281 C 18.667969 20.980469 19.667969 19.953125 20.132812 19.425781 C 20.976562 18.496094 21.605469 17.398438 22.226562 16.316406 C 22.242188 16.261719 22.199219 16.25 22.160156 16.222656 C 21.960938 16.113281 21.617188 16.042969 21.371094 15.914062 C 20.824219 15.625 20.261719 15.121094 20.003906 14.550781 M 38.742188 11.898438 C 37.832031 12.046875 36.332031 14.148438 35.765625 14.90625 C 34.949219 16.003906 34.082031 17.269531 33.511719 18.515625 C 33.300781 18.992188 32.308594 21.171875 33.609375 20.835938 C 34.28125 20.664062 35.292969 19.234375 35.667969 18.660156 C 36.996094 16.632812 38.121094 14.421875 39.34375 12.328125 C 39.441406 11.984375 39.015625 11.855469 38.742188 11.902344 M 22.699219 15.460938 C 23.074219 14.59375 23.84375 13.074219 23.335938 12.15625 C 23.101562 11.730469 22.570312 11.792969 22.1875 11.957031 C 21.558594 12.226562 20.851562 13.148438 20.832031 13.832031 C 20.796875 14.785156 21.832031 15.46875 22.707031 15.460938 M 42.027344 17.042969 C 40.898438 18.636719 39.742188 20.300781 38.289062 21.628906 C 37.515625 22.339844 35.476562 24.085938 34.574219 22.757812 C 34.28125 22.320312 34.394531 21.800781 34.417969 21.320312 C 33.582031 22.238281 31.882812 23.785156 30.554688 23.058594 C 29.523438 22.492188 29.96875 20.964844 30.171875 20.054688 C 29.425781 20.65625 28.789062 21.402344 28.03125 22 C 26.601562 23.101562 23.820312 24.230469 22.964844 21.867188 C 22.214844 19.820312 23.453125 17.859375 24.320312 16.078125 L 23.109375 16.351562 C 21.835938 18.527344 20.398438 20.800781 18.332031 22.300781 C 15.179688 24.578125 13.769531 22.457031 14.679688 19.210938 C 15.4375 16.488281 17.867188 13.265625 20.203125 11.671875 C 21.152344 11.019531 23.0625 10.046875 23.972656 11.207031 C 24.847656 12.3125 24.035156 14.265625 23.582031 15.421875 C 24.179688 15.386719 24.78125 14.96875 25.257812 14.628906 C 26.886719 13.449219 28.441406 11.054688 30.523438 10.71875 C 32.382812 10.410156 33.15625 11.773438 32.535156 13.429688 C 32.308594 14.023438 31.488281 15.394531 30.742188 15.292969 C 29.535156 15.125 30.441406 13.054688 31.480469 12.863281 C 31.734375 12.8125 31.871094 12.964844 31.972656 12.65625 C 32.152344 12.121094 31.71875 11.828125 31.21875 11.902344 C 29.949219 12.089844 27.929688 14.832031 27.277344 15.914062 C 26.636719 16.980469 25.445312 19.238281 25.644531 20.472656 C 25.917969 22.183594 27.695312 21.238281 28.523438 20.5625 C 31.480469 18.152344 33.035156 14.214844 36.105469 11.800781 C 37.125 11 38.878906 9.945312 39.804688 11.453125 C 39.886719 11.511719 40.097656 11.101562 40.109375 11.011719 L 42.5625 11.011719 L 37.511719 19.761719 C 37.324219 20 37.039062 20.765625 37.539062 20.753906 C 38.035156 20.738281 39.195312 19.527344 39.550781 19.136719 C 40.144531 18.472656 40.652344 17.734375 41.210938 17.035156 Z M 42.027344 17.042969 " clip-rule="nonzero"/></clipPath><clipPath id="1a7936e15a"><path d="M 0.339844 0.558594 L 28.617188 0.558594 L 28.617188 13.375 L 0.339844 13.375 Z M 0.339844 0.558594 " clip-rule="nonzero"/></clipPath><clipPath id="6be25f58b3"><path d="M 5.996094 4.550781 C 5.949219 4.519531 5.46875 5.230469 5.421875 5.304688 C 4.738281 6.3125 3.328125 8.699219 3.421875 9.902344 C 3.445312 10.164062 3.628906 10.648438 3.902344 10.738281 C 4.667969 10.980469 5.667969 9.953125 6.132812 9.425781 C 6.976562 8.496094 7.605469 7.398438 8.226562 6.316406 C 8.242188 6.261719 8.199219 6.25 8.160156 6.222656 C 7.960938 6.113281 7.617188 6.042969 7.371094 5.914062 C 6.824219 5.625 6.261719 5.121094 6.003906 4.550781 M 24.742188 1.898438 C 23.832031 2.046875 22.332031 4.148438 21.765625 4.90625 C 20.949219 6.003906 20.082031 7.269531 19.511719 8.515625 C 19.300781 8.992188 18.308594 11.171875 19.609375 10.835938 C 20.28125 10.664062 21.292969 9.234375 21.667969 8.660156 C 22.996094 6.632812 24.121094 4.421875 25.34375 2.328125 C 25.441406 1.984375 25.015625 1.855469 24.742188 1.902344 M 8.699219 5.460938 C 9.074219 4.59375 9.84375 3.074219 9.335938 2.15625 C 9.101562 1.730469 8.570312 1.792969 8.1875 1.957031 C 7.558594 2.226562 6.851562 3.148438 6.832031 3.832031 C 6.796875 4.785156 7.832031 5.46875 8.707031 5.460938 M 28.027344 7.042969 C 26.898438 8.636719 25.742188 10.300781 24.289062 11.628906 C 23.515625 12.339844 21.476562 14.085938 20.574219 12.757812 C 20.28125 12.320312 20.394531 11.800781 20.417969 11.320312 C 19.582031 12.238281 17.882812 13.785156 16.554688 13.058594 C 15.523438 12.492188 15.96875 10.964844 16.171875 10.054688 C 15.425781 10.65625 14.789062 11.402344 14.03125 12 C 12.601562 13.101562 9.820312 14.230469 8.964844 11.867188 C 8.214844 9.820312 9.453125 7.859375 10.320312 6.078125 L 9.109375 6.351562 C 7.835938 8.527344 6.398438 10.800781 4.332031 12.300781 C 1.179688 14.578125 -0.230469 12.457031 0.679688 9.210938 C 1.4375 6.488281 3.867188 3.265625 6.203125 1.671875 C 7.152344 1.019531 9.0625 0.046875 9.972656 1.207031 C 10.847656 2.3125 10.035156 4.265625 9.582031 5.421875 C 10.179688 5.386719 10.78125 4.96875 11.257812 4.628906 C 12.886719 3.449219 14.441406 1.054688 16.523438 0.71875 C 18.382812 0.410156 19.15625 1.773438 18.535156 3.429688 C 18.308594 4.023438 17.488281 5.394531 16.742188 5.292969 C 15.535156 5.125 16.441406 3.054688 17.480469 2.863281 C 17.734375 2.8125 17.871094 2.964844 17.972656 2.65625 C 18.152344 2.121094 17.71875 1.828125 17.21875 1.902344 C 15.949219 2.089844 13.929688 4.832031 13.277344 5.914062 C 12.636719 6.980469 11.445312 9.238281 11.644531 10.472656 C 11.917969 12.183594 13.695312 11.238281 14.523438 10.5625 C 17.480469 8.152344 19.035156 4.214844 22.105469 1.800781 C 23.125 1 24.878906 -0.0546875 25.804688 1.453125 C 25.886719 1.511719 26.097656 1.101562 26.109375 1.011719 L 28.5625 1.011719 L 23.511719 9.761719 C 23.324219 10 23.039062 10.765625 23.539062 10.753906 C 24.035156 10.738281 25.195312 9.527344 25.550781 9.136719 C 26.144531 8.472656 26.652344 7.734375 27.210938 7.035156 Z M 28.027344 7.042969 " clip-rule="nonzero"/></clipPath><clipPath id="a5ef4f2045"><rect x="0" width="29" y="0" height="14"/></clipPath><clipPath id="6340aa88a2"><path d="M 41.738281 4.523438 L 71.902344 4.523438 L 71.902344 29.410156 L 41.738281 29.410156 Z M 41.738281 4.523438 " clip-rule="nonzero"/></clipPath><clipPath id="cae1d05384"><path d="M 60.636719 6.46875 C 58.816406 7.394531 57.289062 8.960938 56.226562 10.691406 C 55.832031 11.34375 54.984375 12.828125 55.351562 13.558594 C 55.742188 14.332031 56.804688 13.585938 57.25 13.238281 C 58.960938 11.890625 60.238281 9.71875 60.582031 7.570312 C 60.644531 7.207031 60.703125 6.832031 60.636719 6.46875 M 58.480469 13.175781 C 57.71875 13.96875 55.597656 15.542969 54.765625 14.113281 C 54.296875 13.328125 54.621094 12.355469 54.941406 11.582031 C 55.960938 9.109375 57.910156 7.207031 60.117188 5.769531 C 58.953125 5.414062 57.808594 6.132812 56.859375 6.730469 C 54.222656 8.386719 51.992188 10.992188 50.128906 13.464844 C 47.96875 16.339844 45.339844 20.800781 45.121094 24.449219 C 44.996094 26.515625 46.296875 28.179688 48.445312 27.160156 C 50.84375 26.023438 53.546875 22.011719 53.722656 19.378906 C 53.855469 17.523438 52.492188 17.941406 51.628906 18.945312 C 50.871094 19.84375 50.410156 21.007812 50.179688 22.140625 C 48.972656 22.695312 47.933594 23.558594 47.023438 24.511719 C 47.007812 24.179688 47.085938 23.824219 47.144531 23.496094 C 47.605469 21.117188 48.917969 18.425781 51.183594 17.316406 C 54.542969 15.675781 54.902344 18.617188 54.09375 21.136719 C 53.085938 24.261719 49.363281 29.109375 45.839844 29.355469 C 41.898438 29.628906 41.34375 25.203125 42.121094 22.277344 C 43.75 16.234375 49.898438 8.25 55.625 5.585938 C 57.136719 4.882812 59.171875 4.09375 60.699219 5.121094 C 60.808594 5.195312 60.875 5.339844 61.003906 5.332031 C 61.363281 5.210938 61.710938 5.058594 62.074219 4.949219 C 65.242188 4.019531 67.269531 5.292969 69.890625 6.804688 C 70.558594 7.1875 71.238281 7.585938 71.867188 8.015625 L 70.03125 9.980469 C 67.726562 8.84375 65.667969 6.796875 63.121094 6.1875 C 62.601562 6.066406 61.847656 5.949219 61.382812 6.230469 C 61.519531 7.589844 61.082031 8.988281 60.511719 10.207031 C 60.054688 11.199219 59.234375 12.382812 58.472656 13.167969 " clip-rule="nonzero"/></clipPath><clipPath id="8c7092a1e5"><path d="M 0.738281 0.523438 L 30.882812 0.523438 L 30.882812 25.410156 L 0.738281 25.410156 Z M 0.738281 0.523438 " clip-rule="nonzero"/></clipPath><clipPath id="976742870e"><path d="M 19.636719 2.46875 C 17.816406 3.394531 16.289062 4.960938 15.226562 6.691406 C 14.832031 7.34375 13.984375 8.828125 14.351562 9.558594 C 14.742188 10.332031 15.804688 9.585938 16.25 9.238281 C 17.960938 7.890625 19.238281 5.71875 19.582031 3.570312 C 19.644531 3.207031 19.703125 2.832031 19.636719 2.46875 M 17.480469 9.175781 C 16.71875 9.96875 14.597656 11.542969 13.765625 10.113281 C 13.296875 9.328125 13.621094 8.355469 13.941406 7.582031 C 14.960938 5.109375 16.910156 3.207031 19.117188 1.769531 C 17.953125 1.414062 16.808594 2.132812 15.859375 2.730469 C 13.222656 4.386719 10.992188 6.992188 9.128906 9.464844 C 6.96875 12.339844 4.339844 16.800781 4.121094 20.449219 C 3.996094 22.515625 5.296875 24.179688 7.445312 23.160156 C 9.84375 22.023438 12.546875 18.011719 12.722656 15.378906 C 12.855469 13.523438 11.492188 13.941406 10.628906 14.945312 C 9.871094 15.84375 9.410156 17.007812 9.179688 18.140625 C 7.972656 18.695312 6.933594 19.558594 6.023438 20.511719 C 6.007812 20.179688 6.085938 19.824219 6.144531 19.496094 C 6.605469 17.117188 7.917969 14.425781 10.183594 13.316406 C 13.542969 11.675781 13.902344 14.617188 13.09375 17.136719 C 12.085938 20.261719 8.363281 25.109375 4.839844 25.355469 C 0.898438 25.628906 0.34375 21.203125 1.121094 18.277344 C 2.75 12.234375 8.898438 4.25 14.625 1.585938 C 16.136719 0.882812 18.171875 0.09375 19.699219 1.121094 C 19.808594 1.195312 19.875 1.339844 20.003906 1.332031 C 20.363281 1.210938 20.710938 1.058594 21.074219 0.949219 C 24.242188 0.0195312 26.269531 1.292969 28.890625 2.804688 C 29.558594 3.1875 30.238281 3.585938 30.867188 4.015625 L 29.03125 5.980469 C 26.726562 4.84375 24.667969 2.796875 22.121094 2.1875 C 21.601562 2.066406 20.847656 1.949219 20.382812 2.230469 C 20.519531 3.589844 20.082031 4.988281 19.511719 6.207031 C 19.054688 7.199219 18.234375 8.382812 17.472656 9.167969 " clip-rule="nonzero"/></clipPath><clipPath id="998f1aed2b"><rect x="0" width="31" y="0" height="26"/></clipPath><clipPath id="0b9977559c"><path d="M 6.171875 4.523438 L 39.851562 4.523438 L 39.851562 29.914062 L 6.171875 29.914062 Z M 6.171875 4.523438 " clip-rule="nonzero"/></clipPath><clipPath id="6fa71d22ea"><path d="M 16.957031 9.070312 C 13.609375 12.503906 9.257812 18.878906 9.59375 23.875 C 9.847656 27.6875 13.25 28.335938 16.417969 27.816406 C 22.34375 26.84375 29.75 23.265625 35.492188 26.417969 C 36.722656 27.097656 38.585938 28.480469 39.5 29.527344 C 39.535156 29.566406 39.769531 29.847656 39.742188 29.875 C 37.933594 28.644531 35.683594 27.925781 33.472656 28.082031 C 32.609375 28.144531 31.769531 28.527344 31.160156 29.136719 C 31 29.292969 30.851562 29.5625 30.714844 29.699219 C 30.679688 29.730469 30.671875 29.757812 30.613281 29.746094 C 30.253906 28.964844 29.523438 28.300781 28.777344 27.890625 C 24.308594 25.40625 17.601562 29.066406 12.851562 29.355469 C 8 29.648438 5.753906 26.28125 6.273438 21.730469 C 6.992188 15.394531 12.945312 7.871094 18.742188 5.328125 C 19.796875 4.859375 21.660156 4.292969 22.761719 4.691406 C 24.675781 5.382812 24.007812 7.925781 22.945312 9.089844 C 22.5 9.582031 21.386719 9.992188 21.226562 9.054688 C 21.0625 8.078125 22.027344 6.894531 23.054688 6.929688 C 23.492188 5.839844 22.5625 5.585938 21.667969 5.796875 C 19.914062 6.222656 18.191406 7.816406 16.964844 9.070312 " clip-rule="nonzero"/></clipPath><clipPath id="002a67c117"><path d="M 0.171875 0.523438 L 33.851562 0.523438 L 33.851562 25.914062 L 0.171875 25.914062 Z M 0.171875 0.523438 " clip-rule="nonzero"/></clipPath><clipPath id="724ad1dc72"><path d="M 10.957031 5.070312 C 7.609375 8.503906 3.257812 14.878906 3.59375 19.875 C 3.847656 23.6875 7.25 24.335938 10.417969 23.816406 C 16.34375 22.84375 23.75 19.265625 29.492188 22.417969 C 30.722656 23.097656 32.585938 24.480469 33.5 25.527344 C 33.535156 25.566406 33.769531 25.847656 33.742188 25.875 C 31.933594 24.644531 29.683594 23.925781 27.472656 24.082031 C 26.609375 24.144531 25.769531 24.527344 25.160156 25.136719 C 25 25.292969 24.851562 25.5625 24.714844 25.699219 C 24.679688 25.730469 24.671875 25.757812 24.613281 25.746094 C 24.253906 24.964844 23.523438 24.300781 22.777344 23.890625 C 18.308594 21.40625 11.601562 25.066406 6.851562 25.355469 C 2 25.648438 -0.246094 22.28125 0.273438 17.730469 C 0.992188 11.394531 6.945312 3.871094 12.742188 1.328125 C 13.796875 0.859375 15.660156 0.292969 16.761719 0.691406 C 18.675781 1.382812 18.007812 3.925781 16.945312 5.089844 C 16.5 5.582031 15.386719 5.992188 15.226562 5.054688 C 15.0625 4.078125 16.027344 2.894531 17.054688 2.929688 C 17.492188 1.839844 16.5625 1.585938 15.667969 1.796875 C 13.914062 2.222656 12.191406 3.816406 10.964844 5.070312 " clip-rule="nonzero"/></clipPath><clipPath id="d5a563c87a"><rect x="0" width="34" y="0" height="26"/></clipPath><clipPath id="cf6cdb368d"><path d="M 72.53125 4.648438 L 83.84375 4.648438 L 83.84375 11.3125 L 72.53125 11.3125 Z M 72.53125 4.648438 " clip-rule="nonzero"/></clipPath><clipPath id="7f35e4bd92"><path d="M 72.652344 11.054688 L 74.363281 8.925781 C 75.507812 9.015625 76.625 8.914062 77.71875 8.589844 C 80.03125 7.90625 82.121094 6.378906 83.796875 4.683594 C 83.582031 5.128906 83.324219 5.550781 83.042969 5.960938 C 81.960938 7.558594 80.511719 8.933594 78.839844 9.890625 C 76.984375 10.953125 74.777344 11.574219 72.648438 11.0625 " clip-rule="nonzero"/></clipPath><clipPath id="6cc6295560"><path d="M 0.59375 0.648438 L 11.84375 0.648438 L 11.84375 7.3125 L 0.59375 7.3125 Z M 0.59375 0.648438 " clip-rule="nonzero"/></clipPath><clipPath id="422cd65582"><path d="M 0.652344 7.054688 L 2.363281 4.925781 C 3.507812 5.015625 4.625 4.914062 5.71875 4.589844 C 8.03125 3.90625 10.121094 2.378906 11.796875 0.683594 C 11.582031 1.128906 11.324219 1.550781 11.042969 1.960938 C 9.960938 3.558594 8.511719 4.933594 6.839844 5.890625 C 4.984375 6.953125 2.777344 7.574219 0.648438 7.0625 " clip-rule="nonzero"/></clipPath><clipPath id="b1c60730b9"><rect x="0" width="12" y="0" height="8"/></clipPath><clipPath id="c5c4767c83"><path d="M 43 11 L 46.765625 11 L 46.765625 13.195312 L 43 13.195312 Z M 43 11 " clip-rule="nonzero"/></clipPath><clipPath id="fac1513a02"><path d="M 46.652344 11.011719 C 46.222656 11.703125 45.757812 12.390625 45.386719 13.109375 L 43.066406 13.109375 L 44.355469 11.011719 Z M 46.652344 11.011719 " clip-rule="nonzero"/></clipPath><clipPath id="d0dc47ad5a"><path d="M 0 0 L 3.765625 0 L 3.765625 2.195312 L 0 2.195312 Z M 0 0 " clip-rule="nonzero"/></clipPath><clipPath id="d26f430e65"><path d="M 3.652344 0.0117188 C 3.222656 0.703125 2.757812 1.390625 2.386719 2.109375 L 0.0664062 2.109375 L 1.355469 0.0117188 Z M 3.652344 0.0117188 " clip-rule="nonzero"/></clipPath><clipPath id="014496179a"><rect x="0" width="4" y="0" height="3"/></clipPath></defs><g clip-path="url(#aa5cf25935)"><g clip-path="url(#1d26e441d6)"><g transform="matrix(1, 0, 0, 1, 52, 4)"><g clip-path="url(#88c8bedf60)"><g clip-path="url(#ecbb9d5bf4)"><g clip-path="url(#482b940f94)"><rect x="-71.8" width="129.6" fill="#939393" height="54" y="-12.25" fill-opacity="1"/></g></g></g></g></g></g><g clip-path="url(#e14fa5aba2)"><g clip-path="url(#ad4750acec)"><g transform="matrix(1, 0, 0, 1, 14, 10)"><g clip-path="url(#a5ef4f2045)"><g clip-path="url(#1a7936e15a)"><g clip-path="url(#6be25f58b3)"><rect x="-33.8" width="129.6" fill="#939393" height="54" y="-18.25" fill-opacity="1"/></g></g></g></g></g></g><g clip-path="url(#6340aa88a2)"><g clip-path="url(#cae1d05384)"><g transform="matrix(1, 0, 0, 1, 41, 4)"><g clip-path="url(#998f1aed2b)"><g clip-path="url(#8c7092a1e5)"><g clip-path="url(#976742870e)"><rect x="-60.8" width="129.6" fill="#939393" height="54" y="-12.25" fill-opacity="1"/></g></g></g></g></g></g><g clip-path="url(#0b9977559c)"><g clip-path="url(#6fa71d22ea)"><g transform="matrix(1, 0, 0, 1, 6, 4)"><g clip-path="url(#d5a563c87a)"><g clip-path="url(#002a67c117)"><g clip-path="url(#724ad1dc72)"><rect x="-25.8" width="129.6" fill="#939393" height="54" y="-12.25" fill-opacity="1"/></g></g></g></g></g></g><g clip-path="url(#cf6cdb368d)"><g clip-path="url(#7f35e4bd92)"><g transform="matrix(1, 0, 0, 1, 72, 4)"><g clip-path="url(#b1c60730b9)"><g clip-path="url(#6cc6295560)"><g clip-path="url(#422cd65582)"><rect x="-91.8" width="129.6" fill="#939393" height="54" y="-12.25" fill-opacity="1"/></g></g></g></g></g></g><g clip-path="url(#c5c4767c83)"><g clip-path="url(#fac1513a02)"><g transform="matrix(1, 0, 0, 1, 43, 11)"><g clip-path="url(#014496179a)"><g clip-path="url(#d0dc47ad5a)"><g clip-path="url(#d26f430e65)"><rect x="-62.8" width="129.6" fill="#939393" height="54" y="-19.25" fill-opacity="1"/></g></g></g></g></g></g></svg>