<svg xmlns="http://www.w3.org/2000/svg" xmlns:xlink="http://www.w3.org/1999/xlink" width="120" zoomAndPan="magnify" viewBox="0 0 90 37.5" height="50" preserveAspectRatio="xMidYMid meet" version="1.0"><defs><clipPath id="260f194647"><path d="M 71.074219 16.011719 L 82.722656 16.011719 L 82.722656 28.429688 L 71.074219 28.429688 Z M 71.074219 16.011719 " clip-rule="nonzero"/></clipPath><clipPath id="d040d85f5d"><path d="M 82.699219 25.621094 C 82.597656 26.09375 81.304688 27.121094 80.859375 27.398438 C 76.015625 30.375 69.800781 26.171875 71.332031 20.546875 C 72.527344 16.15625 78.199219 14.691406 81.59375 17.601562 L 79.476562 19.699219 C 76.496094 17.480469 72.515625 21.105469 74.835938 24.207031 C 76.113281 25.902344 80.144531 26.035156 79.867188 23.339844 L 77.578125 23.195312 C 77.433594 22.984375 77.386719 21.070312 77.746094 20.828125 L 82.699219 20.828125 Z M 82.699219 25.621094 " clip-rule="nonzero"/></clipPath><clipPath id="626b8b192e"><path d="M 0.0742188 0.0117188 L 11.722656 0.0117188 L 11.722656 12.429688 L 0.0742188 12.429688 Z M 0.0742188 0.0117188 " clip-rule="nonzero"/></clipPath><clipPath id="6fe368f4e4"><path d="M 11.699219 9.621094 C 11.597656 10.09375 10.304688 11.121094 9.859375 11.398438 C 5.015625 14.375 -1.199219 10.171875 0.332031 4.546875 C 1.527344 0.15625 7.199219 -1.308594 10.59375 1.601562 L 8.476562 3.699219 C 5.496094 1.480469 1.515625 5.105469 3.835938 8.207031 C 5.113281 9.902344 9.144531 10.035156 8.867188 7.339844 L 6.578125 7.195312 C 6.433594 6.984375 6.386719 5.070312 6.746094 4.828125 L 11.699219 4.828125 Z M 11.699219 9.621094 " clip-rule="nonzero"/></clipPath><clipPath id="cc3c23531f"><rect x="0" width="12" y="0" height="13"/></clipPath><clipPath id="82cfc67dc9"><path d="M 21.835938 15.128906 L 33.046875 15.128906 L 33.046875 28.867188 L 21.835938 28.867188 Z M 21.835938 15.128906 " clip-rule="nonzero"/></clipPath><clipPath id="2ad465580e"><path d="M 25 22.234375 L 25 27.898438 L 21.855469 27.898438 L 21.855469 16.578125 L 25 16.578125 L 25 22.078125 L 30.898438 15.164062 L 33.007812 17.417969 L 29.113281 22.023438 L 32.839844 26.742188 L 30.875 28.824219 Z M 25 22.234375 " clip-rule="nonzero"/></clipPath><clipPath id="6c11d7c59b"><path d="M 0.835938 0.15625 L 12.039062 0.15625 L 12.039062 13.867188 L 0.835938 13.867188 Z M 0.835938 0.15625 " clip-rule="nonzero"/></clipPath><clipPath id="92b585f0d9"><path d="M 4 7.234375 L 4 12.898438 L 0.855469 12.898438 L 0.855469 1.578125 L 4 1.578125 L 4 7.078125 L 9.898438 0.164062 L 12.007812 2.417969 L 8.113281 7.023438 L 11.839844 11.742188 L 9.875 13.824219 Z M 4 7.234375 " clip-rule="nonzero"/></clipPath><clipPath id="194ecb61cd"><rect x="0" width="13" y="0" height="14"/></clipPath><clipPath id="f1ae7b5c4a"><path d="M 59.09375 16.558594 L 69.535156 16.558594 L 69.535156 27.988281 L 59.09375 27.988281 Z M 59.09375 16.558594 " clip-rule="nonzero"/></clipPath><clipPath id="ccd7cd511c"><path d="M 69.492188 27.898438 L 66.347656 27.898438 L 66.347656 21.6875 C 66.347656 21.164062 65.953125 20.058594 65.464844 19.746094 C 64.796875 19.3125 63.070312 19.210938 62.417969 19.644531 L 62.417969 27.898438 L 59.117188 27.898438 L 59.117188 16.578125 L 65.800781 16.578125 C 65.933594 16.578125 66.984375 16.96875 67.195312 17.070312 C 68.007812 17.457031 68.652344 18.042969 68.992188 18.890625 C 69.125 19.21875 69.5 20.628906 69.5 20.90625 Z M 69.492188 27.898438 " clip-rule="nonzero"/></clipPath><clipPath id="96feee3ee0"><path d="M 0.09375 0.558594 L 10.511719 0.558594 L 10.511719 11.949219 L 0.09375 11.949219 Z M 0.09375 0.558594 " clip-rule="nonzero"/></clipPath><clipPath id="5203852810"><path d="M 10.492188 11.898438 L 7.347656 11.898438 L 7.347656 5.6875 C 7.347656 5.164062 6.953125 4.058594 6.464844 3.746094 C 5.796875 3.3125 4.070312 3.210938 3.417969 3.644531 L 3.417969 11.898438 L 0.117188 11.898438 L 0.117188 0.578125 L 6.800781 0.578125 C 6.933594 0.578125 7.984375 0.96875 8.195312 1.070312 C 9.007812 1.457031 9.652344 2.042969 9.992188 2.890625 C 10.125 3.21875 10.5 4.628906 10.5 4.90625 Z M 10.492188 11.898438 " clip-rule="nonzero"/></clipPath><clipPath id="dfd0ac0b9f"><rect x="0" width="11" y="0" height="12"/></clipPath><clipPath id="ce8eb8f2a2"><path d="M 46.785156 12 L 50.414062 12 L 50.414062 27.988281 L 46.785156 27.988281 Z M 46.785156 12 " clip-rule="nonzero"/></clipPath><clipPath id="c322a88802"><path d="M 50.152344 12.015625 L 50.152344 27.664062 C 50.152344 27.710938 50.351562 27.785156 50.308594 27.898438 L 46.851562 27.898438 L 46.851562 12.015625 Z M 50.152344 12.015625 " clip-rule="nonzero"/></clipPath><clipPath id="40fc9fa20b"><path d="M 0.785156 0 L 4.414062 0 L 4.414062 15.949219 L 0.785156 15.949219 Z M 0.785156 0 " clip-rule="nonzero"/></clipPath><clipPath id="5b09b5ba6e"><path d="M 4.152344 0.015625 L 4.152344 15.664062 C 4.152344 15.710938 4.351562 15.785156 4.308594 15.898438 L 0.851562 15.898438 L 0.851562 0.015625 Z M 4.152344 0.015625 " clip-rule="nonzero"/></clipPath><clipPath id="92631c4b4f"><rect x="0" width="5" y="0" height="16"/></clipPath><clipPath id="5261a8e58f"><path d="M 40.875 12.015625 L 44.175781 12.015625 L 44.175781 27.898438 L 40.875 27.898438 Z M 40.875 12.015625 " clip-rule="nonzero"/></clipPath><clipPath id="21acec286c"><path d="M 0.875 0.015625 L 4.175781 0.015625 L 4.175781 15.898438 L 0.875 15.898438 Z M 0.875 0.015625 " clip-rule="nonzero"/></clipPath><clipPath id="a187112a0d"><rect x="0" width="5" y="0" height="16"/></clipPath><clipPath id="c34c898289"><path d="M 34.746094 16.578125 L 38.046875 16.578125 L 38.046875 27.898438 L 34.746094 27.898438 Z M 34.746094 16.578125 " clip-rule="nonzero"/></clipPath><clipPath id="605407d73e"><path d="M 0.746094 0.578125 L 4.046875 0.578125 L 4.046875 11.898438 L 0.746094 11.898438 Z M 0.746094 0.578125 " clip-rule="nonzero"/></clipPath><clipPath id="df3712e192"><rect x="0" width="5" y="0" height="12"/></clipPath><clipPath id="4c69eaa079"><path d="M 52.984375 16.578125 L 56.285156 16.578125 L 56.285156 27.898438 L 52.984375 27.898438 Z M 52.984375 16.578125 " clip-rule="nonzero"/></clipPath><clipPath id="752dbdbaed"><path d="M 0.984375 0.578125 L 4.285156 0.578125 L 4.285156 11.898438 L 0.984375 11.898438 Z M 0.984375 0.578125 " clip-rule="nonzero"/></clipPath><clipPath id="3588d4f983"><rect x="0" width="5" y="0" height="12"/></clipPath><clipPath id="22deb56b53"><path d="M 7.21875 10.734375 L 17.550781 10.734375 L 17.550781 28.539062 L 7.21875 28.539062 Z M 7.21875 10.734375 " clip-rule="nonzero"/></clipPath><clipPath id="cb40795d02"><path d="M 8.015625 28.527344 C 6.542969 28.214844 7.621094 26.359375 8.039062 25.488281 C 8.628906 24.25 9.617188 22.867188 10.53125 21.84375 C 11.914062 20.300781 16.457031 17.089844 16.480469 15.09375 C 16.5 13.78125 15.164062 12.292969 16.523438 10.777344 C 17.941406 10.988281 17.003906 11.875 16.96875 12.574219 C 16.921875 13.53125 17.613281 14.460938 17.4375 15.707031 C 17.15625 17.71875 12.472656 21.207031 11.011719 22.957031 C 9.695312 24.523438 8.472656 26.527344 8.015625 28.535156 " clip-rule="nonzero"/></clipPath><clipPath id="cc83932970"><path d="M 0.21875 0.734375 L 10.550781 0.734375 L 10.550781 18.539062 L 0.21875 18.539062 Z M 0.21875 0.734375 " clip-rule="nonzero"/></clipPath><clipPath id="45d0094c94"><path d="M 1.015625 18.527344 C -0.457031 18.214844 0.621094 16.359375 1.039062 15.488281 C 1.628906 14.25 2.617188 12.867188 3.53125 11.84375 C 4.914062 10.300781 9.457031 7.089844 9.480469 5.09375 C 9.5 3.78125 8.164062 2.292969 9.523438 0.777344 C 10.941406 0.988281 10.003906 1.875 9.96875 2.574219 C 9.921875 3.53125 10.613281 4.460938 10.4375 5.707031 C 10.15625 7.71875 5.472656 11.207031 4.011719 12.957031 C 2.695312 14.523438 1.472656 16.527344 1.015625 18.535156 " clip-rule="nonzero"/></clipPath><clipPath id="7e72798f80"><rect x="0" width="11" y="0" height="19"/></clipPath><clipPath id="3ab82a8800"><path d="M 6.890625 7.21875 L 17 7.21875 L 17 24.800781 L 6.890625 24.800781 Z M 6.890625 7.21875 " clip-rule="nonzero"/></clipPath><clipPath id="56d3379dce"><path d="M 16.980469 7.769531 C 13.542969 8.359375 11.652344 11.316406 10.347656 14.269531 C 8.871094 17.605469 8.195312 21.128906 7.859375 24.753906 C 7.300781 24.574219 6.921875 24.433594 6.929688 23.75 C 6.972656 18.945312 10.347656 8.15625 15.996094 7.335938 C 16.421875 7.277344 16.992188 7.175781 16.980469 7.769531 " clip-rule="nonzero"/></clipPath><clipPath id="e37c2132a0"><path d="M 0.890625 0.21875 L 11 0.21875 L 11 17.800781 L 0.890625 17.800781 Z M 0.890625 0.21875 " clip-rule="nonzero"/></clipPath><clipPath id="58c59b1466"><path d="M 10.980469 0.769531 C 7.542969 1.359375 5.652344 4.316406 4.347656 7.269531 C 2.871094 10.605469 2.195312 14.128906 1.859375 17.753906 C 1.300781 17.574219 0.921875 17.433594 0.929688 16.75 C 0.972656 11.945312 4.347656 1.15625 9.996094 0.335938 C 10.421875 0.277344 10.992188 0.175781 10.980469 0.769531 " clip-rule="nonzero"/></clipPath><clipPath id="56eca2658f"><rect x="0" width="11" y="0" height="18"/></clipPath><clipPath id="3dc4cbaadc"><path d="M 17.222656 6.667969 L 27.992188 6.667969 L 27.992188 12.710938 L 17.222656 12.710938 Z M 17.222656 6.667969 " clip-rule="nonzero"/></clipPath><clipPath id="0ce4ec2eaa"><path d="M 26.886719 12.644531 C 27.019531 11.054688 25.414062 11.355469 24.488281 10.878906 C 23.113281 10.167969 24.574219 8.917969 24.84375 9.183594 L 24.699219 10.109375 L 26.414062 10.597656 C 25.355469 7.609375 21.488281 7.363281 18.789062 7.457031 C 18.542969 7.46875 17.128906 7.902344 17.292969 7.222656 C 17.335938 7.054688 17.851562 6.898438 18.039062 6.863281 C 20.09375 6.484375 24.074219 6.753906 25.835938 7.949219 C 27.132812 8.835938 28.304688 10.714844 27.910156 12.328125 Z M 26.886719 12.644531 " clip-rule="nonzero"/></clipPath><clipPath id="ac2185e471"><path d="M 0.222656 0.667969 L 10.992188 0.667969 L 10.992188 6.710938 L 0.222656 6.710938 Z M 0.222656 0.667969 " clip-rule="nonzero"/></clipPath><clipPath id="1491d7de08"><path d="M 9.886719 6.644531 C 10.019531 5.054688 8.414062 5.355469 7.488281 4.878906 C 6.113281 4.167969 7.574219 2.917969 7.84375 3.183594 L 7.699219 4.109375 L 9.414062 4.597656 C 8.355469 1.609375 4.488281 1.363281 1.789062 1.457031 C 1.542969 1.46875 0.128906 1.902344 0.292969 1.222656 C 0.335938 1.054688 0.851562 0.898438 1.039062 0.863281 C 3.09375 0.484375 7.074219 0.753906 8.835938 1.949219 C 10.132812 2.835938 11.304688 4.714844 10.910156 6.328125 Z M 9.886719 6.644531 " clip-rule="nonzero"/></clipPath><clipPath id="747615e477"><rect x="0" width="11" y="0" height="7"/></clipPath><clipPath id="d07fb36fb7"><path d="M 13.484375 13.59375 L 20.1875 13.59375 L 20.1875 22.496094 L 13.484375 22.496094 Z M 13.484375 13.59375 " clip-rule="nonzero"/></clipPath><clipPath id="aa11b6798e"><path d="M 13.523438 22.390625 C 13.457031 21.085938 14.726562 19.902344 15.652344 19.097656 C 17.390625 17.574219 20.785156 16.578125 17.929688 13.980469 C 19.230469 12.664062 20.285156 15.164062 20.117188 16.324219 C 19.882812 17.929688 16.558594 19.410156 15.339844 20.507812 C 14.730469 21.054688 14.527344 21.53125 14.066406 22.066406 C 13.910156 22.246094 13.824219 22.449219 13.53125 22.390625 " clip-rule="nonzero"/></clipPath><clipPath id="f46149d557"><path d="M 0.484375 0.59375 L 7.1875 0.59375 L 7.1875 9.496094 L 0.484375 9.496094 Z M 0.484375 0.59375 " clip-rule="nonzero"/></clipPath><clipPath id="8e4e1136bb"><path d="M 0.523438 9.390625 C 0.457031 8.085938 1.726562 6.902344 2.652344 6.097656 C 4.390625 4.574219 7.785156 3.578125 4.929688 0.980469 C 6.230469 -0.335938 7.285156 2.164062 7.117188 3.324219 C 6.882812 4.929688 3.558594 6.410156 2.339844 7.507812 C 1.730469 8.054688 1.527344 8.53125 1.066406 9.066406 C 0.910156 9.246094 0.824219 9.449219 0.53125 9.390625 " clip-rule="nonzero"/></clipPath><clipPath id="1d1e5e2185"><rect x="0" width="8" y="0" height="10"/></clipPath><clipPath id="6d3e22a9fa"><path d="M 53 12.273438 L 56.347656 12.273438 L 56.347656 15.570312 L 53 15.570312 Z M 53 12.273438 " clip-rule="nonzero"/></clipPath><clipPath id="1d27e1e300"><path d="M 54.359375 12.363281 C 56.644531 11.984375 56.902344 15.058594 55.234375 15.441406 C 52.59375 16.042969 52.3125 12.699219 54.359375 12.363281 " clip-rule="nonzero"/></clipPath><clipPath id="27d6f48732"><path d="M 0 0.273438 L 3.347656 0.273438 L 3.347656 3.570312 L 0 3.570312 Z M 0 0.273438 " clip-rule="nonzero"/></clipPath><clipPath id="536cae4e50"><path d="M 1.359375 0.363281 C 3.644531 -0.015625 3.902344 3.058594 2.234375 3.441406 C -0.40625 4.042969 -0.6875 0.699219 1.359375 0.363281 " clip-rule="nonzero"/></clipPath><clipPath id="85578665ff"><rect x="0" width="4" y="0" height="4"/></clipPath><clipPath id="af2c3f5d16"><path d="M 18.320312 11.503906 L 26.671875 11.503906 L 26.671875 13.152344 L 18.320312 13.152344 Z M 18.320312 11.503906 " clip-rule="nonzero"/></clipPath><clipPath id="5566be40f8"><path d="M 18.597656 12.597656 C 18.421875 12.394531 18.375 12.117188 18.394531 11.859375 C 18.953125 11.757812 19 12.328125 19.546875 12.320312 C 20.664062 12.316406 22.257812 11.625 23.496094 11.535156 C 24.5625 11.460938 27.457031 11.402344 26.328125 13.109375 C 24.632812 11.671875 19.84375 14.066406 18.597656 12.59375 " clip-rule="nonzero"/></clipPath><clipPath id="7ad082f658"><path d="M 0.355469 0.503906 L 8.671875 0.503906 L 8.671875 2.152344 L 0.355469 2.152344 Z M 0.355469 0.503906 " clip-rule="nonzero"/></clipPath><clipPath id="80b3206898"><path d="M 0.597656 1.597656 C 0.421875 1.394531 0.375 1.117188 0.394531 0.859375 C 0.953125 0.757812 1 1.328125 1.546875 1.320312 C 2.664062 1.316406 4.257812 0.625 5.496094 0.535156 C 6.5625 0.460938 9.457031 0.402344 8.328125 2.109375 C 6.632812 0.671875 1.84375 3.066406 0.597656 1.59375 " clip-rule="nonzero"/></clipPath><clipPath id="596545bb34"><rect x="0" width="9" y="0" height="3"/></clipPath><clipPath id="bbe42e4b1b"><path d="M 34.695312 12.273438 L 38.210938 12.273438 L 38.210938 15.570312 L 34.695312 15.570312 Z M 34.695312 12.273438 " clip-rule="nonzero"/></clipPath><clipPath id="448bd595ba"><path d="M 37.683594 12.851562 C 39.257812 14.636719 36.234375 16.582031 35.058594 14.925781 C 33.800781 13.15625 36.410156 11.40625 37.683594 12.851562 " clip-rule="nonzero"/></clipPath><clipPath id="0399cd5f52"><path d="M 0.695312 0.273438 L 4.210938 0.273438 L 4.210938 3.570312 L 0.695312 3.570312 Z M 0.695312 0.273438 " clip-rule="nonzero"/></clipPath><clipPath id="6c8230a4d1"><path d="M 3.683594 0.851562 C 5.257812 2.636719 2.234375 4.582031 1.058594 2.925781 C -0.199219 1.15625 2.410156 -0.59375 3.683594 0.851562 " clip-rule="nonzero"/></clipPath><clipPath id="14e8716e73"><rect x="0" width="5" y="0" height="4"/></clipPath><clipPath id="261a4eaf47"><path d="M 16.78125 9.304688 L 18.320312 9.304688 L 18.320312 10.84375 L 16.78125 10.84375 Z M 16.78125 9.304688 " clip-rule="nonzero"/></clipPath><clipPath id="ccd69bdd09"><path d="M 17.550781 9.382812 C 18.519531 9.292969 18.601562 11.214844 17.238281 10.734375 C 16.589844 10.507812 16.867188 9.441406 17.550781 9.382812 " clip-rule="nonzero"/></clipPath><clipPath id="8c09f78ff9"><path d="M 0.78125 0.304688 L 2.320312 0.304688 L 2.320312 1.84375 L 0.78125 1.84375 Z M 0.78125 0.304688 " clip-rule="nonzero"/></clipPath><clipPath id="a2d9cf8467"><path d="M 1.550781 0.382812 C 2.519531 0.292969 2.601562 2.214844 1.238281 1.734375 C 0.589844 1.507812 0.867188 0.441406 1.550781 0.382812 " clip-rule="nonzero"/></clipPath><clipPath id="f4452bc412"><rect x="0" width="3" y="0" height="2"/></clipPath></defs><g clip-path="url(#260f194647)"><g clip-path="url(#d040d85f5d)"><g transform="matrix(1, 0, 0, 1, 71, 16)"><g clip-path="url(#cc3c23531f)"><g clip-path="url(#626b8b192e)"><g clip-path="url(#6fe368f4e4)"><rect x="-90.8" width="129.6" fill="#939393" height="54" y="-24.25" fill-opacity="1"/></g></g></g></g></g></g><g clip-path="url(#82cfc67dc9)"><g clip-path="url(#2ad465580e)"><g transform="matrix(1, 0, 0, 1, 21, 15)"><g clip-path="url(#194ecb61cd)"><g clip-path="url(#6c11d7c59b)"><g clip-path="url(#92b585f0d9)"><rect x="-40.8" width="129.6" fill="#939393" height="54" y="-23.25" fill-opacity="1"/></g></g></g></g></g></g><g clip-path="url(#f1ae7b5c4a)"><g clip-path="url(#ccd7cd511c)"><g transform="matrix(1, 0, 0, 1, 59, 16)"><g clip-path="url(#dfd0ac0b9f)"><g clip-path="url(#96feee3ee0)"><g clip-path="url(#5203852810)"><rect x="-78.8" width="129.6" fill="#939393" height="54" y="-24.25" fill-opacity="1"/></g></g></g></g></g></g><g clip-path="url(#ce8eb8f2a2)"><g clip-path="url(#c322a88802)"><g transform="matrix(1, 0, 0, 1, 46, 12)"><g clip-path="url(#92631c4b4f)"><g clip-path="url(#40fc9fa20b)"><g clip-path="url(#5b09b5ba6e)"><rect x="-65.8" width="129.6" fill="#939393" height="54" y="-20.25" fill-opacity="1"/></g></g></g></g></g></g><g clip-path="url(#5261a8e58f)"><g transform="matrix(1, 0, 0, 1, 40, 12)"><g clip-path="url(#a187112a0d)"><g clip-path="url(#21acec286c)"><rect x="-59.8" width="129.6" fill="#939393" height="54" y="-20.25" fill-opacity="1"/></g></g></g></g><g clip-path="url(#c34c898289)"><g transform="matrix(1, 0, 0, 1, 34, 16)"><g clip-path="url(#df3712e192)"><g clip-path="url(#605407d73e)"><rect x="-53.8" width="129.6" fill="#939393" height="54" y="-24.25" fill-opacity="1"/></g></g></g></g><g clip-path="url(#4c69eaa079)"><g transform="matrix(1, 0, 0, 1, 52, 16)"><g clip-path="url(#3588d4f983)"><g clip-path="url(#752dbdbaed)"><rect x="-71.8" width="129.6" fill="#939393" height="54" y="-24.25" fill-opacity="1"/></g></g></g></g><g clip-path="url(#22deb56b53)"><g clip-path="url(#cb40795d02)"><g transform="matrix(1, 0, 0, 1, 7, 10)"><g clip-path="url(#7e72798f80)"><g clip-path="url(#cc83932970)"><g clip-path="url(#45d0094c94)"><rect x="-26.8" width="129.6" fill="#939393" height="54" y="-18.25" fill-opacity="1"/></g></g></g></g></g></g><g clip-path="url(#3ab82a8800)"><g clip-path="url(#56d3379dce)"><g transform="matrix(1, 0, 0, 1, 6, 7)"><g clip-path="url(#56eca2658f)"><g clip-path="url(#e37c2132a0)"><g clip-path="url(#58c59b1466)"><rect x="-25.8" width="129.6" fill="#939393" height="54" y="-15.25" fill-opacity="1"/></g></g></g></g></g></g><g clip-path="url(#3dc4cbaadc)"><g clip-path="url(#0ce4ec2eaa)"><g transform="matrix(1, 0, 0, 1, 17, 6)"><g clip-path="url(#747615e477)"><g clip-path="url(#ac2185e471)"><g clip-path="url(#1491d7de08)"><rect x="-36.8" width="129.6" fill="#939393" height="54" y="-14.25" fill-opacity="1"/></g></g></g></g></g></g><g clip-path="url(#d07fb36fb7)"><g clip-path="url(#aa11b6798e)"><g transform="matrix(1, 0, 0, 1, 13, 13)"><g clip-path="url(#1d1e5e2185)"><g clip-path="url(#f46149d557)"><g clip-path="url(#8e4e1136bb)"><rect x="-32.8" width="129.6" fill="#939393" height="54" y="-21.25" fill-opacity="1"/></g></g></g></g></g></g><g clip-path="url(#6d3e22a9fa)"><g clip-path="url(#1d27e1e300)"><g transform="matrix(1, 0, 0, 1, 53, 12)"><g clip-path="url(#85578665ff)"><g clip-path="url(#27d6f48732)"><g clip-path="url(#536cae4e50)"><rect x="-72.8" width="129.6" fill="#939393" height="54" y="-20.25" fill-opacity="1"/></g></g></g></g></g></g><g clip-path="url(#af2c3f5d16)"><g clip-path="url(#5566be40f8)"><g transform="matrix(1, 0, 0, 1, 18, 11)"><g clip-path="url(#596545bb34)"><g clip-path="url(#7ad082f658)"><g clip-path="url(#80b3206898)"><rect x="-37.8" width="129.6" fill="#939393" height="54" y="-19.25" fill-opacity="1"/></g></g></g></g></g></g><g clip-path="url(#bbe42e4b1b)"><g clip-path="url(#448bd595ba)"><g transform="matrix(1, 0, 0, 1, 34, 12)"><g clip-path="url(#14e8716e73)"><g clip-path="url(#0399cd5f52)"><g clip-path="url(#6c8230a4d1)"><rect x="-53.8" width="129.6" fill="#939393" height="54" y="-20.25" fill-opacity="1"/></g></g></g></g></g></g><g clip-path="url(#261a4eaf47)"><g clip-path="url(#ccd69bdd09)"><g transform="matrix(1, 0, 0, 1, 16, 9)"><g clip-path="url(#f4452bc412)"><g clip-path="url(#8c09f78ff9)"><g clip-path="url(#a2d9cf8467)"><rect x="-35.8" width="129.6" fill="#939393" height="54" y="-17.25" fill-opacity="1"/></g></g></g></g></g></g></svg>