<svg xmlns="http://www.w3.org/2000/svg" xmlns:xlink="http://www.w3.org/1999/xlink" width="120" zoomAndPan="magnify" viewBox="0 0 90 37.5" height="50" preserveAspectRatio="xMidYMid meet" version="1.0"><defs><clipPath id="742c9ec366"><path d="M 19.304688 1.355469 L 70.597656 1.355469 L 70.597656 35.652344 L 19.304688 35.652344 Z M 19.304688 1.355469 " clip-rule="nonzero"/></clipPath><clipPath id="93f6d6579a"><path d="M 43.808594 1.933594 C 36.125 2.15625 26.6875 5.0625 22.128906 11.640625 C 17.917969 17.722656 19.960938 24.34375 25.316406 28.792969 C 35.023438 36.855469 52.871094 37.066406 63.140625 29.960938 C 69.382812 25.644531 72.589844 18.546875 67.882812 11.679688 C 62.902344 4.398438 52.191406 1.695312 43.808594 1.933594 M 43.496094 1.519531 C 52.039062 1.230469 62.964844 3.90625 68.125 11.257812 C 72.710938 17.796875 70.378906 24.859375 64.492188 29.476562 C 54.421875 37.382812 36.476562 37.46875 26.160156 29.984375 C 20.195312 25.648438 17.191406 18.671875 21.453125 11.898438 C 25.820312 4.957031 35.675781 1.785156 43.503906 1.523438 " clip-rule="nonzero"/></clipPath><clipPath id="68ef5df5cd"><path d="M 0.304688 0.355469 L 51.597656 0.355469 L 51.597656 34.652344 L 0.304688 34.652344 Z M 0.304688 0.355469 " clip-rule="nonzero"/></clipPath><clipPath id="5756be299f"><path d="M 24.808594 0.933594 C 17.125 1.15625 7.6875 4.0625 3.128906 10.640625 C -1.082031 16.722656 0.960938 23.34375 6.316406 27.792969 C 16.023438 35.855469 33.871094 36.066406 44.140625 28.960938 C 50.382812 24.644531 53.589844 17.546875 48.882812 10.679688 C 43.902344 3.398438 33.191406 0.695312 24.808594 0.933594 M 24.496094 0.519531 C 33.039062 0.230469 43.964844 2.90625 49.125 10.257812 C 53.710938 16.796875 51.378906 23.859375 45.492188 28.476562 C 35.421875 36.382812 17.476562 36.46875 7.160156 28.984375 C 1.195312 24.648438 -1.808594 17.671875 2.453125 10.898438 C 6.820312 3.957031 16.675781 0.785156 24.503906 0.523438 " clip-rule="nonzero"/></clipPath><clipPath id="0b5d11386d"><rect x="0" width="52" y="0" height="35"/></clipPath><clipPath id="ebc9a377d1"><path d="M 46.230469 11.28125 L 63.378906 11.28125 L 63.378906 26.625 L 46.230469 26.625 Z M 46.230469 11.28125 " clip-rule="nonzero"/></clipPath><clipPath id="20d6ac945e"><path d="M 48.46875 11.457031 C 49.640625 11.507812 50.921875 11.359375 52.078125 11.449219 C 52.570312 11.484375 52.921875 11.640625 53.015625 12.164062 L 54.484375 19.730469 C 54.652344 20.1875 54.949219 20.089844 55.125 19.699219 C 55.3125 19.265625 55.476562 18.632812 55.625 18.164062 C 56.132812 16.554688 56.558594 14.917969 57.089844 13.3125 C 57.328125 12.59375 57.492188 11.496094 58.421875 11.476562 C 59.753906 11.546875 61.175781 11.386719 62.496094 11.476562 C 62.703125 11.488281 63.011719 11.523438 63.148438 11.683594 C 63.457031 12.019531 63.289062 12.863281 63.273438 13.285156 C 63.097656 16.878906 62.878906 20.460938 62.683594 24.046875 C 62.648438 24.632812 62.671875 25.265625 62.613281 25.839844 C 62.574219 26.246094 62.332031 26.410156 61.941406 26.445312 C 61.398438 26.5 60.320312 26.492188 59.769531 26.445312 C 59.058594 26.386719 59.105469 25.964844 59.128906 25.359375 C 59.148438 25.011719 59.203125 24.609375 59.234375 24.253906 C 59.445312 22.109375 59.8125 19.980469 60.0625 17.839844 C 60.046875 17.394531 59.675781 17.292969 59.410156 17.628906 C 58.351562 20.3125 57.484375 23.082031 56.449219 25.777344 C 56.246094 26.097656 55.921875 26.367188 55.53125 26.410156 C 54.953125 26.46875 53.691406 26.46875 53.113281 26.410156 C 52.558594 26.355469 52.453125 25.996094 52.347656 25.515625 C 51.808594 23.03125 51.691406 20.324219 51.1875 17.820312 C 51.121094 17.359375 50.636719 17.21875 50.488281 17.707031 L 49.578125 25.59375 C 49.46875 26.105469 49.082031 26.398438 48.5625 26.410156 C 48.445312 26.410156 48.355469 26.375 48.257812 26.375 C 47.882812 26.375 46.777344 26.441406 46.503906 26.332031 C 46.128906 26.183594 46.257812 25.714844 46.238281 25.394531 C 46.882812 21.101562 47.140625 16.71875 47.792969 12.429688 C 47.859375 11.992188 47.929688 11.492188 48.46875 11.453125 " clip-rule="nonzero"/></clipPath><clipPath id="45df3db973"><path d="M 0.230469 0.28125 L 17.378906 0.28125 L 17.378906 15.527344 L 0.230469 15.527344 Z M 0.230469 0.28125 " clip-rule="nonzero"/></clipPath><clipPath id="b9288dc743"><path d="M 2.46875 0.457031 C 3.640625 0.507812 4.921875 0.359375 6.078125 0.449219 C 6.570312 0.484375 6.921875 0.640625 7.015625 1.164062 L 8.484375 8.730469 C 8.652344 9.1875 8.949219 9.089844 9.125 8.699219 C 9.3125 8.265625 9.476562 7.632812 9.625 7.164062 C 10.132812 5.554688 10.558594 3.917969 11.089844 2.3125 C 11.328125 1.59375 11.492188 0.496094 12.421875 0.476562 C 13.753906 0.546875 15.175781 0.386719 16.496094 0.476562 C 16.703125 0.488281 17.011719 0.523438 17.148438 0.683594 C 17.457031 1.019531 17.289062 1.863281 17.273438 2.285156 C 17.097656 5.878906 16.878906 9.460938 16.683594 13.046875 C 16.648438 13.632812 16.671875 14.265625 16.613281 14.839844 C 16.574219 15.246094 16.332031 15.410156 15.941406 15.445312 C 15.398438 15.5 14.320312 15.492188 13.769531 15.445312 C 13.058594 15.386719 13.105469 14.964844 13.128906 14.359375 C 13.148438 14.011719 13.203125 13.609375 13.234375 13.253906 C 13.445312 11.109375 13.8125 8.980469 14.0625 6.839844 C 14.046875 6.394531 13.675781 6.292969 13.410156 6.628906 C 12.351562 9.3125 11.484375 12.082031 10.449219 14.777344 C 10.246094 15.097656 9.921875 15.367188 9.53125 15.410156 C 8.953125 15.46875 7.691406 15.46875 7.113281 15.410156 C 6.558594 15.355469 6.453125 14.996094 6.347656 14.515625 C 5.808594 12.03125 5.691406 9.324219 5.1875 6.820312 C 5.121094 6.359375 4.636719 6.21875 4.488281 6.707031 L 3.578125 14.59375 C 3.46875 15.105469 3.082031 15.398438 2.5625 15.410156 C 2.445312 15.410156 2.355469 15.375 2.257812 15.375 C 1.882812 15.375 0.777344 15.441406 0.503906 15.332031 C 0.128906 15.183594 0.257812 14.714844 0.238281 14.394531 C 0.882812 10.101562 1.140625 5.71875 1.792969 1.429688 C 1.859375 0.992188 1.929688 0.492188 2.46875 0.453125 " clip-rule="nonzero"/></clipPath><clipPath id="840a235fd7"><rect x="0" width="18" y="0" height="16"/></clipPath><clipPath id="2a7197d91f"><path d="M 26.523438 11.28125 L 36.601562 11.28125 L 36.601562 26.476562 L 26.523438 26.476562 Z M 26.523438 11.28125 " clip-rule="nonzero"/></clipPath><clipPath id="f9f6e43730"><path d="M 31.949219 11.351562 C 32.929688 11.304688 35.417969 11.292969 36.113281 12.066406 C 36.183594 12.140625 36.257812 12.269531 36.292969 12.367188 C 36.414062 12.6875 36.460938 13.570312 36.472656 13.945312 C 36.480469 14.179688 36.535156 14.738281 36.308594 14.855469 C 36.070312 14.980469 35.355469 14.691406 35.0625 14.628906 C 34.125 14.421875 32.769531 14.214844 31.953125 14.847656 C 31.167969 15.453125 31.632812 16.226562 32.171875 16.792969 C 33.988281 18.699219 37.328125 20.074219 36.304688 23.371094 C 35.347656 26.476562 31.621094 26.585938 28.9375 26.238281 C 28.578125 26.191406 27.480469 26.054688 27.230469 25.878906 C 27.015625 25.730469 26.902344 25.460938 26.855469 25.214844 C 26.734375 24.527344 26.8125 23.71875 26.675781 23.015625 C 26.671875 22.832031 26.65625 22.585938 26.902344 22.582031 C 27.136719 22.578125 27.695312 22.855469 27.960938 22.9375 C 28.929688 23.246094 30.234375 23.472656 31.226562 23.1875 C 32.386719 22.859375 32.457031 21.921875 31.695312 21.101562 C 29.820312 19.085938 26.347656 17.46875 27.445312 14.128906 C 28.101562 12.140625 30.019531 11.453125 31.949219 11.351562 " clip-rule="nonzero"/></clipPath><clipPath id="f839a2f8d8"><path d="M 0.523438 0.28125 L 10.601562 0.28125 L 10.601562 15.476562 L 0.523438 15.476562 Z M 0.523438 0.28125 " clip-rule="nonzero"/></clipPath><clipPath id="248b2d7468"><path d="M 5.949219 0.351562 C 6.929688 0.304688 9.417969 0.292969 10.113281 1.066406 C 10.183594 1.140625 10.257812 1.269531 10.292969 1.367188 C 10.414062 1.6875 10.460938 2.570312 10.472656 2.945312 C 10.480469 3.179688 10.535156 3.738281 10.308594 3.855469 C 10.070312 3.980469 9.355469 3.691406 9.0625 3.628906 C 8.125 3.421875 6.769531 3.214844 5.953125 3.847656 C 5.167969 4.453125 5.632812 5.226562 6.171875 5.792969 C 7.988281 7.699219 11.328125 9.074219 10.304688 12.371094 C 9.347656 15.476562 5.621094 15.585938 2.9375 15.238281 C 2.578125 15.191406 1.480469 15.054688 1.230469 14.878906 C 1.015625 14.730469 0.902344 14.460938 0.855469 14.214844 C 0.734375 13.527344 0.8125 12.71875 0.675781 12.015625 C 0.671875 11.832031 0.65625 11.585938 0.902344 11.582031 C 1.136719 11.578125 1.695312 11.855469 1.960938 11.9375 C 2.929688 12.246094 4.234375 12.472656 5.226562 12.1875 C 6.386719 11.859375 6.457031 10.921875 5.695312 10.101562 C 3.820312 8.085938 0.347656 6.46875 1.445312 3.128906 C 2.101562 1.140625 4.019531 0.453125 5.949219 0.351562 " clip-rule="nonzero"/></clipPath><clipPath id="5bf31ab3f3"><rect x="0" width="11" y="0" height="16"/></clipPath><clipPath id="8aaccd8239"><path d="M 33.746094 10.230469 L 46.679688 10.230469 L 46.679688 26.625 L 33.746094 26.625 Z M 33.746094 10.230469 " clip-rule="nonzero"/></clipPath><clipPath id="9df30c9117"><path d="M 46.539062 10.3125 C 46.5625 10.324219 46.574219 10.457031 46.582031 10.496094 C 46.609375 10.898438 46.566406 11.402344 46.542969 11.808594 C 46.277344 16.464844 45.042969 21.070312 42.523438 25 C 42.320312 25.3125 41.722656 26.28125 41.484375 26.484375 C 41.222656 26.707031 41.113281 26.613281 41.128906 26.292969 C 41.144531 25.953125 41.21875 25.597656 41.234375 25.261719 C 41.316406 23.425781 41.042969 21.359375 40.40625 19.636719 C 40.347656 19.476562 40.164062 18.925781 40.039062 18.871094 C 38.445312 18.53125 36.90625 17.957031 35.511719 17.117188 C 35.203125 16.933594 34.011719 16.179688 33.910156 15.894531 C 33.835938 15.699219 33.992188 15.714844 34.148438 15.722656 C 34.632812 15.761719 35.230469 15.933594 35.738281 15.996094 C 39.953125 16.519531 43.554688 15.433594 45.671875 11.582031 C 45.804688 11.339844 46.183594 10.410156 46.378906 10.324219 C 46.417969 10.308594 46.507812 10.289062 46.542969 10.3125 " clip-rule="nonzero"/></clipPath><clipPath id="5ebdc44080"><path d="M 0.75 0.230469 L 13.679688 0.230469 L 13.679688 16.625 L 0.75 16.625 Z M 0.75 0.230469 " clip-rule="nonzero"/></clipPath><clipPath id="1d76065df8"><path d="M 13.539062 0.3125 C 13.5625 0.324219 13.574219 0.457031 13.582031 0.496094 C 13.609375 0.898438 13.566406 1.402344 13.542969 1.808594 C 13.277344 6.464844 12.042969 11.070312 9.523438 15 C 9.320312 15.3125 8.722656 16.28125 8.484375 16.484375 C 8.222656 16.707031 8.113281 16.613281 8.128906 16.292969 C 8.144531 15.953125 8.21875 15.597656 8.234375 15.261719 C 8.316406 13.425781 8.042969 11.359375 7.40625 9.636719 C 7.347656 9.476562 7.164062 8.925781 7.039062 8.871094 C 5.445312 8.53125 3.90625 7.957031 2.511719 7.117188 C 2.203125 6.933594 1.011719 6.179688 0.910156 5.894531 C 0.835938 5.699219 0.992188 5.714844 1.148438 5.722656 C 1.632812 5.761719 2.230469 5.933594 2.738281 5.996094 C 6.953125 6.519531 10.554688 5.433594 12.671875 1.582031 C 12.804688 1.339844 13.183594 0.410156 13.378906 0.324219 C 13.417969 0.308594 13.507812 0.289062 13.542969 0.3125 " clip-rule="nonzero"/></clipPath><clipPath id="fc1b9ecc15"><rect x="0" width="14" y="0" height="17"/></clipPath><clipPath id="382202539d"><path d="M 38.257812 8.726562 L 43.371094 8.726562 L 43.371094 13.839844 L 38.257812 13.839844 Z M 38.257812 8.726562 " clip-rule="nonzero"/></clipPath><clipPath id="5c661abb4a"><path d="M 40.53125 8.871094 C 43.804688 8.53125 44.277344 13.46875 41.074219 13.792969 C 37.769531 14.128906 37.347656 9.199219 40.53125 8.871094 " clip-rule="nonzero"/></clipPath><clipPath id="eb9e1c4489"><path d="M 0.257812 0.726562 L 5.371094 0.726562 L 5.371094 5.839844 L 0.257812 5.839844 Z M 0.257812 0.726562 " clip-rule="nonzero"/></clipPath><clipPath id="d5ece95872"><path d="M 2.53125 0.871094 C 5.804688 0.53125 6.277344 5.46875 3.074219 5.792969 C -0.230469 6.128906 -0.652344 1.199219 2.53125 0.871094 " clip-rule="nonzero"/></clipPath><clipPath id="43a5c955dc"><rect x="0" width="6" y="0" height="6"/></clipPath></defs><g clip-path="url(#742c9ec366)"><g clip-path="url(#93f6d6579a)"><g transform="matrix(1, 0, 0, 1, 19, 1)"><g clip-path="url(#0b5d11386d)"><g clip-path="url(#68ef5df5cd)"><g clip-path="url(#5756be299f)"><rect x="-38.8" width="129.6" fill="#939393" height="54" y="-9.25" fill-opacity="1"/></g></g></g></g></g></g><g clip-path="url(#ebc9a377d1)"><g clip-path="url(#20d6ac945e)"><g transform="matrix(1, 0, 0, 1, 46, 11)"><g clip-path="url(#840a235fd7)"><g clip-path="url(#45df3db973)"><g clip-path="url(#b9288dc743)"><rect x="-65.8" width="129.6" fill="#939393" height="54" y="-19.25" fill-opacity="1"/></g></g></g></g></g></g><g clip-path="url(#2a7197d91f)"><g clip-path="url(#f9f6e43730)"><g transform="matrix(1, 0, 0, 1, 26, 11)"><g clip-path="url(#5bf31ab3f3)"><g clip-path="url(#f839a2f8d8)"><g clip-path="url(#248b2d7468)"><rect x="-45.8" width="129.6" fill="#939393" height="54" y="-19.25" fill-opacity="1"/></g></g></g></g></g></g><g clip-path="url(#8aaccd8239)"><g clip-path="url(#9df30c9117)"><g transform="matrix(1, 0, 0, 1, 33, 10)"><g clip-path="url(#fc1b9ecc15)"><g clip-path="url(#5ebdc44080)"><g clip-path="url(#1d76065df8)"><rect x="-52.8" width="129.6" fill="#939393" height="54" y="-18.25" fill-opacity="1"/></g></g></g></g></g></g><g clip-path="url(#382202539d)"><g clip-path="url(#5c661abb4a)"><g transform="matrix(1, 0, 0, 1, 38, 8)"><g clip-path="url(#43a5c955dc)"><g clip-path="url(#eb9e1c4489)"><g clip-path="url(#d5ece95872)"><rect x="-57.8" width="129.6" fill="#939393" height="54" y="-16.25" fill-opacity="1"/></g></g></g></g></g></g></svg>