<svg xmlns="http://www.w3.org/2000/svg" xmlns:xlink="http://www.w3.org/1999/xlink" width="120" zoomAndPan="magnify" viewBox="0 0 90 37.5" height="50" preserveAspectRatio="xMidYMid meet" version="1.0"><defs><clipPath id="1440ecdac1"><path d="M 20.671875 13.839844 L 36.1875 13.839844 L 36.1875 28.5 L 20.671875 28.5 Z M 20.671875 13.839844 " clip-rule="nonzero"/></clipPath><clipPath id="94e4d02413"><path d="M 31.875 16.90625 L 35.136719 16.90625 C 35.246094 16.90625 35.558594 17.207031 35.617188 17.347656 C 35.804688 17.757812 35.824219 19.117188 35.457031 19.429688 C 35.382812 19.488281 34.839844 19.660156 34.769531 19.660156 L 31.875 19.660156 L 31.875 24.761719 C 31.875 24.882812 32.289062 25.40625 32.433594 25.492188 C 33.402344 26.105469 34.785156 25.363281 35.78125 25.542969 C 36.308594 25.636719 36.179688 27.46875 35.824219 27.886719 C 35.210938 28.617188 32.835938 28.523438 31.960938 28.351562 C 30.855469 28.132812 29.878906 27.5625 29.378906 26.527344 C 29.257812 26.265625 28.9375 25.289062 28.9375 25.042969 L 28.9375 19.652344 L 24.757812 19.652344 C 24.722656 19.652344 24.324219 19.84375 24.257812 19.886719 C 23.832031 20.175781 23.765625 20.601562 23.714844 21.085938 C 23.519531 23.113281 23.941406 25.527344 23.707031 27.503906 C 23.605469 28.34375 22.210938 28.285156 21.550781 28.183594 C 20.871094 28.082031 20.808594 27.539062 20.761719 26.953125 C 20.640625 25.332031 20.589844 20.90625 20.996094 19.464844 C 21.9375 16.136719 26.335938 17.007812 28.925781 16.882812 C 29.214844 16.226562 28.980469 14.25 29.757812 13.996094 C 30.160156 13.867188 31.433594 13.816406 31.679688 14.191406 C 31.710938 14.242188 31.875 14.707031 31.875 14.734375 Z M 31.875 16.90625 " clip-rule="nonzero"/></clipPath><clipPath id="9ee1d7a9ee"><path d="M 0.671875 0.839844 L 16.1875 0.839844 L 16.1875 15.5 L 0.671875 15.5 Z M 0.671875 0.839844 " clip-rule="nonzero"/></clipPath><clipPath id="7b166b6a12"><path d="M 11.875 3.90625 L 15.136719 3.90625 C 15.246094 3.90625 15.558594 4.207031 15.617188 4.347656 C 15.804688 4.757812 15.824219 6.117188 15.457031 6.429688 C 15.382812 6.488281 14.839844 6.660156 14.769531 6.660156 L 11.875 6.660156 L 11.875 11.761719 C 11.875 11.882812 12.289062 12.40625 12.433594 12.492188 C 13.402344 13.105469 14.785156 12.363281 15.78125 12.542969 C 16.308594 12.636719 16.179688 14.46875 15.824219 14.886719 C 15.210938 15.617188 12.835938 15.523438 11.960938 15.351562 C 10.855469 15.132812 9.878906 14.5625 9.378906 13.527344 C 9.257812 13.265625 8.9375 12.289062 8.9375 12.042969 L 8.9375 6.652344 L 4.757812 6.652344 C 4.722656 6.652344 4.324219 6.84375 4.257812 6.886719 C 3.832031 7.175781 3.765625 7.601562 3.714844 8.085938 C 3.519531 10.113281 3.941406 12.527344 3.707031 14.503906 C 3.605469 15.34375 2.210938 15.285156 1.550781 15.183594 C 0.871094 15.082031 0.808594 14.539062 0.761719 13.953125 C 0.640625 12.332031 0.589844 7.90625 0.996094 6.464844 C 1.9375 3.136719 6.335938 4.007812 8.925781 3.882812 C 9.214844 3.226562 8.980469 1.25 9.757812 0.996094 C 10.160156 0.867188 11.433594 0.816406 11.679688 1.191406 C 11.710938 1.242188 11.875 1.707031 11.875 1.734375 Z M 11.875 3.90625 " clip-rule="nonzero"/></clipPath><clipPath id="cad8c421a0"><rect x="0" width="17" y="0" height="16"/></clipPath><clipPath id="d711459cbe"><path d="M 4.542969 13.105469 L 19.449219 13.105469 L 19.449219 28.253906 L 4.542969 28.253906 Z M 4.542969 13.105469 " clip-rule="nonzero"/></clipPath><clipPath id="664d891797"><path d="M 12.8125 14.972656 C 12.414062 14.910156 11.699219 14.972656 11.25 14.972656 C 11.179688 14.972656 10.925781 15.160156 10.925781 15.292969 C 10.925781 15.507812 11.179688 15.464844 11.207031 15.589844 C 11.257812 15.796875 11.230469 17.042969 11.183594 17.296875 L 9.765625 21.433594 C 9.8125 22.292969 11.886719 22.375 12.53125 22.308594 C 12.949219 22.265625 14.171875 22.035156 14.246094 21.535156 C 14 19.769531 12.445312 17.511719 12.769531 15.746094 C 12.8125 15.523438 13.226562 15.5 13.03125 15.074219 C 12.957031 15.058594 12.863281 14.972656 12.8125 14.964844 M 15.417969 24.710938 L 8.691406 24.710938 C 8.421875 24.796875 7.863281 27.472656 7.394531 27.914062 C 7.011719 28.277344 5.804688 28.242188 5.273438 28.191406 C 4.855469 28.15625 4.550781 28.03125 4.625 27.539062 L 9.085938 14.539062 C 9.464844 13.773438 10.113281 13.296875 10.976562 13.207031 C 12.351562 13.070312 14.265625 13.027344 14.925781 14.496094 L 19.390625 27.589844 C 19.492188 28.398438 17.863281 28.242188 17.320312 28.183594 C 16.011719 28.03125 15.925781 25.671875 15.425781 24.703125 " clip-rule="nonzero"/></clipPath><clipPath id="5eec2b3056"><path d="M 0.542969 0.105469 L 15.449219 0.105469 L 15.449219 15.253906 L 0.542969 15.253906 Z M 0.542969 0.105469 " clip-rule="nonzero"/></clipPath><clipPath id="6ae19d312e"><path d="M 8.8125 1.972656 C 8.414062 1.910156 7.699219 1.972656 7.25 1.972656 C 7.179688 1.972656 6.925781 2.160156 6.925781 2.292969 C 6.925781 2.507812 7.179688 2.464844 7.207031 2.589844 C 7.257812 2.796875 7.230469 4.042969 7.183594 4.296875 L 5.765625 8.433594 C 5.8125 9.292969 7.886719 9.375 8.53125 9.308594 C 8.949219 9.265625 10.171875 9.035156 10.246094 8.535156 C 10 6.769531 8.445312 4.511719 8.769531 2.746094 C 8.8125 2.523438 9.226562 2.5 9.03125 2.074219 C 8.957031 2.058594 8.863281 1.972656 8.8125 1.964844 M 11.417969 11.710938 L 4.691406 11.710938 C 4.421875 11.796875 3.863281 14.472656 3.394531 14.914062 C 3.011719 15.277344 1.804688 15.242188 1.273438 15.191406 C 0.855469 15.15625 0.550781 15.03125 0.625 14.539062 L 5.085938 1.539062 C 5.464844 0.773438 6.113281 0.296875 6.976562 0.207031 C 8.351562 0.0703125 10.265625 0.0273438 10.925781 1.496094 L 15.390625 14.589844 C 15.492188 15.398438 13.863281 15.242188 13.320312 15.183594 C 12.011719 15.03125 11.925781 12.671875 11.425781 11.703125 " clip-rule="nonzero"/></clipPath><clipPath id="e907e96763"><rect x="0" width="16" y="0" height="16"/></clipPath><clipPath id="98ec0ec30c"><path d="M 36.921875 16.527344 L 47.425781 16.527344 L 47.425781 28.5 L 36.921875 28.5 Z M 36.921875 16.527344 " clip-rule="nonzero"/></clipPath><clipPath id="25d4c6ee60"><path d="M 44.457031 21.214844 C 45 18.34375 39.550781 18.375 39.957031 21.214844 Z M 39.957031 23.605469 C 39.777344 25.722656 42.03125 25.804688 43.589844 25.722656 C 44.222656 25.6875 46.300781 25.179688 46.691406 25.433594 C 47.074219 25.679688 47.039062 27.488281 46.570312 27.871094 C 45.851562 28.445312 42.972656 28.539062 42.023438 28.472656 C 39.015625 28.269531 37.234375 27.078125 37.019531 23.921875 C 36.695312 19.242188 37.757812 16.269531 43.039062 16.617188 C 46.089844 16.816406 47.445312 18.859375 47.304688 21.808594 C 47.285156 22.332031 47.140625 23.605469 46.4375 23.605469 Z M 39.957031 23.605469 " clip-rule="nonzero"/></clipPath><clipPath id="ad1efabce9"><path d="M 0.921875 0.527344 L 11.425781 0.527344 L 11.425781 12.5 L 0.921875 12.5 Z M 0.921875 0.527344 " clip-rule="nonzero"/></clipPath><clipPath id="551d4a3b2b"><path d="M 8.457031 5.214844 C 9 2.34375 3.550781 2.375 3.957031 5.214844 Z M 3.957031 7.605469 C 3.777344 9.722656 6.03125 9.804688 7.589844 9.722656 C 8.222656 9.6875 10.300781 9.179688 10.691406 9.433594 C 11.074219 9.679688 11.039062 11.488281 10.570312 11.871094 C 9.851562 12.445312 6.972656 12.539062 6.023438 12.472656 C 3.015625 12.269531 1.234375 11.078125 1.019531 7.921875 C 0.695312 3.242188 1.757812 0.269531 7.039062 0.617188 C 10.089844 0.816406 11.445312 2.859375 11.304688 5.808594 C 11.285156 6.332031 11.140625 7.605469 10.4375 7.605469 Z M 3.957031 7.605469 " clip-rule="nonzero"/></clipPath><clipPath id="2c094d2d0c"><rect x="0" width="12" y="0" height="13"/></clipPath><clipPath id="df5f15a70a"><path d="M 57.691406 16.527344 L 68.808594 16.527344 L 68.808594 28.621094 L 57.691406 28.621094 Z M 57.691406 16.527344 " clip-rule="nonzero"/></clipPath><clipPath id="ac5c7115e5"><path d="M 62.347656 19.40625 C 61.023438 19.597656 60.785156 20.558594 60.710938 21.722656 C 60.652344 22.621094 60.640625 24.457031 61.261719 25.128906 C 62.101562 26.042969 65.03125 26.011719 65.535156 24.710938 C 65.761719 24.132812 65.746094 21.703125 65.679688 20.984375 C 65.53125 19.285156 63.714844 19.210938 62.347656 19.40625 M 67.390625 17.851562 C 68.851562 19.261719 68.792969 22.554688 68.605469 24.464844 C 68.207031 28.445312 63.242188 29.3125 60.199219 27.9375 C 57.433594 26.691406 57.28125 21.800781 58.195312 19.378906 C 59.410156 16.160156 65.195312 15.734375 67.390625 17.851562 " clip-rule="nonzero"/></clipPath><clipPath id="c1f91edb48"><path d="M 0.691406 0.527344 L 11.808594 0.527344 L 11.808594 12.621094 L 0.691406 12.621094 Z M 0.691406 0.527344 " clip-rule="nonzero"/></clipPath><clipPath id="aef9208810"><path d="M 5.347656 3.40625 C 4.023438 3.597656 3.785156 4.558594 3.710938 5.722656 C 3.652344 6.621094 3.640625 8.457031 4.261719 9.128906 C 5.101562 10.042969 8.03125 10.011719 8.535156 8.710938 C 8.761719 8.132812 8.746094 5.703125 8.679688 4.984375 C 8.53125 3.285156 6.714844 3.210938 5.347656 3.40625 M 10.390625 1.851562 C 11.851562 3.261719 11.792969 6.554688 11.605469 8.464844 C 11.207031 12.445312 6.242188 13.3125 3.199219 11.9375 C 0.433594 10.691406 0.28125 5.800781 1.195312 3.378906 C 2.410156 0.160156 8.195312 -0.265625 10.390625 1.851562 " clip-rule="nonzero"/></clipPath><clipPath id="160524520e"><rect x="0" width="12" y="0" height="13"/></clipPath><clipPath id="edeb87e0b6"><path d="M 75.773438 16.527344 L 85.789062 16.527344 L 85.789062 28.621094 L 75.773438 28.621094 Z M 75.773438 16.527344 " clip-rule="nonzero"/></clipPath><clipPath id="93af407074"><path d="M 82.753906 23.605469 L 79.765625 23.605469 C 79.367188 23.605469 78.863281 24.160156 78.8125 24.582031 C 78.609375 26.214844 80.648438 26.222656 81.769531 25.96875 C 82.109375 25.890625 82.753906 25.484375 82.753906 25.117188 Z M 82.753906 21.398438 L 82.753906 19.980469 C 82.753906 19.847656 82.320312 19.445312 82.175781 19.363281 C 81.53125 19.011719 80.0625 19.074219 79.304688 19.105469 C 78.3125 19.148438 77.261719 19.804688 77.148438 18.324219 C 77.039062 16.875 77.761719 16.710938 79.027344 16.621094 C 81.554688 16.449219 85.402344 16.644531 85.691406 19.886719 C 85.816406 21.273438 85.820312 24.097656 85.683594 25.476562 C 85.367188 28.546875 81.515625 28.734375 79.144531 28.371094 C 76.675781 27.988281 75.289062 26.25 76.027344 23.71875 C 76.402344 22.425781 77.996094 21.40625 79.316406 21.40625 Z M 82.753906 21.398438 " clip-rule="nonzero"/></clipPath><clipPath id="956437237c"><path d="M 0.773438 0.527344 L 10.789062 0.527344 L 10.789062 12.621094 L 0.773438 12.621094 Z M 0.773438 0.527344 " clip-rule="nonzero"/></clipPath><clipPath id="60fc759b22"><path d="M 7.753906 7.605469 L 4.765625 7.605469 C 4.367188 7.605469 3.863281 8.160156 3.8125 8.582031 C 3.609375 10.214844 5.648438 10.222656 6.769531 9.96875 C 7.109375 9.890625 7.753906 9.484375 7.753906 9.117188 Z M 7.753906 5.398438 L 7.753906 3.980469 C 7.753906 3.847656 7.320312 3.445312 7.175781 3.363281 C 6.53125 3.011719 5.0625 3.074219 4.304688 3.105469 C 3.3125 3.148438 2.261719 3.804688 2.148438 2.324219 C 2.039062 0.875 2.761719 0.710938 4.027344 0.621094 C 6.554688 0.449219 10.402344 0.644531 10.691406 3.886719 C 10.816406 5.273438 10.820312 8.097656 10.683594 9.476562 C 10.367188 12.546875 6.515625 12.734375 4.144531 12.371094 C 1.675781 11.988281 0.289062 10.25 1.027344 7.71875 C 1.402344 6.425781 2.996094 5.40625 4.316406 5.40625 Z M 7.753906 5.398438 " clip-rule="nonzero"/></clipPath><clipPath id="bd6b7609a3"><rect x="0" width="11" y="0" height="13"/></clipPath><clipPath id="059edee5a8"><path d="M 48.527344 16.527344 L 56.957031 16.527344 L 56.957031 28.621094 L 48.527344 28.621094 Z M 48.527344 16.527344 " clip-rule="nonzero"/></clipPath><clipPath id="b9d0d045f3"><path d="M 52.976562 16.652344 C 53.78125 16.570312 56.421875 16.476562 56.652344 17.519531 C 56.734375 17.875 56.746094 19.269531 56.449219 19.480469 C 55.945312 19.742188 55.378906 19.414062 54.878906 19.386719 C 53.933594 19.328125 52.289062 19.25 51.785156 20.238281 C 51.40625 20.976562 51.40625 24.132812 51.8125 24.839844 C 52.347656 25.765625 53.933594 25.789062 54.875 25.722656 C 55.988281 25.644531 56.929688 24.964844 56.949219 26.6875 C 56.964844 28.148438 56.183594 28.363281 54.875 28.480469 C 51.3125 28.789062 48.816406 27.503906 48.585938 23.75 C 48.371094 20.277344 48.898438 17.070312 52.976562 16.660156 " clip-rule="nonzero"/></clipPath><clipPath id="10d61f4da9"><path d="M 0.527344 0.527344 L 8.957031 0.527344 L 8.957031 12.621094 L 0.527344 12.621094 Z M 0.527344 0.527344 " clip-rule="nonzero"/></clipPath><clipPath id="3538731b0d"><path d="M 4.976562 0.652344 C 5.78125 0.570312 8.421875 0.476562 8.652344 1.519531 C 8.734375 1.875 8.746094 3.269531 8.449219 3.480469 C 7.945312 3.742188 7.378906 3.414062 6.878906 3.386719 C 5.933594 3.328125 4.289062 3.25 3.785156 4.238281 C 3.40625 4.976562 3.40625 8.132812 3.8125 8.839844 C 4.347656 9.765625 5.933594 9.789062 6.875 9.722656 C 7.988281 9.644531 8.929688 8.964844 8.949219 10.6875 C 8.964844 12.148438 8.183594 12.363281 6.875 12.480469 C 3.3125 12.789062 0.816406 11.503906 0.585938 7.75 C 0.371094 4.277344 0.898438 1.070312 4.976562 0.660156 " clip-rule="nonzero"/></clipPath><clipPath id="238b582f6a"><rect x="0" width="9" y="0" height="13"/></clipPath><clipPath id="452b1155c4"><path d="M 70.152344 12.25 L 75.160156 12.25 L 75.160156 28.5 L 70.152344 28.5 Z M 70.152344 12.25 " clip-rule="nonzero"/></clipPath><clipPath id="c71a00ece8"><path d="M 72.902344 12.519531 C 73.105469 12.695312 73.183594 13.351562 73.207031 13.636719 C 73.472656 17.253906 72.988281 21.1875 73.210938 24.832031 C 73.386719 26.035156 74.667969 25.527344 74.925781 25.832031 C 75.042969 26.5625 75.367188 28.140625 74.421875 28.355469 C 72.34375 28.839844 70.355469 27.605469 70.261719 25.398438 L 70.28125 12.925781 C 70.40625 12.09375 72.503906 12.1875 72.902344 12.519531 " clip-rule="nonzero"/></clipPath><clipPath id="3c919831dc"><path d="M 0.222656 0.25 L 5.160156 0.25 L 5.160156 16.5 L 0.222656 16.5 Z M 0.222656 0.25 " clip-rule="nonzero"/></clipPath><clipPath id="092f979206"><path d="M 2.902344 0.519531 C 3.105469 0.695312 3.183594 1.351562 3.207031 1.636719 C 3.472656 5.253906 2.988281 9.1875 3.210938 12.832031 C 3.386719 14.035156 4.667969 13.527344 4.925781 13.832031 C 5.042969 14.5625 5.367188 16.140625 4.421875 16.355469 C 2.34375 16.839844 0.355469 15.605469 0.261719 13.398438 L 0.28125 0.925781 C 0.40625 0.09375 2.503906 0.1875 2.902344 0.519531 " clip-rule="nonzero"/></clipPath><clipPath id="dea8d0b4a0"><rect x="0" width="6" y="0" height="17"/></clipPath><clipPath id="45bd957655"><path d="M 10.285156 4.429688 L 13.707031 4.429688 L 13.707031 11.515625 L 10.285156 11.515625 Z M 10.285156 4.429688 " clip-rule="nonzero"/></clipPath><clipPath id="5dfe11f1d3"><path d="M 11.734375 4.519531 C 12.550781 4.390625 13.492188 4.984375 13.59375 5.828125 C 13.679688 6.515625 13.378906 9.867188 13.203125 10.589844 C 12.855469 12.042969 10.679688 11.675781 10.742188 10.148438 C 10.789062 8.851562 10.367188 7.371094 10.375 6.113281 C 10.382812 5.359375 10.984375 4.644531 11.726562 4.527344 " clip-rule="nonzero"/></clipPath><clipPath id="80a19146b1"><path d="M 0.300781 0.429688 L 3.707031 0.429688 L 3.707031 7.515625 L 0.300781 7.515625 Z M 0.300781 0.429688 " clip-rule="nonzero"/></clipPath><clipPath id="e001190d8a"><path d="M 1.734375 0.519531 C 2.550781 0.390625 3.492188 0.984375 3.59375 1.828125 C 3.679688 2.515625 3.378906 5.867188 3.203125 6.589844 C 2.855469 8.042969 0.679688 7.675781 0.742188 6.148438 C 0.789062 4.851562 0.367188 3.371094 0.375 2.113281 C 0.382812 1.359375 0.984375 0.644531 1.726562 0.527344 " clip-rule="nonzero"/></clipPath><clipPath id="f81744941f"><rect x="0" width="4" y="0" height="8"/></clipPath><clipPath id="2e1d4e4ee9"><path d="M 3.6875 8.464844 L 8.453125 8.464844 L 8.453125 13.226562 L 3.6875 13.226562 Z M 3.6875 8.464844 " clip-rule="nonzero"/></clipPath><clipPath id="e935d39d6b"><path d="M 4.941406 8.5625 C 5.238281 8.542969 5.703125 8.714844 5.925781 8.910156 C 6.1875 9.136719 8.125 11.464844 8.253906 11.726562 C 8.589844 12.398438 8.152344 13.214844 7.394531 13.214844 C 6.664062 13.214844 4.726562 11.097656 4 10.65625 C 3.4375 9.824219 3.914062 8.644531 4.941406 8.5625 " clip-rule="nonzero"/></clipPath><clipPath id="73ac38882a"><path d="M 0.6875 0.527344 L 5.453125 0.527344 L 5.453125 5.226562 L 0.6875 5.226562 Z M 0.6875 0.527344 " clip-rule="nonzero"/></clipPath><clipPath id="81d61c2119"><path d="M 1.941406 0.5625 C 2.238281 0.542969 2.703125 0.714844 2.925781 0.910156 C 3.1875 1.136719 5.125 3.464844 5.253906 3.726562 C 5.589844 4.398438 5.152344 5.214844 4.394531 5.214844 C 3.664062 5.214844 1.726562 3.097656 1 2.65625 C 0.4375 1.824219 0.914062 0.644531 1.941406 0.5625 " clip-rule="nonzero"/></clipPath><clipPath id="13b2cb183c"><rect x="0" width="6" y="0" height="6"/></clipPath><clipPath id="f506f302c6"><path d="M 15.539062 8.464844 L 20.304688 8.464844 L 20.304688 13.226562 L 15.539062 13.226562 Z M 15.539062 8.464844 " clip-rule="nonzero"/></clipPath><clipPath id="ffc928eb9c"><path d="M 15.925781 12.917969 C 15.613281 12.609375 15.589844 12.144531 15.765625 11.769531 C 15.910156 11.457031 18.09375 8.875 18.339844 8.738281 C 19.5625 8.066406 20.859375 9.46875 19.980469 10.65625 C 19.792969 10.914062 17.429688 12.898438 17.140625 13.042969 C 16.753906 13.238281 16.25 13.238281 15.925781 12.910156 " clip-rule="nonzero"/></clipPath><clipPath id="dfeb750240"><path d="M 0.539062 0.464844 L 5.304688 0.464844 L 5.304688 5.226562 L 0.539062 5.226562 Z M 0.539062 0.464844 " clip-rule="nonzero"/></clipPath><clipPath id="b19bcd6e9c"><path d="M 0.925781 4.917969 C 0.613281 4.609375 0.589844 4.144531 0.765625 3.769531 C 0.910156 3.457031 3.09375 0.875 3.339844 0.738281 C 4.5625 0.0664062 5.859375 1.46875 4.980469 2.65625 C 4.792969 2.914062 2.429688 4.898438 2.140625 5.042969 C 1.753906 5.238281 1.25 5.238281 0.925781 4.910156 " clip-rule="nonzero"/></clipPath><clipPath id="efcb9e31d8"><rect x="0" width="6" y="0" height="6"/></clipPath></defs><g clip-path="url(#1440ecdac1)"><g clip-path="url(#94e4d02413)"><g transform="matrix(1, 0, 0, 1, 20, 13)"><g clip-path="url(#cad8c421a0)"><g clip-path="url(#9ee1d7a9ee)"><g clip-path="url(#7b166b6a12)"><rect x="-39.8" width="129.6" fill="#939393" height="54" y="-21.25" fill-opacity="1"/></g></g></g></g></g></g><g clip-path="url(#d711459cbe)"><g clip-path="url(#664d891797)"><g transform="matrix(1, 0, 0, 1, 4, 13)"><g clip-path="url(#e907e96763)"><g clip-path="url(#5eec2b3056)"><g clip-path="url(#6ae19d312e)"><rect x="-23.8" width="129.6" fill="#939393" height="54" y="-21.25" fill-opacity="1"/></g></g></g></g></g></g><g clip-path="url(#98ec0ec30c)"><g clip-path="url(#25d4c6ee60)"><g transform="matrix(1, 0, 0, 1, 36, 16)"><g clip-path="url(#2c094d2d0c)"><g clip-path="url(#ad1efabce9)"><g clip-path="url(#551d4a3b2b)"><rect x="-55.8" width="129.6" fill="#939393" height="54" y="-24.25" fill-opacity="1"/></g></g></g></g></g></g><g clip-path="url(#df5f15a70a)"><g clip-path="url(#ac5c7115e5)"><g transform="matrix(1, 0, 0, 1, 57, 16)"><g clip-path="url(#160524520e)"><g clip-path="url(#c1f91edb48)"><g clip-path="url(#aef9208810)"><rect x="-76.8" width="129.6" fill="#939393" height="54" y="-24.25" fill-opacity="1"/></g></g></g></g></g></g><g clip-path="url(#edeb87e0b6)"><g clip-path="url(#93af407074)"><g transform="matrix(1, 0, 0, 1, 75, 16)"><g clip-path="url(#bd6b7609a3)"><g clip-path="url(#956437237c)"><g clip-path="url(#60fc759b22)"><rect x="-94.8" width="129.6" fill="#939393" height="54" y="-24.25" fill-opacity="1"/></g></g></g></g></g></g><g clip-path="url(#059edee5a8)"><g clip-path="url(#b9d0d045f3)"><g transform="matrix(1, 0, 0, 1, 48, 16)"><g clip-path="url(#238b582f6a)"><g clip-path="url(#10d61f4da9)"><g clip-path="url(#3538731b0d)"><rect x="-67.8" width="129.6" fill="#939393" height="54" y="-24.25" fill-opacity="1"/></g></g></g></g></g></g><g clip-path="url(#452b1155c4)"><g clip-path="url(#c71a00ece8)"><g transform="matrix(1, 0, 0, 1, 70, 12)"><g clip-path="url(#dea8d0b4a0)"><g clip-path="url(#3c919831dc)"><g clip-path="url(#092f979206)"><rect x="-89.8" width="129.6" fill="#939393" height="54" y="-20.25" fill-opacity="1"/></g></g></g></g></g></g><g clip-path="url(#45bd957655)"><g clip-path="url(#5dfe11f1d3)"><g transform="matrix(1, 0, 0, 1, 10, 4)"><g clip-path="url(#f81744941f)"><g clip-path="url(#80a19146b1)"><g clip-path="url(#e001190d8a)"><rect x="-29.8" width="129.6" fill="#939393" height="54" y="-12.25" fill-opacity="1"/></g></g></g></g></g></g><g clip-path="url(#2e1d4e4ee9)"><g clip-path="url(#e935d39d6b)"><g transform="matrix(1, 0, 0, 1, 3, 8)"><g clip-path="url(#13b2cb183c)"><g clip-path="url(#73ac38882a)"><g clip-path="url(#81d61c2119)"><rect x="-22.8" width="129.6" fill="#939393" height="54" y="-16.25" fill-opacity="1"/></g></g></g></g></g></g><g clip-path="url(#f506f302c6)"><g clip-path="url(#ffc928eb9c)"><g transform="matrix(1, 0, 0, 1, 15, 8)"><g clip-path="url(#efcb9e31d8)"><g clip-path="url(#dfeb750240)"><g clip-path="url(#b19bcd6e9c)"><rect x="-34.8" width="129.6" fill="#939393" height="54" y="-16.25" fill-opacity="1"/></g></g></g></g></g></g></svg>