<svg xmlns="http://www.w3.org/2000/svg" xmlns:xlink="http://www.w3.org/1999/xlink" width="120" zoomAndPan="magnify" viewBox="0 0 90 37.5" height="50" preserveAspectRatio="xMidYMid meet" version="1.0"><defs><clipPath id="3c5e25daee"><path d="M 2.554688 10.238281 L 86.523438 10.238281 L 86.523438 24.980469 L 2.554688 24.980469 Z M 2.554688 10.238281 " clip-rule="nonzero"/></clipPath><clipPath id="ac8e6c63be"><path d="M 64.726562 13.777344 L 59.816406 13.777344 C 59.722656 13.777344 59.171875 13.984375 59.0625 14.042969 C 58.320312 14.429688 58.085938 15.101562 58.039062 15.902344 C 57.90625 17.929688 58.089844 20.152344 58.101562 22.1875 C 58.199219 22.796875 58.964844 23.542969 59.582031 23.542969 L 64.929688 23.542969 L 64.929688 22.097656 C 64.890625 22.050781 64.886719 22.046875 64.828125 22.046875 C 63.929688 22.046875 62.976562 22.160156 62.078125 22.070312 C 61.886719 22.050781 61.632812 22.011719 61.492188 21.875 C 61.433594 21.816406 61.3125 21.625 61.3125 21.566406 L 61.3125 19.46875 L 61.386719 19.394531 L 64.390625 19.394531 L 64.390625 17.929688 L 61.3125 17.929688 L 61.3125 15.804688 C 61.3125 15.523438 61.632812 15.199219 61.921875 15.199219 L 64.726562 15.199219 Z M 43.613281 13.777344 L 37.921875 13.777344 C 37.910156 13.8125 37.972656 13.835938 37.972656 13.847656 L 37.972656 23.542969 L 41.242188 23.542969 L 41.242188 15.144531 L 41.949219 15.144531 C 42 15.144531 42.40625 15.363281 42.464844 15.410156 C 43.074219 15.882812 43.199219 17.035156 42.96875 17.714844 C 42.949219 17.777344 42.875 17.777344 42.867188 17.789062 C 42.855469 17.8125 42.902344 17.875 42.867188 17.960938 C 42.601562 18.5625 42.015625 18.640625 41.460938 18.703125 C 41.390625 18.710938 41.378906 18.679688 41.390625 18.777344 L 43.707031 23.535156 L 47.398438 23.535156 L 44.566406 19.265625 C 46.652344 18.714844 46.960938 15.84375 45.386719 14.535156 C 44.9375 14.164062 44.191406 13.832031 43.613281 13.773438 M 76.222656 23.535156 L 81.570312 23.535156 L 81.570312 22.074219 L 78.621094 22.074219 C 78.375 22.074219 77.960938 21.78125 77.960938 21.515625 L 77.960938 19.46875 L 78.035156 19.394531 L 81.039062 19.394531 L 81.039062 17.929688 L 77.960938 17.929688 L 77.960938 15.855469 C 77.960938 15.742188 78.109375 15.390625 78.210938 15.320312 C 78.257812 15.285156 78.53125 15.199219 78.578125 15.199219 L 81.308594 15.199219 C 81.320312 15.199219 81.363281 15.269531 81.382812 15.246094 L 81.386719 13.808594 C 81.382812 13.773438 81.203125 13.75 81.15625 13.75 C 79.785156 13.742188 77.898438 13.652344 76.578125 13.785156 C 75.234375 13.917969 74.761719 14.808594 74.691406 16.042969 C 74.601562 17.675781 74.589844 19.988281 74.691406 21.613281 C 74.75 22.53125 75.222656 23.425781 76.230469 23.542969 M 65.683594 23.542969 L 67.269531 23.542969 L 67.269531 17.34375 C 67.382812 17.421875 67.460938 17.574219 67.535156 17.6875 C 68.519531 19.21875 69.410156 20.816406 70.40625 22.335938 C 70.699219 22.785156 71.019531 23.351562 71.546875 23.535156 C 72.179688 23.761719 72.886719 23.59375 73.144531 22.9375 C 73.167969 22.878906 73.277344 22.511719 73.277344 22.488281 L 73.277344 13.683594 L 71.617188 13.683594 L 71.617188 18.570312 C 71.515625 18.519531 71.476562 18.390625 71.421875 18.296875 C 70.746094 17.21875 70.050781 16.007812 69.316406 14.9375 C 68.664062 13.992188 68.066406 13.457031 66.828125 13.75 C 65.84375 13.972656 65.660156 14.785156 65.613281 15.664062 C 65.488281 18.203125 65.707031 20.832031 65.609375 23.382812 Z M 15.4375 16.824219 L 19.199219 14.902344 C 19.683594 14.488281 19.453125 13.707031 18.808594 13.628906 C 18.625 13.605469 17.195312 13.613281 17.125 13.652344 C 16.804688 14.019531 16.542969 14.398438 16.242188 14.777344 C 16.015625 15.054688 15.785156 15.355469 15.554688 15.652344 C 14.828125 16.597656 13.921875 17.21875 14.703125 18.507812 L 17.117188 21.5625 C 17.21875 21.621094 18.828125 21.597656 18.996094 21.539062 C 19.460938 21.378906 19.589844 20.734375 19.257812 20.390625 C 19.027344 20.152344 17.796875 19.644531 17.417969 19.445312 C 17.300781 19.382812 17.234375 19.355469 17.128906 19.300781 C 16.703125 19.082031 15.414062 18.480469 15.183594 18.167969 C 14.859375 17.722656 15.011719 17.132812 15.417969 16.816406 M 10.5 20.792969 C 10.511719 20.78125 10.480469 20.722656 10.511719 20.679688 C 10.984375 20.09375 12.089844 18.894531 12.378906 18.296875 C 12.664062 17.703125 12.585938 17.125 12.195312 16.609375 L 9.859375 13.671875 C 9.820312 13.628906 9.765625 13.628906 9.710938 13.625 C 9.457031 13.589844 8.25 13.59375 8.027344 13.648438 C 7.441406 13.796875 7.339844 14.625 7.851562 14.953125 C 8.949219 15.675781 10.488281 16.121094 11.609375 16.859375 C 11.972656 17.15625 12.042969 17.757812 11.78125 18.136719 C 11.695312 18.261719 11.558594 18.238281 11.632812 18.355469 L 10.042969 19.1875 C 9.410156 19.578125 8.335938 19.910156 7.761719 20.367188 C 7.363281 20.679688 7.5 21.460938 7.980469 21.566406 C 8.191406 21.613281 9.546875 21.625 9.765625 21.585938 C 9.902344 21.554688 10.210938 21.070312 10.328125 20.921875 C 10.382812 20.851562 10.480469 20.828125 10.511719 20.792969 M 16.371094 21.644531 C 15.816406 20.691406 15.089844 19.75 14.554688 18.75 C 14.152344 17.996094 14.023438 17.523438 14.410156 16.699219 C 14.992188 15.464844 16.003906 14.257812 16.636719 13.019531 C 16.832031 12.636719 16.917969 12.375 16.632812 11.984375 C 16.171875 11.363281 14.816406 11.839844 14.140625 11.621094 C 13.945312 13.476562 13.644531 15.339844 13.605469 17.207031 C 13.585938 18.089844 13.621094 19 13.703125 19.894531 C 13.800781 20.980469 13.921875 22.328125 14.105469 23.398438 C 14.113281 23.441406 14.125 23.523438 14.179688 23.535156 C 14.875 23.417969 16.429688 23.867188 16.757812 23.046875 C 16.964844 22.519531 16.632812 22.210938 16.394531 21.792969 C 16.359375 21.734375 16.390625 21.660156 16.378906 21.636719 M 10.40625 23.316406 C 10.914062 23.761719 12.160156 23.394531 12.804688 23.566406 L 12.871094 23.5 C 13.066406 21.4375 13.386719 19.382812 13.414062 17.304688 C 13.230469 15.457031 13.144531 13.578125 12.875 11.738281 C 12.851562 11.558594 12.742188 11.667969 12.609375 11.667969 C 12.085938 11.671875 11.304688 11.59375 10.8125 11.679688 C 10.292969 11.765625 10.074219 12.351562 10.226562 12.824219 C 10.355469 13.214844 11.066406 14.1875 11.320312 14.613281 C 11.683594 15.214844 12.109375 15.84375 12.445312 16.46875 C 12.753906 17.054688 12.90625 17.460938 12.71875 18.125 C 12.597656 18.53125 12.253906 19.023438 12.035156 19.394531 C 11.707031 19.964844 10.179688 22.230469 10.164062 22.683594 C 10.148438 22.898438 10.246094 23.179688 10.40625 23.316406 M 34.636719 22.339844 C 37.894531 19.425781 37.230469 13.835938 33.121094 12.097656 C 31.394531 11.363281 29.695312 11.453125 28.023438 12.058594 C 27.839844 12.121094 27.652344 12.257812 27.472656 12.203125 L 27.515625 12.292969 C 26.386719 12.859375 25.5625 13.730469 24.976562 14.855469 C 23.6875 17.339844 24.261719 20.4375 26.371094 22.304688 C 28.644531 24.324219 32.351562 24.375 34.628906 22.339844 M 53.253906 10.3125 L 53.253906 13.777344 C 51.964844 13.753906 50.699219 13.738281 49.496094 14.246094 C 47.953125 14.894531 47.039062 16.179688 46.777344 17.824219 C 46.292969 20.867188 47.675781 23.28125 50.886719 23.546875 C 52.75 23.507812 54.613281 23.578125 56.476562 23.570312 C 56.535156 23.570312 56.542969 23.566406 56.578125 23.519531 L 56.578125 10.3125 L 86.457031 10.3125 L 86.457031 24.910156 L 2.628906 24.910156 L 2.628906 10.3125 Z M 53.253906 10.3125 " clip-rule="nonzero"/></clipPath><clipPath id="39f3bba5d0"><path d="M 0.554688 0.238281 L 84.523438 0.238281 L 84.523438 14.980469 L 0.554688 14.980469 Z M 0.554688 0.238281 " clip-rule="nonzero"/></clipPath><clipPath id="877c00b8c7"><path d="M 62.726562 3.777344 L 57.816406 3.777344 C 57.722656 3.777344 57.171875 3.984375 57.0625 4.042969 C 56.320312 4.429688 56.085938 5.101562 56.039062 5.902344 C 55.90625 7.929688 56.089844 10.152344 56.101562 12.1875 C 56.199219 12.796875 56.964844 13.542969 57.582031 13.542969 L 62.929688 13.542969 L 62.929688 12.097656 C 62.890625 12.050781 62.886719 12.046875 62.828125 12.046875 C 61.929688 12.046875 60.976562 12.160156 60.078125 12.070312 C 59.886719 12.050781 59.632812 12.011719 59.492188 11.875 C 59.433594 11.816406 59.3125 11.625 59.3125 11.566406 L 59.3125 9.46875 L 59.386719 9.394531 L 62.390625 9.394531 L 62.390625 7.929688 L 59.3125 7.929688 L 59.3125 5.804688 C 59.3125 5.523438 59.632812 5.199219 59.921875 5.199219 L 62.726562 5.199219 Z M 41.613281 3.777344 L 35.921875 3.777344 C 35.910156 3.8125 35.972656 3.835938 35.972656 3.847656 L 35.972656 13.542969 L 39.242188 13.542969 L 39.242188 5.144531 L 39.949219 5.144531 C 40 5.144531 40.40625 5.363281 40.464844 5.410156 C 41.074219 5.882812 41.199219 7.035156 40.96875 7.714844 C 40.949219 7.777344 40.875 7.777344 40.867188 7.789062 C 40.855469 7.8125 40.902344 7.875 40.867188 7.960938 C 40.601562 8.5625 40.015625 8.640625 39.460938 8.703125 C 39.390625 8.710938 39.378906 8.679688 39.390625 8.777344 L 41.707031 13.535156 L 45.398438 13.535156 L 42.566406 9.265625 C 44.652344 8.714844 44.960938 5.84375 43.386719 4.535156 C 42.9375 4.164062 42.191406 3.832031 41.613281 3.773438 M 74.222656 13.535156 L 79.570312 13.535156 L 79.570312 12.074219 L 76.621094 12.074219 C 76.375 12.074219 75.960938 11.78125 75.960938 11.515625 L 75.960938 9.46875 L 76.035156 9.394531 L 79.039062 9.394531 L 79.039062 7.929688 L 75.960938 7.929688 L 75.960938 5.855469 C 75.960938 5.742188 76.109375 5.390625 76.210938 5.320312 C 76.257812 5.285156 76.53125 5.199219 76.578125 5.199219 L 79.308594 5.199219 C 79.320312 5.199219 79.363281 5.269531 79.382812 5.246094 L 79.386719 3.808594 C 79.382812 3.773438 79.203125 3.75 79.15625 3.75 C 77.785156 3.742188 75.898438 3.652344 74.578125 3.785156 C 73.234375 3.917969 72.761719 4.808594 72.691406 6.042969 C 72.601562 7.675781 72.589844 9.988281 72.691406 11.613281 C 72.75 12.53125 73.222656 13.425781 74.230469 13.542969 M 63.683594 13.542969 L 65.269531 13.542969 L 65.269531 7.34375 C 65.382812 7.421875 65.460938 7.574219 65.535156 7.6875 C 66.519531 9.21875 67.410156 10.816406 68.40625 12.335938 C 68.699219 12.785156 69.019531 13.351562 69.546875 13.535156 C 70.179688 13.761719 70.886719 13.59375 71.144531 12.9375 C 71.167969 12.878906 71.277344 12.511719 71.277344 12.488281 L 71.277344 3.683594 L 69.617188 3.683594 L 69.617188 8.570312 C 69.515625 8.519531 69.476562 8.390625 69.421875 8.296875 C 68.746094 7.21875 68.050781 6.007812 67.316406 4.9375 C 66.664062 3.992188 66.066406 3.457031 64.828125 3.75 C 63.84375 3.972656 63.660156 4.785156 63.613281 5.664062 C 63.488281 8.203125 63.707031 10.832031 63.609375 13.382812 Z M 13.4375 6.824219 L 17.199219 4.902344 C 17.683594 4.488281 17.453125 3.707031 16.808594 3.628906 C 16.625 3.605469 15.195312 3.613281 15.125 3.652344 C 14.804688 4.019531 14.542969 4.398438 14.242188 4.777344 C 14.015625 5.054688 13.785156 5.355469 13.554688 5.652344 C 12.828125 6.597656 11.921875 7.21875 12.703125 8.507812 L 15.117188 11.5625 C 15.21875 11.621094 16.828125 11.597656 16.996094 11.539062 C 17.460938 11.378906 17.589844 10.734375 17.257812 10.390625 C 17.027344 10.152344 15.796875 9.644531 15.417969 9.445312 C 15.300781 9.382812 15.234375 9.355469 15.128906 9.300781 C 14.703125 9.082031 13.414062 8.480469 13.183594 8.167969 C 12.859375 7.722656 13.011719 7.132812 13.417969 6.816406 M 8.5 10.792969 C 8.511719 10.78125 8.480469 10.722656 8.511719 10.679688 C 8.984375 10.09375 10.089844 8.894531 10.378906 8.296875 C 10.664062 7.703125 10.585938 7.125 10.195312 6.609375 L 7.859375 3.671875 C 7.820312 3.628906 7.765625 3.628906 7.710938 3.625 C 7.457031 3.589844 6.25 3.59375 6.027344 3.648438 C 5.441406 3.796875 5.339844 4.625 5.851562 4.953125 C 6.949219 5.675781 8.488281 6.121094 9.609375 6.859375 C 9.972656 7.15625 10.042969 7.757812 9.78125 8.136719 C 9.695312 8.261719 9.558594 8.238281 9.632812 8.355469 L 8.042969 9.1875 C 7.410156 9.578125 6.335938 9.910156 5.761719 10.367188 C 5.363281 10.679688 5.5 11.460938 5.980469 11.566406 C 6.191406 11.613281 7.546875 11.625 7.765625 11.585938 C 7.902344 11.554688 8.210938 11.070312 8.328125 10.921875 C 8.382812 10.851562 8.480469 10.828125 8.511719 10.792969 M 14.371094 11.644531 C 13.816406 10.691406 13.089844 9.75 12.554688 8.75 C 12.152344 7.996094 12.023438 7.523438 12.410156 6.699219 C 12.992188 5.464844 14.003906 4.257812 14.636719 3.019531 C 14.832031 2.636719 14.917969 2.375 14.632812 1.984375 C 14.171875 1.363281 12.816406 1.839844 12.140625 1.621094 C 11.945312 3.476562 11.644531 5.339844 11.605469 7.207031 C 11.585938 8.089844 11.621094 9 11.703125 9.894531 C 11.800781 10.980469 11.921875 12.328125 12.105469 13.398438 C 12.113281 13.441406 12.125 13.523438 12.179688 13.535156 C 12.875 13.417969 14.429688 13.867188 14.757812 13.046875 C 14.964844 12.519531 14.632812 12.210938 14.394531 11.792969 C 14.359375 11.734375 14.390625 11.660156 14.378906 11.636719 M 8.40625 13.316406 C 8.914062 13.761719 10.160156 13.394531 10.804688 13.566406 L 10.871094 13.5 C 11.066406 11.4375 11.386719 9.382812 11.414062 7.304688 C 11.230469 5.457031 11.144531 3.578125 10.875 1.738281 C 10.851562 1.558594 10.742188 1.667969 10.609375 1.667969 C 10.085938 1.671875 9.304688 1.59375 8.8125 1.679688 C 8.292969 1.765625 8.074219 2.351562 8.226562 2.824219 C 8.355469 3.214844 9.066406 4.1875 9.320312 4.613281 C 9.683594 5.214844 10.109375 5.84375 10.445312 6.46875 C 10.753906 7.054688 10.90625 7.460938 10.71875 8.125 C 10.597656 8.53125 10.253906 9.023438 10.035156 9.394531 C 9.707031 9.964844 8.179688 12.230469 8.164062 12.683594 C 8.148438 12.898438 8.246094 13.179688 8.40625 13.316406 M 32.636719 12.339844 C 35.894531 9.425781 35.230469 3.835938 31.121094 2.097656 C 29.394531 1.363281 27.695312 1.453125 26.023438 2.058594 C 25.839844 2.121094 25.652344 2.257812 25.472656 2.203125 L 25.515625 2.292969 C 24.386719 2.859375 23.5625 3.730469 22.976562 4.855469 C 21.6875 7.339844 22.261719 10.4375 24.371094 12.304688 C 26.644531 14.324219 30.351562 14.375 32.628906 12.339844 M 51.253906 0.3125 L 51.253906 3.777344 C 49.964844 3.753906 48.699219 3.738281 47.496094 4.246094 C 45.953125 4.894531 45.039062 6.179688 44.777344 7.824219 C 44.292969 10.867188 45.675781 13.28125 48.886719 13.546875 C 50.75 13.507812 52.613281 13.578125 54.476562 13.570312 C 54.535156 13.570312 54.542969 13.566406 54.578125 13.519531 L 54.578125 0.3125 L 84.457031 0.3125 L 84.457031 14.910156 L 0.628906 14.910156 L 0.628906 0.3125 Z M 51.253906 0.3125 " clip-rule="nonzero"/></clipPath><clipPath id="076068cc53"><rect x="0" width="85" y="0" height="15"/></clipPath><clipPath id="c5f22170c5"><path d="M 50.148438 15.128906 L 53.273438 15.128906 L 53.273438 22.179688 L 50.148438 22.179688 Z M 50.148438 15.128906 " clip-rule="nonzero"/></clipPath><clipPath id="21d4513578"><path d="M 53.253906 15.144531 L 53.253906 22.121094 L 52.253906 22.121094 C 51.832031 22.121094 51.1875 21.613281 50.941406 21.289062 C 49.839844 19.839844 49.765625 15.144531 52.253906 15.144531 Z M 53.253906 15.144531 " clip-rule="nonzero"/></clipPath><clipPath id="34346b9fed"><path d="M 0.148438 0.128906 L 3.273438 0.128906 L 3.273438 7.179688 L 0.148438 7.179688 Z M 0.148438 0.128906 " clip-rule="nonzero"/></clipPath><clipPath id="00ee56f89a"><path d="M 3.253906 0.144531 L 3.253906 7.121094 L 2.253906 7.121094 C 1.832031 7.121094 1.1875 6.613281 0.941406 6.289062 C -0.160156 4.839844 -0.234375 0.144531 2.253906 0.144531 Z M 3.253906 0.144531 " clip-rule="nonzero"/></clipPath><clipPath id="3ec9494559"><rect x="0" width="4" y="0" height="8"/></clipPath><clipPath id="ba150b592f"><path d="M 27.875 13 L 33.160156 13 L 33.160156 22.417969 L 27.875 22.417969 Z M 27.875 13 " clip-rule="nonzero"/></clipPath><clipPath id="566023f293"><path d="M 29.003906 13.648438 C 29.71875 12.945312 30.949219 12.789062 31.765625 13.417969 C 33.433594 14.695312 33.382812 19.492188 32.464844 21.183594 C 31.566406 22.839844 29.535156 22.796875 28.597656 21.175781 C 27.609375 19.460938 27.53125 15.101562 29.003906 13.648438 " clip-rule="nonzero"/></clipPath><clipPath id="fbf375e849"><path d="M 0.875 0 L 6.160156 0 L 6.160156 9.417969 L 0.875 9.417969 Z M 0.875 0 " clip-rule="nonzero"/></clipPath><clipPath id="e42d30337e"><path d="M 2.003906 0.648438 C 2.71875 -0.0546875 3.949219 -0.210938 4.765625 0.417969 C 6.433594 1.695312 6.382812 6.492188 5.464844 8.183594 C 4.566406 9.839844 2.535156 9.796875 1.597656 8.175781 C 0.609375 6.460938 0.53125 2.101562 2.003906 0.648438 " clip-rule="nonzero"/></clipPath><clipPath id="eecdb0a152"><rect x="0" width="7" y="0" height="10"/></clipPath></defs><g clip-path="url(#3c5e25daee)"><g clip-path="url(#ac8e6c63be)"><g transform="matrix(1, 0, 0, 1, 2, 10)"><g clip-path="url(#076068cc53)"><g clip-path="url(#39f3bba5d0)"><g clip-path="url(#877c00b8c7)"><rect x="-21.8" width="129.6" fill="#939393" height="54" y="-18.25" fill-opacity="1"/></g></g></g></g></g></g><g clip-path="url(#c5f22170c5)"><g clip-path="url(#21d4513578)"><g transform="matrix(1, 0, 0, 1, 50, 15)"><g clip-path="url(#3ec9494559)"><g clip-path="url(#34346b9fed)"><g clip-path="url(#00ee56f89a)"><rect x="-69.8" width="129.6" fill="#939393" height="54" y="-23.25" fill-opacity="1"/></g></g></g></g></g></g><g clip-path="url(#ba150b592f)"><g clip-path="url(#566023f293)"><g transform="matrix(1, 0, 0, 1, 27, 13)"><g clip-path="url(#eecdb0a152)"><g clip-path="url(#fbf375e849)"><g clip-path="url(#e42d30337e)"><rect x="-46.8" width="129.6" fill="#939393" height="54" y="-21.25" fill-opacity="1"/></g></g></g></g></g></g></svg>