<svg xmlns="http://www.w3.org/2000/svg" xmlns:xlink="http://www.w3.org/1999/xlink" width="120" zoomAndPan="magnify" viewBox="0 0 90 37.5" height="50" preserveAspectRatio="xMidYMid meet" version="1.0"><defs><clipPath id="7420736bfa"><path d="M 4.769531 15.792969 L 17.160156 15.792969 L 17.160156 24.015625 L 4.769531 24.015625 Z M 4.769531 15.792969 " clip-rule="nonzero"/></clipPath><clipPath id="485ea80bce"><path d="M 7.375 15.859375 L 7.375 21.046875 C 8.339844 20.644531 9.976562 16.140625 10.34375 15.910156 C 10.742188 15.660156 11.988281 15.949219 12.558594 15.859375 L 12.890625 21.042969 C 13.597656 20.320312 15.085938 17.90625 14.808594 17.023438 C 14.625 16.433594 13.574219 16.792969 13.863281 15.851562 L 17.105469 15.851562 C 16.136719 16.707031 13.222656 23.667969 12.835938 23.902344 C 12.425781 24.15625 11.199219 23.851562 10.617188 23.960938 L 10.132812 18.441406 L 7.324219 23.902344 L 5.632812 23.910156 L 5.148438 23.425781 L 4.78125 15.859375 Z M 7.375 15.859375 " clip-rule="nonzero"/></clipPath><clipPath id="2b05641a09"><path d="M 0.769531 0.792969 L 13.160156 0.792969 L 13.160156 9.015625 L 0.769531 9.015625 Z M 0.769531 0.792969 " clip-rule="nonzero"/></clipPath><clipPath id="fc26b19d19"><path d="M 3.375 0.859375 L 3.375 6.046875 C 4.339844 5.644531 5.976562 1.140625 6.34375 0.910156 C 6.742188 0.660156 7.988281 0.949219 8.558594 0.859375 L 8.890625 6.042969 C 9.597656 5.320312 11.085938 2.90625 10.808594 2.023438 C 10.625 1.433594 9.574219 1.792969 9.863281 0.851562 L 13.105469 0.851562 C 12.136719 1.707031 9.222656 8.667969 8.835938 8.902344 C 8.425781 9.15625 7.199219 8.851562 6.617188 8.960938 L 6.132812 3.441406 L 3.324219 8.902344 L 1.632812 8.910156 L 1.148438 8.425781 L 0.78125 0.859375 Z M 3.375 0.859375 " clip-rule="nonzero"/></clipPath><clipPath id="95dd9408a3"><rect x="0" width="14" y="0" height="10"/></clipPath><clipPath id="0ad9cb6891"><path d="M 51.738281 15.511719 L 61.3125 15.511719 L 61.3125 24 L 51.738281 24 Z M 51.738281 15.511719 " clip-rule="nonzero"/></clipPath><clipPath id="e03bcadd72"><path d="M 57.539062 22.230469 C 59.605469 20.253906 59.375 14.894531 56.046875 17.011719 C 52.742188 19.109375 54.234375 25.398438 57.539062 22.230469 M 56.605469 15.617188 C 63.625 14.746094 62.128906 23.460938 56.148438 23.9375 C 49.550781 24.46875 50.929688 16.320312 56.605469 15.617188 " clip-rule="nonzero"/></clipPath><clipPath id="f30bba6ec9"><path d="M 0.738281 0.511719 L 10.3125 0.511719 L 10.3125 9 L 0.738281 9 Z M 0.738281 0.511719 " clip-rule="nonzero"/></clipPath><clipPath id="8f10ce3f4d"><path d="M 6.539062 7.230469 C 8.605469 5.253906 8.375 -0.105469 5.046875 2.011719 C 1.742188 4.109375 3.234375 10.398438 6.539062 7.230469 M 5.605469 0.617188 C 12.625 -0.253906 11.128906 8.460938 5.148438 8.9375 C -1.449219 9.46875 -0.0703125 1.320312 5.605469 0.617188 " clip-rule="nonzero"/></clipPath><clipPath id="20c2341348"><rect x="0" width="11" y="0" height="9"/></clipPath><clipPath id="6d3d76b81b"><path d="M 60.1875 15.851562 L 69.367188 15.851562 L 69.367188 24.183594 L 60.1875 24.183594 Z M 60.1875 15.851562 " clip-rule="nonzero"/></clipPath><clipPath id="d62a952320"><path d="M 65.757812 17.808594 C 64.984375 17.628906 65.234375 17.941406 65.035156 18.226562 C 64.8125 18.558594 63.617188 20.542969 63.8125 20.71875 L 66.082031 20.71875 Z M 67.660156 15.902344 L 69.328125 23.96875 L 66.714844 23.828125 L 66.414062 21.695312 C 65.320312 21.839844 63.566406 21.347656 62.660156 22 C 62.136719 22.382812 61.375 24.90625 60.25 23.96875 C 59.875 23.648438 64.960938 17.046875 65.277344 16.1875 Z M 67.660156 15.902344 " clip-rule="nonzero"/></clipPath><clipPath id="ba59e63937"><path d="M 0.1875 0.867188 L 9.367188 0.867188 L 9.367188 9.183594 L 0.1875 9.183594 Z M 0.1875 0.867188 " clip-rule="nonzero"/></clipPath><clipPath id="0465aa7188"><path d="M 5.757812 2.808594 C 4.984375 2.628906 5.234375 2.941406 5.035156 3.226562 C 4.8125 3.558594 3.617188 5.542969 3.8125 5.71875 L 6.082031 5.71875 Z M 7.660156 0.902344 L 9.328125 8.96875 L 6.714844 8.828125 L 6.414062 6.695312 C 5.320312 6.839844 3.566406 6.347656 2.660156 7 C 2.136719 7.382812 1.375 9.90625 0.25 8.96875 C -0.125 8.648438 4.960938 2.046875 5.277344 1.1875 Z M 7.660156 0.902344 " clip-rule="nonzero"/></clipPath><clipPath id="86d102de97"><rect x="0" width="10" y="0" height="10"/></clipPath><clipPath id="ce1060f77b"><path d="M 23.183594 15.511719 L 31.070312 15.511719 L 31.070312 24 L 23.183594 24 Z M 23.183594 15.511719 " clip-rule="nonzero"/></clipPath><clipPath id="0f7aaf3dbe"><path d="M 31.054688 15.859375 L 30.242188 18.449219 C 29.636719 18.136719 30.039062 17.421875 29.746094 17.035156 C 28.59375 15.507812 25.832031 17.238281 27.164062 18.285156 L 30.351562 19.964844 C 30.878906 23.199219 27.496094 24.382812 24.804688 23.886719 C 23.875 23.714844 23.035156 23.453125 23.269531 22.347656 C 24.976562 22.957031 28.074219 23.847656 27.761719 21.082031 C 20.480469 18.972656 26.003906 14.238281 31.050781 15.859375 " clip-rule="nonzero"/></clipPath><clipPath id="bb6164147b"><path d="M 0.183594 0.511719 L 8.070312 0.511719 L 8.070312 9 L 0.183594 9 Z M 0.183594 0.511719 " clip-rule="nonzero"/></clipPath><clipPath id="eb5071cd5c"><path d="M 8.054688 0.859375 L 7.242188 3.449219 C 6.636719 3.136719 7.039062 2.421875 6.746094 2.035156 C 5.59375 0.507812 2.832031 2.238281 4.164062 3.285156 L 7.351562 4.964844 C 7.878906 8.199219 4.496094 9.382812 1.804688 8.886719 C 0.875 8.714844 0.0351562 8.453125 0.269531 7.347656 C 1.976562 7.957031 5.074219 8.847656 4.761719 6.082031 C -2.519531 3.972656 3.003906 -0.761719 8.050781 0.859375 " clip-rule="nonzero"/></clipPath><clipPath id="30ed246d56"><rect x="0" width="9" y="0" height="9"/></clipPath><clipPath id="48da0020d4"><path d="M 69.929688 15.570312 L 77.816406 15.570312 L 77.816406 24.015625 L 69.929688 24.015625 Z M 69.929688 15.570312 " clip-rule="nonzero"/></clipPath><clipPath id="0904bd9934"><path d="M 77.765625 15.859375 L 76.953125 18.449219 C 76.347656 18.136719 76.75 17.421875 76.457031 17.035156 C 75.269531 15.460938 72.648438 17.347656 73.738281 18.160156 C 74.425781 18.667969 76.785156 19.132812 77.0625 19.96875 C 77.8125 22.203125 75.335938 23.8125 73.375 23.972656 C 72.148438 24.078125 69.679688 24.007812 69.972656 22.347656 C 71.046875 22.746094 73.992188 23.625 74.472656 22.132812 C 75.183594 19.941406 70.433594 20.917969 70.996094 18.039062 C 71.492188 15.472656 75.734375 15.253906 77.757812 15.851562 " clip-rule="nonzero"/></clipPath><clipPath id="3b8cd61cff"><path d="M 0.929688 0.570312 L 8.816406 0.570312 L 8.816406 9.015625 L 0.929688 9.015625 Z M 0.929688 0.570312 " clip-rule="nonzero"/></clipPath><clipPath id="4197416ad2"><path d="M 8.765625 0.859375 L 7.953125 3.449219 C 7.347656 3.136719 7.75 2.421875 7.457031 2.035156 C 6.269531 0.460938 3.648438 2.347656 4.738281 3.160156 C 5.425781 3.667969 7.785156 4.132812 8.0625 4.96875 C 8.8125 7.203125 6.335938 8.8125 4.375 8.972656 C 3.148438 9.078125 0.679688 9.007812 0.972656 7.347656 C 2.046875 7.746094 4.992188 8.625 5.472656 7.132812 C 6.183594 4.941406 1.433594 5.917969 1.996094 3.039062 C 2.492188 0.472656 6.734375 0.253906 8.757812 0.851562 " clip-rule="nonzero"/></clipPath><clipPath id="7974c2a5f0"><rect x="0" width="9" y="0" height="10"/></clipPath><clipPath id="301d93f35d"><path d="M 42.671875 15.511719 L 51.851562 15.511719 L 51.851562 24.015625 L 42.671875 24.015625 Z M 42.671875 15.511719 " clip-rule="nonzero"/></clipPath><clipPath id="993ee62a37"><path d="M 51.8125 15.859375 L 51.15625 18.449219 C 49.921875 18.746094 50.925781 17.15625 50.210938 16.640625 C 44.503906 15.800781 42.863281 24.625 50.1875 22.992188 L 49.804688 23.910156 C 46.824219 24.089844 42.285156 24.46875 42.746094 20.269531 C 43.214844 16.007812 48.28125 14.867188 51.808594 15.859375 " clip-rule="nonzero"/></clipPath><clipPath id="962a47a455"><path d="M 0.671875 0.511719 L 9.851562 0.511719 L 9.851562 9.015625 L 0.671875 9.015625 Z M 0.671875 0.511719 " clip-rule="nonzero"/></clipPath><clipPath id="2563c0ebb6"><path d="M 9.8125 0.859375 L 9.15625 3.449219 C 7.921875 3.746094 8.925781 2.15625 8.210938 1.640625 C 2.503906 0.800781 0.863281 9.625 8.1875 7.992188 L 7.804688 8.910156 C 4.824219 9.089844 0.285156 9.46875 0.746094 5.269531 C 1.214844 1.007812 6.28125 -0.132812 9.808594 0.859375 " clip-rule="nonzero"/></clipPath><clipPath id="b9eaaf647c"><rect x="0" width="10" y="0" height="10"/></clipPath><clipPath id="3918aac8de"><path d="M 16.089844 15.851562 L 24.140625 15.851562 L 24.140625 24 L 16.089844 24 Z M 16.089844 15.851562 " clip-rule="nonzero"/></clipPath><clipPath id="fb8574dbe2"><path d="M 23.917969 15.859375 C 24.441406 16.257812 23.910156 16.445312 23.4375 16.511719 C 22.835938 16.585938 20.511719 16.378906 20.363281 16.519531 L 19.734375 18.976562 C 19.597656 19.601562 19.746094 19.375 20.183594 19.429688 C 21.054688 19.53125 22.054688 19.351562 22.945312 19.429688 C 23.0625 20.71875 20.992188 19.671875 19.890625 20.425781 C 19.175781 20.917969 19.042969 22.203125 19.054688 22.992188 L 21.976562 22.996094 L 21.976562 23.96875 L 16.136719 23.96875 L 18.242188 15.859375 Z M 23.917969 15.859375 " clip-rule="nonzero"/></clipPath><clipPath id="166d845bc2"><path d="M 0.0898438 0.851562 L 8.140625 0.851562 L 8.140625 9 L 0.0898438 9 Z M 0.0898438 0.851562 " clip-rule="nonzero"/></clipPath><clipPath id="1d105b5fcb"><path d="M 7.917969 0.859375 C 8.441406 1.257812 7.910156 1.445312 7.4375 1.511719 C 6.835938 1.585938 4.511719 1.378906 4.363281 1.519531 L 3.734375 3.976562 C 3.597656 4.601562 3.746094 4.375 4.183594 4.429688 C 5.054688 4.53125 6.054688 4.351562 6.945312 4.429688 C 7.0625 5.71875 4.992188 4.671875 3.890625 5.425781 C 3.175781 5.917969 3.042969 7.203125 3.054688 7.992188 L 5.976562 7.996094 L 5.976562 8.96875 L 0.136719 8.96875 L 2.242188 0.859375 Z M 7.917969 0.859375 " clip-rule="nonzero"/></clipPath><clipPath id="d14d44251f"><rect x="0" width="9" y="0" height="9"/></clipPath><clipPath id="a1643f0c99"><path d="M 32 15.851562 L 39.855469 15.851562 L 39.855469 24 L 32 24 Z M 32 15.851562 " clip-rule="nonzero"/></clipPath><clipPath id="e7e061c0ca"><path d="M 39.8125 15.859375 C 39.878906 17.449219 37.441406 16.429688 36.863281 17.367188 L 35.304688 23.777344 L 32.675781 23.960938 L 34.296875 16.832031 L 32.023438 16.828125 L 32.023438 15.859375 Z M 39.8125 15.859375 " clip-rule="nonzero"/></clipPath><clipPath id="215846aa7c"><path d="M 0 0.851562 L 7.855469 0.851562 L 7.855469 9 L 0 9 Z M 0 0.851562 " clip-rule="nonzero"/></clipPath><clipPath id="751c0ecbd6"><path d="M 7.8125 0.859375 C 7.878906 2.449219 5.441406 1.429688 4.863281 2.367188 L 3.304688 8.777344 L 0.675781 8.960938 L 2.296875 1.832031 L 0.0234375 1.828125 L 0.0234375 0.859375 Z M 7.8125 0.859375 " clip-rule="nonzero"/></clipPath><clipPath id="590367fe55"><rect x="0" width="8" y="0" height="9"/></clipPath><clipPath id="e5605abec0"><path d="M 78.714844 15.851562 L 86.542969 15.851562 L 86.542969 24 L 78.714844 24 Z M 78.714844 15.851562 " clip-rule="nonzero"/></clipPath><clipPath id="053810e003"><path d="M 86.519531 15.859375 C 86.589844 17.449219 84.148438 16.429688 83.574219 17.367188 L 82.015625 23.777344 L 79.386719 23.960938 L 81.007812 16.828125 L 78.734375 16.820312 L 78.734375 15.851562 Z M 86.519531 15.859375 " clip-rule="nonzero"/></clipPath><clipPath id="6294f98b67"><path d="M 0.714844 0.851562 L 8.542969 0.851562 L 8.542969 9 L 0.714844 9 Z M 0.714844 0.851562 " clip-rule="nonzero"/></clipPath><clipPath id="01a9227cc1"><path d="M 8.519531 0.859375 C 8.589844 2.449219 6.148438 1.429688 5.574219 2.367188 L 4.015625 8.777344 L 1.386719 8.960938 L 3.007812 1.828125 L 0.734375 1.820312 L 0.734375 0.851562 Z M 8.519531 0.859375 " clip-rule="nonzero"/></clipPath><clipPath id="267ac24dec"><rect x="0" width="9" y="0" height="9"/></clipPath></defs><g clip-path="url(#7420736bfa)"><g clip-path="url(#485ea80bce)"><g transform="matrix(1, 0, 0, 1, 4, 15)"><g clip-path="url(#95dd9408a3)"><g clip-path="url(#2b05641a09)"><g clip-path="url(#fc26b19d19)"><rect x="-23.8" width="129.6" fill="#939393" height="54" y="-23.25" fill-opacity="1"/></g></g></g></g></g></g><g clip-path="url(#0ad9cb6891)"><g clip-path="url(#e03bcadd72)"><g transform="matrix(1, 0, 0, 1, 51, 15)"><g clip-path="url(#20c2341348)"><g clip-path="url(#f30bba6ec9)"><g clip-path="url(#8f10ce3f4d)"><rect x="-70.8" width="129.6" fill="#939393" height="54" y="-23.25" fill-opacity="1"/></g></g></g></g></g></g><g clip-path="url(#6d3d76b81b)"><g clip-path="url(#d62a952320)"><g transform="matrix(1, 0, 0, 1, 60, 15)"><g clip-path="url(#86d102de97)"><g clip-path="url(#ba59e63937)"><g clip-path="url(#0465aa7188)"><rect x="-79.8" width="129.6" fill="#939393" height="54" y="-23.25" fill-opacity="1"/></g></g></g></g></g></g><g clip-path="url(#ce1060f77b)"><g clip-path="url(#0f7aaf3dbe)"><g transform="matrix(1, 0, 0, 1, 23, 15)"><g clip-path="url(#30ed246d56)"><g clip-path="url(#bb6164147b)"><g clip-path="url(#eb5071cd5c)"><rect x="-42.8" width="129.6" fill="#939393" height="54" y="-23.25" fill-opacity="1"/></g></g></g></g></g></g><g clip-path="url(#48da0020d4)"><g clip-path="url(#0904bd9934)"><g transform="matrix(1, 0, 0, 1, 69, 15)"><g clip-path="url(#7974c2a5f0)"><g clip-path="url(#3b8cd61cff)"><g clip-path="url(#4197416ad2)"><rect x="-88.8" width="129.6" fill="#939393" height="54" y="-23.25" fill-opacity="1"/></g></g></g></g></g></g><g clip-path="url(#301d93f35d)"><g clip-path="url(#993ee62a37)"><g transform="matrix(1, 0, 0, 1, 42, 15)"><g clip-path="url(#b9eaaf647c)"><g clip-path="url(#962a47a455)"><g clip-path="url(#2563c0ebb6)"><rect x="-61.8" width="129.6" fill="#939393" height="54" y="-23.25" fill-opacity="1"/></g></g></g></g></g></g><g clip-path="url(#3918aac8de)"><g clip-path="url(#fb8574dbe2)"><g transform="matrix(1, 0, 0, 1, 16, 15)"><g clip-path="url(#d14d44251f)"><g clip-path="url(#166d845bc2)"><g clip-path="url(#1d105b5fcb)"><rect x="-35.8" width="129.6" fill="#939393" height="54" y="-23.25" fill-opacity="1"/></g></g></g></g></g></g><g clip-path="url(#a1643f0c99)"><g clip-path="url(#e7e061c0ca)"><g transform="matrix(1, 0, 0, 1, 32, 15)"><g clip-path="url(#590367fe55)"><g clip-path="url(#215846aa7c)"><g clip-path="url(#751c0ecbd6)"><rect x="-51.8" width="129.6" fill="#939393" height="54" y="-23.25" fill-opacity="1"/></g></g></g></g></g></g><g clip-path="url(#e5605abec0)"><g clip-path="url(#053810e003)"><g transform="matrix(1, 0, 0, 1, 78, 15)"><g clip-path="url(#267ac24dec)"><g clip-path="url(#6294f98b67)"><g clip-path="url(#01a9227cc1)"><rect x="-97.8" width="129.6" fill="#939393" height="54" y="-23.25" fill-opacity="1"/></g></g></g></g></g></g></svg>