<svg xmlns="http://www.w3.org/2000/svg" xmlns:xlink="http://www.w3.org/1999/xlink" width="120" zoomAndPan="magnify" viewBox="0 0 90 37.5" height="50" preserveAspectRatio="xMidYMid meet" version="1.0"><defs><clipPath id="fe569e5199"><path d="M 6.433594 11.050781 L 20.25 11.050781 L 20.25 27.84375 L 6.433594 27.84375 Z M 6.433594 11.050781 " clip-rule="nonzero"/></clipPath><clipPath id="0040c80936"><path d="M 10.351562 11.066406 L 10.351562 21.691406 C 10.351562 22.257812 11.09375 23.527344 11.546875 23.894531 C 12.324219 24.511719 13.703125 24.589844 14.59375 24.171875 C 15.421875 23.78125 16.265625 22.34375 16.265625 21.449219 L 16.265625 11.066406 L 19.980469 11.066406 L 20.167969 11.257812 L 20.167969 21.316406 C 20.164062 29.699219 6.457031 30 6.457031 21.820312 L 6.457031 11.257812 L 6.644531 11.066406 Z M 10.351562 11.066406 " clip-rule="nonzero"/></clipPath><clipPath id="352b80386b"><path d="M 0.433594 0.0507812 L 14.25 0.0507812 L 14.25 16.84375 L 0.433594 16.84375 Z M 0.433594 0.0507812 " clip-rule="nonzero"/></clipPath><clipPath id="05bdf94773"><path d="M 4.351562 0.0664062 L 4.351562 10.691406 C 4.351562 11.257812 5.09375 12.527344 5.546875 12.894531 C 6.324219 13.511719 7.703125 13.589844 8.59375 13.171875 C 9.421875 12.78125 10.265625 11.34375 10.265625 10.449219 L 10.265625 0.0664062 L 13.980469 0.0664062 L 14.167969 0.257812 L 14.167969 10.316406 C 14.164062 18.699219 0.457031 19 0.457031 10.820312 L 0.457031 0.257812 L 0.644531 0.0664062 Z M 4.351562 0.0664062 " clip-rule="nonzero"/></clipPath><clipPath id="ca09e309bc"><rect x="0" width="15" y="0" height="17"/></clipPath><clipPath id="d8c3023da1"><path d="M 31.476562 16.117188 L 44.496094 16.117188 L 44.496094 27.746094 L 31.476562 27.746094 Z M 31.476562 16.117188 " clip-rule="nonzero"/></clipPath><clipPath id="24297deea3"><path d="M 37.871094 19.019531 C 34.390625 19.21875 34.1875 24.207031 37.363281 24.746094 C 41.882812 25.511719 41.871094 18.796875 37.871094 19.019531 M 40.917969 27.417969 L 40.917969 26.660156 C 40.804688 26.539062 39.675781 27.253906 39.410156 27.347656 C 36.242188 28.511719 32.605469 26.738281 31.71875 23.472656 C 30.476562 18.855469 34.886719 14.949219 39.347656 16.472656 C 39.925781 16.667969 40.347656 17.070312 40.910156 17.230469 L 40.910156 16.476562 L 44.433594 16.476562 L 44.433594 27.226562 L 44.242188 27.417969 Z M 40.917969 27.417969 " clip-rule="nonzero"/></clipPath><clipPath id="599d4bffb5"><path d="M 0.476562 0.117188 L 13.496094 0.117188 L 13.496094 11.746094 L 0.476562 11.746094 Z M 0.476562 0.117188 " clip-rule="nonzero"/></clipPath><clipPath id="1394f4ae5b"><path d="M 6.871094 3.019531 C 3.390625 3.21875 3.1875 8.207031 6.363281 8.746094 C 10.882812 9.511719 10.871094 2.796875 6.871094 3.019531 M 9.917969 11.417969 L 9.917969 10.660156 C 9.804688 10.539062 8.675781 11.253906 8.410156 11.347656 C 5.242188 12.511719 1.605469 10.738281 0.71875 7.472656 C -0.523438 2.855469 3.886719 -1.050781 8.347656 0.472656 C 8.925781 0.667969 9.347656 1.070312 9.910156 1.230469 L 9.910156 0.476562 L 13.433594 0.476562 L 13.433594 11.226562 L 13.242188 11.417969 Z M 9.917969 11.417969 " clip-rule="nonzero"/></clipPath><clipPath id="4e6908f208"><rect x="0" width="14" y="0" height="12"/></clipPath><clipPath id="bdf32148a5"><path d="M 59.402344 16.117188 L 71.625 16.117188 L 71.625 27.84375 L 59.402344 27.84375 Z M 59.402344 16.117188 " clip-rule="nonzero"/></clipPath><clipPath id="8cd9ab4a9a"><path d="M 68.324219 20.753906 C 68.296875 17.386719 63.171875 17.429688 63.042969 20.753906 Z M 71.59375 22.890625 L 63.046875 22.890625 C 62.625 25.289062 66.058594 26.234375 67.523438 24.90625 C 67.738281 24.710938 67.800781 24.398438 67.828125 24.398438 L 71.21875 24.398438 C 70.546875 27.191406 67.589844 28 65 27.789062 C 56.875 27.132812 57.902344 14.953125 66.746094 16.238281 C 69.042969 16.574219 71.601562 18.566406 71.601562 21.066406 Z M 71.59375 22.890625 " clip-rule="nonzero"/></clipPath><clipPath id="6a8f3d2140"><path d="M 0.402344 0.117188 L 12.625 0.117188 L 12.625 11.84375 L 0.402344 11.84375 Z M 0.402344 0.117188 " clip-rule="nonzero"/></clipPath><clipPath id="2476793fb6"><path d="M 9.324219 4.753906 C 9.296875 1.386719 4.171875 1.429688 4.042969 4.753906 Z M 12.59375 6.890625 L 4.046875 6.890625 C 3.625 9.289062 7.058594 10.234375 8.523438 8.90625 C 8.738281 8.710938 8.800781 8.398438 8.828125 8.398438 L 12.21875 8.398438 C 11.546875 11.191406 8.589844 12 6 11.789062 C -2.125 11.132812 -1.097656 -1.046875 7.746094 0.238281 C 10.042969 0.574219 12.601562 2.566406 12.601562 5.066406 Z M 12.59375 6.890625 " clip-rule="nonzero"/></clipPath><clipPath id="3a59a6bf82"><rect x="0" width="13" y="0" height="12"/></clipPath><clipPath id="816e5cea9d"><path d="M 46.183594 9.160156 L 52.644531 9.160156 L 52.644531 27.445312 L 46.183594 27.445312 Z M 46.183594 9.160156 " clip-rule="nonzero"/></clipPath><clipPath id="b9f141c115"><path d="M 52.605469 9.183594 L 52.605469 12.203125 C 51.832031 12.011719 49.839844 12.363281 49.839844 13.398438 L 49.839844 16.476562 L 52.605469 16.476562 L 52.605469 19.367188 L 49.839844 19.367188 L 49.839844 27.226562 L 49.648438 27.417969 L 46.386719 27.417969 L 46.195312 27.226562 L 46.195312 14.273438 C 46.195312 13.390625 46.527344 12.003906 47.070312 11.257812 C 47.691406 10.421875 49.484375 9.183594 50.53125 9.183594 Z M 52.605469 9.183594 " clip-rule="nonzero"/></clipPath><clipPath id="fd7d0b0ba3"><path d="M 0.183594 0.160156 L 6.644531 0.160156 L 6.644531 18.445312 L 0.183594 18.445312 Z M 0.183594 0.160156 " clip-rule="nonzero"/></clipPath><clipPath id="8ebbba093a"><path d="M 6.605469 0.183594 L 6.605469 3.203125 C 5.832031 3.011719 3.839844 3.363281 3.839844 4.398438 L 3.839844 7.476562 L 6.605469 7.476562 L 6.605469 10.367188 L 3.839844 10.367188 L 3.839844 18.226562 L 3.648438 18.417969 L 0.386719 18.417969 L 0.195312 18.226562 L 0.195312 5.273438 C 0.195312 4.390625 0.527344 3.003906 1.070312 2.257812 C 1.691406 1.421875 3.484375 0.183594 4.53125 0.183594 Z M 6.605469 0.183594 " clip-rule="nonzero"/></clipPath><clipPath id="1867331469"><rect x="0" width="7" y="0" height="19"/></clipPath><clipPath id="d656d5dbb7"><path d="M 71.328125 16.417969 L 83.550781 16.417969 L 83.550781 27.445312 L 71.328125 27.445312 Z M 71.328125 16.417969 " clip-rule="nonzero"/></clipPath><clipPath id="2b2a75da74"><path d="M 75.367188 16.476562 L 77.441406 19.246094 L 79.574219 16.476562 L 83.539062 16.476562 L 79.542969 21.839844 L 83.539062 27.417969 L 79.828125 27.417969 L 77.3125 24.519531 L 75.046875 27.417969 L 71.335938 27.417969 L 75.359375 21.816406 L 71.335938 16.472656 Z M 75.367188 16.476562 " clip-rule="nonzero"/></clipPath><clipPath id="72de4623c6"><path d="M 0.328125 0.417969 L 12.550781 0.417969 L 12.550781 11.445312 L 0.328125 11.445312 Z M 0.328125 0.417969 " clip-rule="nonzero"/></clipPath><clipPath id="22bc4c8546"><path d="M 4.367188 0.476562 L 6.441406 3.246094 L 8.574219 0.476562 L 12.539062 0.476562 L 8.542969 5.839844 L 12.539062 11.417969 L 8.828125 11.417969 L 6.3125 8.519531 L 4.046875 11.417969 L 0.335938 11.417969 L 4.359375 5.816406 L 0.335938 0.472656 Z M 4.367188 0.476562 " clip-rule="nonzero"/></clipPath><clipPath id="ac534aee8e"><rect x="0" width="13" y="0" height="12"/></clipPath><clipPath id="280fcde1a8"><path d="M 20.945312 16.019531 L 30.386719 16.019531 L 30.386719 27.84375 L 20.945312 27.84375 Z M 20.945312 16.019531 " clip-rule="nonzero"/></clipPath><clipPath id="e8c3e7bfb0"><path d="M 29.84375 16.601562 L 28.835938 18.863281 C 27.863281 18.46875 26.445312 17.960938 25.566406 18.796875 C 23.960938 20.324219 27.613281 20.644531 28.421875 20.976562 C 29.414062 21.386719 30.15625 21.992188 30.320312 23.105469 C 31.054688 28.164062 24.132812 28.722656 20.976562 26.660156 L 22.242188 24.28125 C 23.203125 25.003906 26.519531 26.085938 26.8125 24.296875 C 27.027344 22.949219 24.695312 22.910156 23.785156 22.597656 C 22.5 22.15625 21.765625 21.46875 21.726562 20.035156 C 21.597656 15.871094 26.921875 15.519531 29.851562 16.601562 " clip-rule="nonzero"/></clipPath><clipPath id="b3fbd9bb9e"><path d="M 0.960938 0.0195312 L 10.386719 0.0195312 L 10.386719 11.84375 L 0.960938 11.84375 Z M 0.960938 0.0195312 " clip-rule="nonzero"/></clipPath><clipPath id="aa6711d81d"><path d="M 9.84375 0.601562 L 8.835938 2.863281 C 7.863281 2.46875 6.445312 1.960938 5.566406 2.796875 C 3.960938 4.324219 7.613281 4.644531 8.421875 4.976562 C 9.414062 5.386719 10.15625 5.992188 10.320312 7.105469 C 11.054688 12.164062 4.132812 12.722656 0.976562 10.660156 L 2.242188 8.28125 C 3.203125 9.003906 6.519531 10.085938 6.8125 8.296875 C 7.027344 6.949219 4.695312 6.910156 3.785156 6.597656 C 2.5 6.15625 1.765625 5.46875 1.726562 4.035156 C 1.597656 -0.128906 6.921875 -0.480469 9.851562 0.601562 " clip-rule="nonzero"/></clipPath><clipPath id="0fbfff4982"><rect x="0" width="11" y="0" height="12"/></clipPath><clipPath id="290d676084"><path d="M 54.234375 9.160156 L 57.910156 9.160156 L 57.910156 27.445312 L 54.234375 27.445312 Z M 54.234375 9.160156 " clip-rule="nonzero"/></clipPath><clipPath id="a7ff1820fc"><path d="M 54.242188 9.183594 L 57.703125 9.183594 L 57.894531 9.371094 L 57.894531 27.226562 L 57.703125 27.417969 L 54.433594 27.417969 L 54.242188 27.226562 Z M 54.242188 9.183594 " clip-rule="nonzero"/></clipPath><clipPath id="066f7419cb"><path d="M 0.234375 0.160156 L 3.90625 0.160156 L 3.90625 18.445312 L 0.234375 18.445312 Z M 0.234375 0.160156 " clip-rule="nonzero"/></clipPath><clipPath id="0828fc51bc"><path d="M 0.242188 0.183594 L 3.703125 0.183594 L 3.894531 0.371094 L 3.894531 18.226562 L 3.703125 18.417969 L 0.433594 18.417969 L 0.242188 18.226562 Z M 0.242188 0.183594 " clip-rule="nonzero"/></clipPath><clipPath id="d6e0719cf7"><rect x="0" width="4" y="0" height="19"/></clipPath></defs><g clip-path="url(#fe569e5199)"><g clip-path="url(#0040c80936)"><g transform="matrix(1, 0, 0, 1, 6, 11)"><g clip-path="url(#ca09e309bc)"><g clip-path="url(#352b80386b)"><g clip-path="url(#05bdf94773)"><rect x="-25.8" width="129.6" fill="#939393" height="54" y="-19.25" fill-opacity="1"/></g></g></g></g></g></g><g clip-path="url(#d8c3023da1)"><g clip-path="url(#24297deea3)"><g transform="matrix(1, 0, 0, 1, 31, 16)"><g clip-path="url(#4e6908f208)"><g clip-path="url(#599d4bffb5)"><g clip-path="url(#1394f4ae5b)"><rect x="-50.8" width="129.6" fill="#939393" height="54" y="-24.25" fill-opacity="1"/></g></g></g></g></g></g><g clip-path="url(#bdf32148a5)"><g clip-path="url(#8cd9ab4a9a)"><g transform="matrix(1, 0, 0, 1, 59, 16)"><g clip-path="url(#3a59a6bf82)"><g clip-path="url(#6a8f3d2140)"><g clip-path="url(#2476793fb6)"><rect x="-78.8" width="129.6" fill="#939393" height="54" y="-24.25" fill-opacity="1"/></g></g></g></g></g></g><g clip-path="url(#816e5cea9d)"><g clip-path="url(#b9f141c115)"><g transform="matrix(1, 0, 0, 1, 46, 9)"><g clip-path="url(#1867331469)"><g clip-path="url(#fd7d0b0ba3)"><g clip-path="url(#8ebbba093a)"><rect x="-65.8" width="129.6" fill="#939393" height="54" y="-17.25" fill-opacity="1"/></g></g></g></g></g></g><g clip-path="url(#d656d5dbb7)"><g clip-path="url(#2b2a75da74)"><g transform="matrix(1, 0, 0, 1, 71, 16)"><g clip-path="url(#ac534aee8e)"><g clip-path="url(#72de4623c6)"><g clip-path="url(#22bc4c8546)"><rect x="-90.8" width="129.6" fill="#939393" height="54" y="-24.25" fill-opacity="1"/></g></g></g></g></g></g><g clip-path="url(#280fcde1a8)"><g clip-path="url(#e8c3e7bfb0)"><g transform="matrix(1, 0, 0, 1, 20, 16)"><g clip-path="url(#0fbfff4982)"><g clip-path="url(#b3fbd9bb9e)"><g clip-path="url(#aa6711d81d)"><rect x="-39.8" width="129.6" fill="#939393" height="54" y="-24.25" fill-opacity="1"/></g></g></g></g></g></g><g clip-path="url(#290d676084)"><g clip-path="url(#a7ff1820fc)"><g transform="matrix(1, 0, 0, 1, 54, 9)"><g clip-path="url(#d6e0719cf7)"><g clip-path="url(#066f7419cb)"><g clip-path="url(#0828fc51bc)"><rect x="-73.8" width="129.6" fill="#939393" height="54" y="-17.25" fill-opacity="1"/></g></g></g></g></g></g></svg>